<mxfile host="app.diagrams.net" agent="Mozilla/5.0 (Windows NT 10.0; Win64; x64) AppleWebKit/537.36 (KHTML, like Gecko) Chrome/130.0.0.0 Safari/537.36" version="24.8.4">
  <diagram name="第 1 页" id="rsPgdA_o-9bvnhZcqlLW">
    <mxGraphModel dx="368" dy="1784" grid="1" gridSize="10" guides="1" tooltips="1" connect="1" arrows="1" fold="1" page="1" pageScale="1" pageWidth="827" pageHeight="1169" math="0" shadow="0">
      <root>
        <mxCell id="0" />
        <mxCell id="1" parent="0" />
        <mxCell id="ImZzVccB2ujbgJuywWcu-1" value="" style="shape=image;verticalLabelPosition=bottom;labelBackgroundColor=default;verticalAlign=top;aspect=fixed;imageAspect=0;image=https://assets-lighthouse.alphacamp.co/uploads/image/file/15009/Tshirt-fullscreenshot.png;movable=0;resizable=0;rotatable=0;deletable=0;editable=0;locked=1;connectable=0;" vertex="1" parent="1">
          <mxGeometry x="2280" y="40" width="701" height="1200" as="geometry" />
        </mxCell>
        <mxCell id="ImZzVccB2ujbgJuywWcu-2" value="" style="rounded=0;whiteSpace=wrap;html=1;fillColor=none;" vertex="1" parent="1">
          <mxGeometry x="2292" y="46" width="30" height="25" as="geometry" />
        </mxCell>
        <mxCell id="ImZzVccB2ujbgJuywWcu-3" value="" style="rounded=0;whiteSpace=wrap;html=1;fillColor=none;" vertex="1" parent="1">
          <mxGeometry x="2330" y="46" width="100" height="25" as="geometry" />
        </mxCell>
        <mxCell id="ImZzVccB2ujbgJuywWcu-4" value="" style="rounded=0;whiteSpace=wrap;html=1;fillColor=none;" vertex="1" parent="1">
          <mxGeometry x="2285" y="39.75" width="151" height="37.5" as="geometry" />
        </mxCell>
        <mxCell id="ImZzVccB2ujbgJuywWcu-5" value="" style="rounded=0;whiteSpace=wrap;html=1;fillColor=none;" vertex="1" parent="1">
          <mxGeometry x="2280" y="31" width="710" height="56" as="geometry" />
        </mxCell>
        <mxCell id="ImZzVccB2ujbgJuywWcu-6" value="" style="rounded=0;whiteSpace=wrap;html=1;fillColor=none;" vertex="1" parent="1">
          <mxGeometry x="2541" y="48" width="37" height="21" as="geometry" />
        </mxCell>
        <mxCell id="ImZzVccB2ujbgJuywWcu-7" value="" style="rounded=0;whiteSpace=wrap;html=1;fillColor=none;" vertex="1" parent="1">
          <mxGeometry x="2612" y="48.5" width="37" height="21" as="geometry" />
        </mxCell>
        <mxCell id="ImZzVccB2ujbgJuywWcu-8" value="" style="rounded=0;whiteSpace=wrap;html=1;fillColor=none;" vertex="1" parent="1">
          <mxGeometry x="2683" y="48" width="37" height="21" as="geometry" />
        </mxCell>
        <mxCell id="ImZzVccB2ujbgJuywWcu-9" value="" style="rounded=0;whiteSpace=wrap;html=1;fillColor=none;" vertex="1" parent="1">
          <mxGeometry x="2530" y="39.75" width="200" height="40.25" as="geometry" />
        </mxCell>
        <mxCell id="ImZzVccB2ujbgJuywWcu-10" value="" style="rounded=0;whiteSpace=wrap;html=1;fillColor=none;" vertex="1" parent="1">
          <mxGeometry x="2889" y="46" width="21" height="21" as="geometry" />
        </mxCell>
        <mxCell id="ImZzVccB2ujbgJuywWcu-11" value="" style="rounded=0;whiteSpace=wrap;html=1;fillColor=none;" vertex="1" parent="1">
          <mxGeometry x="2916" y="45.5" width="21" height="21" as="geometry" />
        </mxCell>
        <mxCell id="ImZzVccB2ujbgJuywWcu-12" value="" style="rounded=0;whiteSpace=wrap;html=1;fillColor=none;" vertex="1" parent="1">
          <mxGeometry x="2943" y="45.5" width="21" height="21" as="geometry" />
        </mxCell>
        <mxCell id="ImZzVccB2ujbgJuywWcu-13" value="" style="rounded=0;whiteSpace=wrap;html=1;fillColor=none;" vertex="1" parent="1">
          <mxGeometry x="2878" y="40" width="100" height="40" as="geometry" />
        </mxCell>
        <mxCell id="ImZzVccB2ujbgJuywWcu-14" value="" style="shape=image;verticalLabelPosition=bottom;labelBackgroundColor=default;verticalAlign=top;aspect=fixed;imageAspect=0;image=data:image/png,iVBORw0KGgoAAAANSUhEUgAAAeMAAANACAYAAAAYYAVRAAAAAXNSR0IArs4c6QAAAARnQU1BAACxjwv8YQUAAAAJcEhZcwAADsMAAA7DAcdvqGQAAKIhSURBVHhe7d0HnBRF2j/wIimgAgqSFgmLhJVVzHgGDvVwlRVFAfXUU9BXTxF8EVH0/fPBHPAWE4jpBM6smJBbdI2w3pnPgKuLIIssrCJKVkE47H//aqpnume7e8L2TE34ff2U7KSemZ5++qmurqpuZJgEERERadNY/UtERESaMBkTERFpxmRMRESkGZMxERGRZkzGREREmjEZExERacZkTEREpBnHGVPyXvub+qO+9Tu2CdH7j+qWU5NdWorW3Q5Vt5zWL6tUf9W3x5evimYt91S3ohw4TIj2vdQNIqLswmRMyau4Q4gXJqkbTj8Nvd5MyL+pW04dDj7dMxl/9/5j4ufvq9Utp32/ek00rv2PuhXlpqVMxkTUIHPnPivef/99sXr1Knl7xIiR4g9/+IPo0mUfeTuV2ExNRER5Dcn3zDNHiiuvnCAT8qpVq8V7770nb6NYyTmVcjoZf/vtt2LhwoXihhtuED169JDl2GOPFaNHj5aPERFR8D766CNRV1enbsUnmdcEBQkXyfeKKyaI2trV4t1335P/4jYS8xlnnJHyhJyzyRhJ2Eq+119/vbxv0KBB8t85c+YwKRMRBQRJ9KWXXhKTJ08WxcXFct9aUlIi/8V9bkkW9+ExPC/6NTNnzkxbYr7rrjvDiRjFDrdHjhwpEzGek0o5mYxxJIxk2717d/H2228LnBZfsWKFmD17tryNv0eNGhVOykzIRETJQRJGEkVixd/Dhg0TY8aMEYcddpj47rvv5H0XXHCBI7niKBivwWO4P/o1SMbW46m2evVq+W90IrZY9+NccirlXAcuJFjUrHAUjMTrB0kYR89I2kjQlCB24CLKa0iWSMJw8803y6QaDYl13rx5MuniOQUFBXIfDThAQgKOZn8NkjRKqhx55B/kv2ia9oLn7LNPF/HMM3PVPcHLuWRsJddYidhiJW8cKWPDoPit/+dN4nfjd3XLadclr4ume3VVt5w2tSsUTfc9Rt1yMqoWyKFPbnb89otosltbdcup1QEni126HaJuJe4D2YMyVEP20qVLFzHgiCPUrUiN+oXnnpf/FnQpqPccy7133yMfHz5ihLrHCcvCZ8BrsQyLdX/066z7o1mvjf6cbs+N5vXZ7LAsv+8b73s1ZF1CIt/fEuuzub2f9X0HHDHA87PkKyRKHL2CV1K14EjY3lyNhIzE7Pcae0KuqKiQrwkCmpufe25uuNn5+++/l/926tRJ/usm+jnoYX3FFVeY20xwvaxzKhlbiRWJ2Do/HA+rqZpHx4lZv7RS/PTlq+qW0z7rvhUtPnpK3XL6YdhtYtO2zeqWU2HN+6LpUveK1Krhd4itv2xQt5y6D54gdtm9nbqVmEkTrxLPP/ecuuXv8vHjzfK/cid97ll/DicRO+y0p5b9LZwYsGy8Bzzx9FOuO/VzzGUhUSAh4rWWfbv3kP/aX2dfnhfrM2CZsZ5rwWvwPm78vi++5+Pm6/Cv9XljwXMX/usd+Tc+I76/G/uy7WK9T/Tr/N7Dzvp9Aev5w/c/EIebibhudZ1vZSofIVmieB0RR8NR9P333y+Ta6zkbbGOvLF8vE8Q0GsaidhKpMkkY5xDRkIO8kg5p84ZL1q0SP6bSCKG888/XyZjdPqi/IOdLRIRdtzRO33rPqvgCAkGHX2MTEy4DztwJD5rR40dPxJXIvAasCc76z74wEwKFiQIC97TKtZ3ALwWSRj32b+b9TjY70M5fcRw9Uh9ft/XStSAx+zLtLPff7p6LVoM7EkSn9X6LmAt275e7BUn6/nWa6JfZ7G/Hu9vPddeQssI/b4QSsBd5PrG/bhNEUjEEE8iBjzv1FNPjXlEbIfX4Ig4yHPH6B2NRIpmaRQkWBTrtluJfg5ej+UEKaeSMZIpmpsTZSVvK5lTwzVqpP7IAtgJ44gQR2oo9iNT/G3dj4Kdtj0Z4OgLR1JYBp6LZAT2nX8qjTPfG++Lgu+Az4PPCFYyt383PG5BQrR/N3wHN/F+XxQ8Zl+mlZDxr/1+q3Xh3rvvDj+Oz4lifRf8C3ieV+UGy7F/f/xrfQ+8zl6hsVjPjS6431p3UGe+HvwqKfnK3tycCJz7jTd5R7Pes6GihyihtzSanP24PSfooU45Pc44Ud26dVN/EXmzjpCsRGOHHbeVqHTAZ3L7XEGxEpQF3xcJ2ToiTsR086jYEp0IAevRnuzdEms0fAa0dFjwumShogNolcB5YyR+CkGPZ4j3CLchrPew3jMI9nO9oeFLZ6hb7qKfk4oZuXIqGaPjVjLDlDi0iRJhHSlZR2zWOWckCyQD+9FZNCupRJegRCetIBKzPUniu0Z/XySpZBKV/XNGJ2KL/ajU3lTvBd/f6gQGbsvFc9xKNPt301W5ylTpSMIW64g4iPcM+mg2yOXlVDJGc3NDknGi55opP4V20pEjNiQmJCic+8S5VZwH9WI9L7oky748vLd1bhfQ9BqEhnxfP9bn9Kq4gL0y4VZpsc4527+/9Tyvo3V8duu50YXihybqoJqO/aAndlA9qYPitl01VE4l4z/+8Y8ysWLSj0RY45JxZE3xa7JrSzlm2K1sbFcoe027lVafPi+6f/+la/mxYH/X16C02L2d63uhpBuOlkLnPsc7jr6QYHAe1GvHjiB2K8lC4rGKldzwmfDZvI42k5Hs9/VifVaw/+3GWj/RTeTg9f1REfE6Wo9e91YJcn3lAxypIlGipIqV7NHxKwhWpyv83kEIshNXzh0Zo2CIU7w9o63B59ddd538l+KHiTu8StN9j5bDl9xKkzadxS6fv+xajL32cX0Nym59j3d9L5RkhzU1BAIaO3zs+JGo0JRpBXkoSdU/YsRz8NzokuzOwXpvJCALklZQOxu7ZL6vF7zOeq1bkrWzkqxbsrTWp/37v2AeuaMXtBev3wD3U/ysBGn1qk4Fa0KRoJJxJsu5DlwYv4ajYyTZWAkZ44uRuNEDm03UFC8kHRwJ4mjMgsSC5lZ7b+VYSSYISDpWkrQSktWMHJRUfV97wvQ6OsZ38WMldauSAFiWV+9rCg6OjK2j41QkZCwTy8Z7BNVMbZ3jxTbTEA19vZucS8b2qS2RbFGQlK3EbDVjY6Yu3IeLSHDmLUqE1STqlvDsCcneqzcd0NnJOnpEEouVyOLl930bwmpGxrLtPast0ffbO3O5wXe3zj+n4vNSfdh3IlEicQZ5/thK8Fh2Ju+f2YErBms6TCRaJFwrKTdq1EgmYesqTngOm6cpUfbe1DhqtJIVkp+9qTbd5yBRW7c3tboluGTYkyYSnP372hNerGQZDevHXnnA0Tf+xfKxHu2TfSDJxrM+MRzJOmrBclCioVc23setWO9H8bPmm8bUmEEkZCRi6/RhULNuBY1DmxKAhIxEa12tCQVJGAX3WUfPaKYmsrM3Qbmde0RisJqE0XnJ6slrJSqwn0+NtTyw7vd6LqZitHgtA/B667MhsbglI4t9mX6QBO1N4F7f1y1ZWp/VK5HidfbPi2Vi+VivVmLE4/ZKht/6xGPW+ODQ9w8Nh7K/BsvG+7iVoCow+QTNyDini4QcfXWmROG1ViLGPhvLDpK1TQWVTK3lBaGJmZxCh4k5qk2bNuLAAw+UxerghfvgH//4h7jnnnvkY+xJHaxff/xGbF23Ut1yavPzj6LJD1+rW05b9jtBbN+xVd1yat39UNGsRWt1K7Wqv6oWmETMShTRkFyQCFq3ai1atWoln1u0334yUSNxHBGVfLA83Gc1o7pZYj4HR6FW4sByhblkNH3jc4RuhxIQlofnRr8P4PEtm7eYZbMYfMIJjkTktcxYEv2+dvgsfzphsNjPfH40LMtv2fiObuvM7/cJvU/oO466YLRtfYa2Hdz2KvbnU/yQNLds2SLeeust8fjjj8vkHO+2ZcER8Qj1W6ciEcP7778ny4QJE8LbQzKQhHGxCUyLiRKEnLtqUyJw/hjN1rxiU/C2P/o/ovFPNeqW04+d9xfGnu47vHYfPCYae/SM3nncOLHrgaepW0SUaXCe1365xHinvrQ3TacqEcOVV04Qc+c+K+eXbsjRMc4V47KKmJnL6zrIicrZZup44GgYiTiRoVAUn112byuafv22a2ncupP4+dcNrqXxbu1cX4Oya6uOaulElIkw97R1DhnDkuLp2IXnpCMRp0KQzdR5nYzB6sCV6EQhRERUH5KplZCRaO3XMbazzg/be02nKxE39Jyx9Xr2pg4Qjo6xEdiHPxERUfKQVCsqKmQzNZqg0bHLfhlE3Ife1/jXem46EnGQyTNoeZ+MAZ26kJStphIiImo4HCGj6RqsZuvoZmmUbBT08Ka87sBlh/PG2EC4OgLywiQhKu5QN5wwzzSmt3RTWPO+aLr0bXUryqR3zScE03ORiNIHR8D25mo0SyNRp6tZ2mJ14AoikeIoG5dVnDbtTnVPw/DIWMHRMTpzERFRsOzN1ijpapaOdsUVV8S8dnG8sJwRI0aqWw3HI2NKjeXmUayHrb+sN6vG+6tbTo1X/kfs2tqj13SjRjwyJqKcxGRMRESkGZupiYiINGMyJiIi0ozJmIiISDMmYyIiIs2YjImIiDRjMiYiItKMyZiIiEgzJmMiIiLNmIyJiIg0YzImIiLSjMmYiIhIMyZjIiIizZiMiYiINGMyJiIi0ozJmIiISDMmYyIiIs2YjImIiDRjMiYiItKMyZiIiEgzJmMiIiLNmIyJiIg0YzImIiLSjMmYiIhIMyZjIiIizZiMiYiINGMyJiIi0ozJmIiISDMmYyIiIs2YjImIiDRjMiYiItKMyZiIiEgzJmMiIiLNmIyJiIg0YzImIiLSjMmYiIhIMyZjIiIizZiMiYiINGMyJiIi0ozJmIiISDMmYyIiIs2YjImIiDRjMiYiItKMyZiIiEgzJmMiIiLNGhkm9TdRVqmbPVKUTKtWt2yGzhRVtw1UN1KtTswZUSLKlghRdGWFmDu6QN0fgIWTRPHYcnXDS6mYWTVVBPttk/hO4c+ais9DlPt4ZExZqlLc65aIYf4YUVxcLIqvrVR3pNJyUW0mLaguf91MYwGpnSNGxkzEUC7GBP49bd9p6fLQHzHUrahRf5WL8oXqzyRUXmv+buZvN6kByyDKRkzGlJ1qa4S1+5dHwlVVsswcqu4DMymnfqc+UExV71313CgR2HFx11FinP27eCoSEy/VfxxaMHpu+DeYOkjdmbBKUT4/9Fd5RToqUkSZg8mYcsrA28yEsGCimaJCalYEdqyadvK7WIne9p3slY+qqrliVFd1PxFlLSZjyj84v4lm7HiastFcbD13xJykm6Gt5tfi4pFiTq26U6PI54m3SbhSTGrgOgha4t+BKHMxGVPOqXuzXITOJpeKcbbOR+jwJXfe9nOx1vnl4klmurGxEvaQMrUs05IyUYL7HAlcJSmUeokKHaFCj41Rza/CXFrZkGIxcraOlOb2eYQoH4v7vCoJ5er7jTH/Mql1EP35w+vWLI7EaKvMyNfYKzfh97TWoXoPCP8uKPbfJpnvQJT5mIwp+zl23MWqh3WRmLjA2at3+dJQWkUPYauZN3KOuVxMDycYMznYEnbpDKtJuEJM7IslIyXEVnltqEdyCD4PljHTrCIUidLjA+x1Hae62eMjn6fvRFFhNXXPKFV3uphfHkmQNtXT7nVWXuJRPt5ZuelbKgajid1+/t9N3yLRU/2Z1HcgygJMxpSbho6rdy7VOgdrH6oz8DYkx5Bwz+GozmGRDkkFYtRz5utvGxi7o5Z5BDjdOnKTScM6t4sOX3rO81qVEVkxuNPW2WzQVHO9eH0mqxIRKhVXhs/Gi5oEj0Krl5jvb0+gVoe3rqPEXHlf5LdwnBe3dYxL7jsQZT4mY8p+br2p5dGyV7NlpKnT0TS6rCZ0xNt1sCg1j4AlLCeZoUM11eEjwKLSwbGTd0PZz4Pbi+2zDywJVztE2ZA4m3SjKjUFPQrVX8koFTMb2OM8qe9AlAWYjCmnhI5+Q83Jcoc9wXYeN3y+0t587MY8Ar7T1nvZ3gweZ2KOjLsVorBHylOxqKxwa0w2zS+PNCebR4+RZvnQuevQ90pTUhta2vDJQHR/B6IUYTKmHFQgCnupP5dUi1Djc6WYZJ2vtDeVhhN3FKvpNPpcZLJHyinmGAblKM7z5s7KiiW7jjJz4TsQRWMyphxUJ2qWqT8tCyMdkUrH2ptKI7NNuZLnIqN2/vajTQ/25tzMG+scOvctv1e4slEtyt/MtM/pJxe+A1EEkzHlHGeP20hPXDeV19rOGfuyHW3H03lpUGmkY9i08Zl7xFZYFG6Oj3fqy7Swzt/HI1O/A1ECmIwp+7kObQJbj1tbcgyNSQ0V+1jVCHsHL5fnWkNyfA0Ul4d7HtvPbaqio6nbrZOXbahRaYnuaTUHilLrfLA1phvFvq4y/jsQJYfJmLKTvcezK1w9yD7UZaCYap9SUsEYYmu4TqTXc4EYXBr9TAXnmx09gnuKIvU5ontNy/maPca/FvX2O153Yfu+Cb/WYquQRMN6iAzhsn2n6PcKH4UWikLXXtbme9jnpk7wcw+8tP5v5DhKjvs7EGUXXkKRiIhIMx4ZExERacZkTEREpBmTMRERkWZMxkRERJoxGRMREWnGZExERKQZkzEREZFmTMZERESaMRkTERFpxmRMRESkGZMxERGRZkzGREREmjEZExERacZkTEREpBmTMRERkWZMxkRERJoxGRMREWnGZExERKQZkzEREZFmTMZERESaMRkTERFpxmRMRESkGZMxERGRZkzGREREmjEZExERacZkTEREpBmTMRERkWZMxkRERJoxGRMREWnGZExERKQZkzEREZFmjQyT+jttamtrRU1NjVi3bp34/fff1b1Eua1x48aibdu2orCwUHTt2lXdm3kYn5SPdMdn2pPx4sWLxdq1a0VRUZHo2LGjaNKkiXqEKLft3LlTrFmzRlRXV4v27duLAw44QD2SORiflK90x2dakzFq3EuXLhXHHnssg5zyFoL+7bffFr17986oI2TGJ5G++EzrOWM0faHGzUCnfIbtH3GAeMgkjE8iffGZ1mSMc1Bo+iLKd4gDxEMmYXwSheiIz7QmY3QGYa2bKFT7zrTOUYxPohAd8cmhTURERJoxGRMREWnGZExERKQZkzEREZFmTMZERESaMRkTERFpxmRMRESkGZMxERGRZkzGREREmjEZExERaZY3ybhuYaWoU38TUbapFJUL1Z9EOSg3knHtHDGyuFgUO8pIMadWPb5wkigZO0aUXFup7iAS4qOPPhKTJ09WtxLz0ksviZkzZ6pbFEvltdHxaZa447FOzBkxRowZa4tpynn5Fp85kIzNQJ1QJqrNv0pnVImqqlCZObRaVFtXwBo0NXT/bQPVHURCBiuCNtGAt16D19fVsb0lFiTiMfPxV5GYuCASo1WX9mRrFXnKt/jMgWS8XFQvwb+lonSQvEMaeFuVmGq7TRTt5ptvFocddlhCAW9/7uzZs0VBQYH8mzzUzhHTZSIuFTOr5opR9mu1dy0QXHvkJd/iMweS8UBROhT/losxXs1eCydFNYtViknRTWYoI+aomjqaxaIfZxNZrkGgJhLw0YGO15G/ujfLZauVGFpqRqo3t2bsSb7niN1ieJJ5b0jd7JFqGbbn8TRVVsm3+MyJc8YDb5tp1rtN88fUC0p3A8VUq6msqkJM7Bu6t6h0cKimvvBeUWYebRddWRF6zoKJosjcpZTdz2DONfEGPBNxwxT17qn+cmFWlmUz9tCZKiZD8Vw+1juOK68dY1a/baemZshX1KuQl481n2ctl6epsk4+xWdudOCykqtMmmAGZZxHsnWzx8vEix3B3NGhJo3KCoR5kSg9XjVxdB0sSpGwl9XwHFcOihXwTMSpFYo3M7GWWMlyoLj8SkRyuSh3PTquFOWq6Tt8amrQ5aFK9fxyZwJHImYSzmr5Ep85koyVrqPEXDMpV8hAjuNIFr2sp8muX2JmvYA1Xz/Eav4qCSXsJdVieehByjFeAc9E3DAFPQrlv9VLY0VOkSgKPTV+fYuEz/G2FEnwlM3yIT5zKxkr1g7AF4ZDjQ0dAU9cMNX1fJa9d3aouD+PckN0wI8ePZqJuKEGmUev+Hf+9BgtVbbRD6blS+WZZn+OyrHVkZNyVa7HZ04k41DnD9Usjc5aMsn6naeyD4eK6uFpGnhpqLnb75wV5SZ7wGOcIzARN4TV5KxamlQnSdnBSp3fDcfbDNWB0tYD2z5CIiLSjD19tupyOXu6PIccq6MYZbdcjs/c6MBVgrq3CnaViO3ngEVhkQz2iEgtunys1RQd2VHI5m6rQ4j1mFlGqsCn3GYPeCbihisYPVd1sDItKRMlZizJ00NWHwwr3tRjxUNQUcZQKKslqkAU9pJ/hGGZM4eaUT+tRMamXB7PD+eFXI3PRoZJ/Z1yc+fOFSNHjlS3iPJbpsUD45MoIt3xkJPnjImIiLIJkzEREZFmTMZERESaMRkTERFpxmRMRESkGZMxERGRZkzGREREmjEZExERacZkTEREpFlak3Hjxo3Fzp071S2i/IU4QDxkEsYnUYiO+Ezru7Vt21asWbNG3SLKX4gDxEMmYXwSheiIz7Qm48LCQlFdXc3aN+U1bP+IA8RDJmF8EumLz7ReKAIWL14s1q5dK4qKikTHjh1FkyZN1CNEuQ1Bjho3Ar19+/bigAMOUI9kDsYn5Svd8Zn2ZAy1tbWipqZGrFu3Tvz+++/qXqLchnNQaPpCjbtr16iLaGcQxiflI93xqSUZExERUURmdeckIiLKQ0zGREREmjEZExERacZkTEREpBmTMRERkWZMxkRERJpxaBM1GMelUj7KlnHjlB2YjKlBOGMT5atsmFGNsgeTMSUNR8RLly4Vxx57LJMw5S0k5bffflv07t2bR8iUNJ4zpqShaRpHxEzElM+w/SMOEA9EyWIypqThHDGaponyHeIA8UCULCZjSho6a/GomCh0dMzOi9QQTMZERESaMRkTERFpxmRMRESkGZMxERGRZkzGREREmjEZExERacZkTEREpBmTMRERkWZMxkRERJoxGRMREWnGZExERKQZkzFlnLrZI0VxcbGzjJgj6tTjDVV5rbm8ayvVLcoVH330kZg8ebK6lZiXXnpJzJw5U90iSj8mY8ostXPE+GnV5h+lYmZVlaiSZaYoXVItloee0UB1omaZ+c/8csF0nFuQTJFUE03I1mvw+rq6oKp8RIlhMqbMUlMtkIrF0FIxUN4BA8XUqqm220T13XzzzeKwww5LKCHbnzt79mxRUFAg/yZKNyZjyiyDSs1jYtP8MWLSQnlPfebR80ifZmzZDF08UsxZGHneyNnmowsnmX+XiLIleFa5GKMe83wfyipIpIkk5OhEjNcR6cJkTBnGPAqeIdOxKB+rEq3j/G6dmDOhzDx6LhITF4SasSuuLBJiSZkYj4QbVi3KxpYJcWWFfM7c0eYRz6Cp5t8VYmJfPB5pBp86SL6AckC8CZmJmDINkzFlHpk0VZIF8yg5fORb+7oox5Ft31IxuCvuMHfAo8fJo+nq8tcdnbyKzEQskzDllVgJmYmYMhGTMWWsgtFzI0ey5pHvvfbm5F6Fwj/NFonS45mI85VXQmYipkzFZEwZrkAU9lJ/2i2riRwF19aIGvUnkSU6IY8ePZqJmDIWkzFlmEoxCeeJVbM0OmONmY/7i0RRoflP11Fi3FDzX9uRcuX9OIdsPqN0cIyjZTszgdeqPyln2RMyxiEDEzFlIiZjyjADRalKtiVmUg4lYiFKZ8wVo9Q54oG3hZqurQ5eeE7854cLxOBSnIuuFmVD8PqRYg6Tck6zJ2QmYspUjQyT+psoIXPnzhUjR45Ut4jyG+OBGoJHxkRERJoxGRMREWnGZExERKQZkzEREZFmTMZERESaMRkTERFpxmRMRESkGZMxERGRZkzGREREmjEZU9IaN24sdu7cqW4R5S/EAeKBKFnceihpbdu2FWvWrFG3iPIX4gDxQJQsJmNKWmFhoaiurubRMeU1bP+IA8QDUbJ4oQhqkMWLF4u1a9eKoqIi0bFjR9GkSRP1CFFuQxLGETEScfv27cUBBxygHiFKHJMxNVhtba2oqakR69atE7///ru6lyi34RwxmqZxRNy1q7q+J1GSmIyJiIg04zljIiIizZiMiYiINGMyJiIi0ozJmIiISDMmYyIiIs2YjImIiDRjMiYiItKMyZiIiEgzJmMiIiLNmIyJiIg0YzImIiLSjMmYiIhIMyZjIiIizZiMiYiINGMyJiIi0ozJmIiISDMmYyIiIs2YjImIiDRjMiYiItKMyZiIiEgzJmMiIiLNmIyJiIg0YzImIiLSjMmYiIhIs0aGSf1NAfrtt9/E2rVrxXfffSfq6urkv7i9fft29Yz8tMsuu4j27duLTp06hUvHjh1FixYt1DOI0oux6o6xml5Mxg2E1bdx40axatUq8e2334qVK1fKsnr1arF+/XqxYcOGcNm8ebP473//q16Zn5o2bSpatWol2rRpEy577bWX6Ny5s+jWrZvo3r276Nq1q/y7Xbt2olGjRuqVRA3DWE0MYzW9mIwTsHPnThm4y5YtC5elS5eKH374Qfz888/i119/leWXX34R27Ztk8FPsSGId911V9GyZctw2X333cXee+8tevbsKXr37i169eolS48ePeROgsgPYzU1GKupw2TsYcuWLTKAq6qqxFdffSW+/PJL+S/u37Fjh6w1W/8i8Cl4jRs3lsHcrFkzWfA3gh8BX1xcLPr16ydL3759Za2dNfP8xFjVj7HacHmXjPF1UX7//ffwv99//70M5M8++0x88cUX4vPPPxcrVqzI+3NG2aJJkyZin332Efvvv7848MAD5b8HHHCAbD7DYwh8FOwwuBPIHozV3MNY9ZazyRiBiwBFExQ6aKBs3bpVBm51dbUsS5Yskf/ifBGeT7kDgYzzXX369BFFRUWyRo5/0Xy22267yaY2e8GOgPRgrOY3xmpITiRjBDHOA6FZyio//fST7KSxfPlyUVNTI/9FcCPQKX+h+QydTnB+C6WwsFAWnPPCDmGPPfYIl+bNm+dd7TzVGKsUr3yL1axNxqhJ4zwRmqrQOxKdNfCvVdatW6e1NySaWVCrwwaCTiJu56rQG3HAgAFyw8pFmzZtEh988IHssRoN6wcdP7D5Yf3oPNrBZ9lzzz1Fly5dZPDjXzSloQMKmtFQQ8cwD0oOYzXzMVb1y8pkjF6Qr776qnjkkUfEu+++KzcknV8DNbi2bdvKcXjo9m+Nx0NZvHixmDt3rhxSEW3w4MHizjvvlB0cchF2vhMmTBBvvPGGuicCnThGjBgh+vfvL3u44lwgCsZ34t8ff/wx7ecBS0pKxHHHHScOOeQQGdQdOnSQzWLYOWMnwKPkxDFWswNjVb+sS8Y4lzR//nxx0003yR6T6a6loYaImhg6HOBf1M7wLwIcY/BQUHPDBoyN4+WXXxb/+7//K5vhoiGwZ8yYIf74xz+qe3LLwoULxdixY2Xv1mhYf/fcc4849dRTZXMkdoAY34mdNc4L4mgJEzCgpm6NCa2trZVNnEHCb4fPOGrUKDnBAQWHsZo9GKv6ZVUyxvCE8vJyMWnSJPHNN9+kNLjRScAaO4ea17777isLNgico0CzllXQhR+1MTfo7XnOOee4buStW7cWDz74oDjjjDNy7qgLm9Uzzzwj/vrXv8oJFKJhmMPjjz8ue1S6wW+L84toFsN5RfyL4F6zZo387dHsiXOL+Bf3YdtI1A033CCmTJmiblGQGKvZg7GaGbIqGb/22mviggsukNPVBfmxUStGx4D99ttPnnfAxoeefahB4/wDxs1Z/6KZKxHYOE888UTZRBcNQX399deLK664Qu40goLa6+uvvy5r8pjowOt8HL4LxgGitolmOKyHoOB7T5s2Tdx4442uv9WRRx4pmy8T/d5ohkIwo1nM+hcdgL7++mt59IXvi50pAh87BTcHH3yw3LEeeuih6h4KGmM1PoxVxmqYufKzwr///W9j9913x5aSUDGDKFzMGrRh1qCN448/3pgwYYIxZ84c45NPPjG2bt2q3iU1zJ2SYe4cXD/fsGHDjBUrVqhnNpwZzMbzzz9vmEcAru/nVvBcvAavDUpNTY1x6qmnur4f1gXWSSqZOznDDHjjqaeeMq666ir5m+O3P+200wyzFq+eRanAWI0PYzWEsRqS8ckYP5RZKzNatWrlurFYpXHjxoZZczPMGrLRqVMno2fPnsbAgQONiy++2LjnnnsMs/Zp1NXVGb///rtacvo8/PDDnp+/Q4cORmVlZWCfa+PGjcYRRxzh+l5+xaz9Gps2bVJLaRh8F3yn9u3bu74X1sVDDz2knp0+On77fMJYTQxj1Vs+xmpGJ+Nff/3VeOGFF4x99tnHdUOxCmrRxxxzjHHHHXfIWuOnn34qN/RM+UGXLFliFBQUuH52lFtuucX45Zdf1LMb5qeffjJ222031/fxK3gNXhuEn3/+2bjxxhtd3wcF66K6ulo9m3IBYzVxjFWyy9hkjI3k6aefNvr06SObrdw2FJSmTZsaQ4YMMZYtW6ZemXl27txpnHjiia6fH+WQQw6RTUVBWL9+vdG9e3fX9/ErPXr0kK8NwvLly42DDjrI9X1QsC6wTig3MFaTw1glO/duhZrhZD6GGZi1UHly3/yc6hEndNIYOnSouP3222VPykyF3ptnnXWWulUf5tlFhxev75kIXGv0z3/+c0ID3/Hcs88+O5DrlOI7VFRUyDGbXrAuvHq0UnZhrCaPsUoO5g+SUdDchVr2/vvvL88t4SO6FXQsGD58uOzUEWRnhlT58ccfjS5durh+F5Ti4uJAmp7Q3Ifa7hVXXGEUFhZ6dkZBwWN4Dp6L1wTRVLh27VqjX79+ru+HgnUQVBMb6cVYbRjGKtll1NAmdH3H2MRrr71W1rLNDU494oRu/qhlY9wZBuMnOoRBF4yVw/AIN6h9Xn311eK2225T9yQP6w2D8TH4HuP9vNYj3hMTI2BQPyZACKIGjHGlZWVlnu953XXXea4DXTBhwbx588RHH30kh+Icdthh4tJLLxUFBQVxPZ6PGKuMVV1yNl5lSs4Q6ImJDiB+553QAQTnMb744ousqGXboSbq1WsRBR0z3n//ffXs7PPee+/5dkjBd8c6yCQffvihPDq477775N8vvvii/PuEE04I3xf9+P/7f/8v/Hi+YqwyVnXI5XjNmGSMsYnxDIk4+uijjW+++Ua9KruYNVDjpptucv1uVkEHEfQuzTboUOLXEQTFrGUH0rwWFCtw8W803IcA9np89erV8nG3x3IdYzVUGKvplevxqj0Zb9++3aioqIg5SQCC+w9/+ENG98SMx8qVK42ioiLX74jSvHlzY+zYsYENn0gH9KbFZ8Znd/tOKPjO+O6ZBDVmFC+oVfsFL2ramV7bDhJj1VkYq+mV6/GqNRmjAwhWIMayuW0UVkFz11FHHZX1wQ2YUQaD6DHpgdt3RUET0V133WVs2bJFvSpz4TNOmzZNzpjj9l1Q8F0ffPDBjJtNBzVlbH/JQuCPGjVK3cptjFX378tYTZ9cj1dtfdbN4JZXdEEnApxk94IOH5iL9R//+Iec/D3bYU5ZXP7r5JNP9uzMsnbtWmHW4MTzzz8v543NVPhs+Iz333+/vIyaG3xHfNcTTzwx0Pl0g4BL6DWkUwc6isTDjDP1V3ZirDJWM0E64lVnrGpJxtbYRFxaDVf18FoBzdTYxDvuuCOjxyYmChvUhRdeKCe697J8+XLxt7/9TbzwwgsZGeRWcOO3wWf1gu+I79qQIEoVfCb0ukzWxx9/HNf3Qm9VbPPZiLHKWM0U6YhXrbFqBldaJTo2EdPlZVtPzHjg3M2MGTN8m/3QUxWzGt19993G5s2b1Sv1w2fBHMK9e/d2/dxWwXebPn26/K6ZCM1WaPpC545E4TVenUXcYJvHtp9NGKshjNXMkK541RWraU3GmEjerKEZffv29Q3upk2byit2YJKAHTt2qFfnHkwugEH8fuekUDp27GiMHz8+I3pubtiwQX4WTPDv9lmtgu+E52Xi8Ag7dOhI5jwSXuPXmcQOVxrCNo9tHzGQDRirTozVzJDqeNUZq2lLxugmj56YmIs11thEzF+7ePHinKxlR/vuu++MESNG+M6+g4JLp+EKL++++656ZfphXCWGq8S65Jt1pFRXV6demblQY04ksQKen8gOAT1Tsc1369bNeOWVVzJuyEg0xqo7xqp+qY5XnbGatmSMsYlt2rRx3SCsgho4ruiydOnSjN9hBen777+XgeO2TuwFG0nr1q2NKVOmyJp6umBcIt4T7+23c7YKLvGG75QtrACPJ2ATCWzLG2+8EV43iIF33nlHPZKZGKveGKv6pTJedcZqypMxmq7wBeOZJCAXxiYma82aNcaAAQNks5/b+rEXrCvMjztr1ixZo8UwhCB3iFgWloll4z1wrsWvqdIq+OyHH3541gU3WAHudU4qkR1AtKlTpzrWE8bp4pq9mdasy1iND2NVv1TFq85YTWkyRvv7vHnz4hqbiBpavga3BTXoU089NeakClbBejv44IPl2MEPPvjAWLVqVYM6HmDyAizjo48+MsrKyuSy49nhoGBqvVNOOcX44Ycf1NKyDwIY56QQ4PaOHvgbO7lEmsbsSkpK6q2vzp07y9hAjGQCxmpiGKv6pSJedcZqyi4UYW5ociL5yZMn+15azdyAxPHHHy/H6uXSkIhkYdwiLkc3d+5cYdZa1b2xdejQQRxzzDHCPGKR6xG399xzT2Ee5Qgz+OSl17Cu4b///a+c6B9d+Ddv3iw2bNggzMCUv5O5oxDvv/++MDd0+dx4dOrUSYwYMUKYG79832w3c+ZMOYTC3NmGb998881i2LBh8nYi8Hu6rZNGjRrJsbj4rUtLS0XLli3VI+nHWE0OYzUzBBWvumM1JckYwW1d4/Srr77yvCoINjgMMseKM2sy6l766aefxJNPPilmzZolvvzySxmQ8cKG07p1a9GjRw85pq59+/Yy0HH9U2sg/2+//SZ/IwS2WcOXg+FXrFghNm3a5LkjdoPfD7/b6NGjxTnnnCPatWunHsl+WCcXXHCB/BvbJ678kgxcFeeqq65St5waN24s9ttvP7ljxBhd7IjTjbHaMIzVzBBEvGqPVSTjIJkbjvHMM88YBxxwgO+5C/vYxJ07d6pXk2XLli2yR+sZZ5wRcziFjoLPNHLkSHn1HnzWXIRmsIb661//6tv7FjGCcbw6xjYyVoPBWM0MDY1X3bEaaDJGRwKMzzJrEDGD+/TTT8/5sYkNheEiNTU18rwIJm+Pp3dkqgs+Az4LJkHAZ8NnJHdIXEhgSGSxghwxg9hBDKUDYzVYjNXslgmxGlgyxpdZsGCBUVhY6LshNm3a1CgtLTU+//xzbhxxQi0MQ0hwWbO2bdu6rtd0FLz35MmTja+//jrtR3HZCts4xuGefPLJvh1sEDM9evQwysvLU370yVhNHcZq9tIdq4El48rKSqNdu3a+wY1axaBBg4wlS5bk1djEoODIBEMY0EsQPfzc1nEqCt5r0qRJsvcmLqNHicG2jh00tn2/o1CUvfbay1i0aJF6ZWowVlOPsZqddMZqg5MxahNvvfVWzHMl+GKYlSbfh0QEBVPXPfzww3KjQS24RYsWcQ9t8CtYBpaFZWLZeA+8FzUcLrSP8bmxghyxhJgK+miUsaoHYzX76IjVBvWm3rZtm3jjjTfERRddJNasWaPura9JkyZiwIABYs6cOaJXr17qXgrCzp07hXn0IhYuXCj+9a9/yb9//vln2QMTvw+GRZi1dNnL0/qpzSMi2buyWbNmchhF8+bNZXf93XffXfTt21ccffTRwgxu+Td+OwoOrppz/vnnyyEp+O28dOzYUZg7V/GnP/1J/j4NxVjVj7GaXdIdq0knY2xAr7zyirjmmmvkh/ZaDDakY489Vl5Hk2MTUw9jEb/++mvx7bffyu7+GDu3ceNGOU4RwQ4IanTNb9OmjRxOgWEV3bt3F3369JFjHSm1ampqxKWXXirMGrXnUBjshBEvt912mxgyZEiDxjYyVjMTYzXzpTVWkYwThdlfMCQi1qXV0IyCmV6qqqrUK4kIvvrqK2PYsGExe25iJqGnnnoq6UvbMVaJGiZdsdrkepO5sLht3bpV/POf/xS33nqrMAPXc5IANKuYwS2uu+46UVxcLGsPRBTStm1bOQmDNZuSWxyZ8SnWrVsnj57QFFZYWCjjKl6MVaKGS0esQkLJGLPBLFiwQNxwww1ythmv4EZzF2YpwfR6Zo2c5zKIoiDhYRYkNDeiedIvyDHLE2bH6tKli2wOQ3zFwlglCkaqYzXMXEBc0FsMYxPNN4jZ3IVxWp999lngvUGJcg1iBGMb0USM2HGLKRTEHMYFm0e6MeOKsUoUvFTEql3cyRjjDTt06BDX2MTq6mqOTSSKE2IF8XXsscfKq/u4xRYKYg8xiOf6YawSpUbQsWoXdzLGvKtub2oVBDfHJhIlL96xjYhFP4xVotQKKlbt4h7ahC713333nbpVX//+/eWlxDg2kSh5GHo0cuRI8emnn6p76sNl8PxikbFKlHpBxKpdY/VvTHvvvbf6y92JJ54oLwVGRMnr1q2bjCU/sS5/x1glSr0gYtUu7mR87rnn+vYM+8c//iEqKyvVLSJKBmZmwuxXXtDbGbHoh7FKlHpBxKpd3Mn4z3/+szjuuOPUrfrQ5fv222+XM5YQUeIwExNm8cF4Ri+Y+vDss89Wt9wxVolSK6hYtYt7nDHmQsW5KNQGNmzYoO6NwKlnfDD8e9RRR8lp3IgoPpgCsaysTLz44otyjLAbNItNnTpVnvPF2EcvjFWi1AkyVu3iPjJu3LixOOKII8Rll10mWrRooe51why4zz33nPyQRBS/efPmyU5VCHQ3mIB+7Nix4sgjj5Sx6IexSpQ6QcaqXfzPNGHC8uHDh8viBjXtVatWiVmzZvn2MCOiiM8//1zGTG1trYwhN6eddpoYMWKEjMF4MFaJgpeKWLUklIwBh98XXHCB5+E3pglD55BHH31UrF+/Xt1LRG7QjIxYWbRokeeUlZim8sILL5RX60kEY5UoOKmMVUg4GQOuoTlq1Cg5gbYbXPvxiSeeEOXl5eFLgRGRE2ID80c//vjjnpdnQ4wh1o455hh1T2IYq0QNl45YTSoZ42oU6LGJazd6XUz5xx9/FPfdd59YvHixZy2CKF8hJr744gsxY8YM2bvZza677ipOOukkGWvJdrJirBI1TLpiNalkDB06dJAdRHBY7nWS+sMPP5QXKscFs4koAjGB2Pjggw/UPU5oVsblDBFjmMWnIRirRMlLV6wmfD1jO7wxemu+9dZbYtu2bepep6VLl8oZgQYMGKDuIUCXeKybN998UzZ/oOBv7BRXrlwpa2OtW7dO+JqYlB0eeeQRcffdd3s2DeO3nzJlijyijXdohB/GavIYq/ktbbFqNNDPP/9sjB8/Pjwxtlvp0qWL8e6776pX5LedO3caVVVVxqRJk4xjjjnG6Natm7H77rvLCcfNH9Jo2bKlXF+YhPzyyy+X683cGahXUy4wa9jGPvvs4xorVhk7dqyxZcsW9YpgMFYTw1ildMZqg5Mx/PDDD8bhhx/u+kGtgsd/+ukn9Yr8ZNagjSeffNI48MADZVC7rSd7MY9kjP3228+477775I6Ust+6devkztvt97bKwQcfbKxZs0a9IliM1fgwVindsRpIMob//Oc/RqtWrVw/MAouxnzZZZfl9bVTEaitW7f2vc5sdMFz99hjD+PGG2/kBeCzHLZ9HEH5XZgcv/XHH3+sXpEajNXYGKv5TUesBpaMd+zYYdxzzz2+13fce++9jWeffVZrkKPW+uKLL8qLQ3fq1MkoKSkx/v3vf6c0ePB9586dm1BgRxe89uGHH87rHWS88FviN8Vv27FjR3kRffzmOo9YrG0AMeD2+6Igdu666y4ZS6nEWPXGWE0vxmpEYMkYcLg+cuRIo0mTJq5fABspLmr+5ZdfqlekD3705cuXG5deeqmxyy67OD7XnnvuabzxxhvqmcGrrq42unfv7njPZArOUS1evFgtlby8+eab8je1rzv85vjtsQ2kcmfu5auvvpJNXl47ecTM8OHDje+//169IrUYq+4Yq+nFWI0INBmjw8O//vUv44ADDnD9Eig4t3LJJZcYa9euVa9KvY0bNxrl5eXGYYcd5vqZUAYPHqyeHSx06MAJ/l133dX1fRMt2Ai2bdumlk5uTjjhBNd1h4Jt4J///KfcJtLlxx9/lDsX7KDdPhNKcXGx8c4778gYSgfGan2M1fRjrEYEmowBzQs439KhQwfXL4KCHogPPvig8euvv6pXpQaaG5YsWWLccMMNvk0OKGj/T0WzEnpj+u3w8KPjCOQvf/mLMWrUKNlM49dhpF27dsZHH32klk7R8Bvit3Rbd1bZa6+9jOuvv17WgFOd/LCNP/TQQ3Kbd/ssKIiV6dOnp71pjrHqxFhNL8aqU+DJGFatWmVcfPHFsmbt9oVQsFHjXEGqVjBW7CuvvCJrp7vttpvrZ4guqThX9/e//12eC3F7PwT36NGjjffee09+3u3btxuff/65MWHCBM+NFK+5/fbb1dIpGpq13NZbdMF6HDZsmDwK++WXX9Srg4VtG8Nd/HpkNm/e3LjwwguN2tpa9ar0YqxGMFbTi7HqlJJkjBrPhx9+aBx55JGe7e44L4DaZV1dnXpVcDB8484775S13GbNmrm+v1tJRYBjjCI2Jrf3++Mf/yhrzvZaPv7+5ptvjNNOO831Nejdd/bZZ6tnU7R4AxwF2waanO64446UDCXCto0dePR5T6tY52Xff//9lBzpxYOxGsFYTS/GqlNKkjGg5jhnzhzZC9Lty6FgeMWMGTOMrVu3qlc1DFYSOmCcd955sqnLa+fiVVIR4KhJeXWSueKKK1ybO3Ce6e6773Z9Db4TepeSu0QCHAXrE82J5557rmwKCyrQ8BvOnDnTdwgRjsIeeeQR7RNFMFZDGKvpxVh1Snpu6lgwNdyZZ54pTj31VM+Jszdv3ixuvfVW8fXXX6t7GubVV1+V15F8+umn5eT35vdTj+izc+dOz8n3MXG/27oxdwjCrKGrW/WZG7H6ixoK28hPP/0knn32WXkdUkx1GIQlS5aIW265RW7jbvC7Dx06tEETyweFsRrCWM1sOR+r5hdMKczk069fP0ctI7qgnR61pGShZnPttdf6jpuMp6Sitj1u3DjPpg8MLVmxYoV6ZgR69OF1bq9Bzf2UU05Rz6Roida2owtq31deeaXcppKF80+YPtFt+Vbp27ev/J0zCWOVsZpOjFWnlCdjWLRoUcwp5SZPniybyxKBJjPMgHL88cfH1cwV6zmpCHCcD2vbtq3r+7Vp00YOHMcPjffGhoFu/ObRgmyOcXsNOhHg3Ba5ixXg8W4n6CmL80OJNstiG54yZYrrcq2CWEjlWNmGYKwyVtOFseqUlmQMmCLOb/weaqQYUxbPeQAEAk7iP/DAA0avXr3i+tHQSxNz7vrVyFMR4JWVlUbv3r1d3w8FA97RmxUzvrz88suypucV3CjYKaBXIbnzC3BsJ+iEEU+PXTx33333ldsYBvdjm4sF2y5+G7/tHI9dd9116hWZibHq/p6M1WAxVp3SloxxVYvTTz/dNxgPOeSQmDP+4AQ6athjxozxDQR7KSwsNK666irjs88+851rNBUBju89YsQI3/dNpKCZcNOmTWrpFM0vwLFzx1jSa665Rgav23OiC46UMPEFehzH6ryBbffQQw91XQ4Ktn0M0cj034+xylhNB8aqU9qSMWoiuByV36B6NOv8z//8j2f7PHozPvHEE7Kpy69GYxXU4PFcvAZNGDgnlu4AhwULFniOX0yk4DtjvmDyFivAsW0hULEeMfsPtjm359oLtiM0hT366KOeg/2x3Isuush3eRiaoXMYU7wYq4zVdGCsOqUtGQOCDAPr/WrJCATMChR9TgpNXagxo+bs9rroguESmNoOV6ixlqUrwPG9cW7C70gjVsFr8X0w4QB5iyfAAb/1p59+Kq/M0r59e9fnRxfMWYymydWrV8tlWLB9YZv124ljJiHMZJXoeS1dGKuM1VRjrDqlNRkDAhUbqleg4UfAnKRvv/22eoVhvPXWWzGnnrMKAqGoqEhOa4b3sp8/0BXggPdGr8tkghyvwRR83333nVpa6mASA+xI0USDQfDz5s3zrGFmongDHLBtYNKJWbNmyZpwPL8NzmENHDjQeO2119RSDGPhwoW+5zjRqxaXJEzXRSCCwlhlrKYSY9Up7ckYh/2YyQYB67YyUDDbyvnnny/nqi0rK5O1nHhWPoIXzRk4Z+BWq9EZ4IDel+gc4zf1YHRBU8r48ePltIWpVlNTI7vx4/Nho0STT+fOneVg92w5okskwC0YGvHJJ58YJ510ku/2YRVsi926dTOmTp0qt1HMTuU3exSGTqDZN9Obp6MxVhmrqcRYdUp7MgZ8Ucz4g43HbYWgYCNDU0I85wlQsNJxst9vQ9Qd4ID3wBU/jj76aM/aGQq+T//+/Y3nn38+Lc1dCAxcDcfts2AHiybEbEgmyQS4BdtOIk2U2DaxjfrtsDGrFWrz2ZaILYxVxmqqMFadtCRjQHMKmoL8Vk48BTVC1BArKirUkr1lQoBbELRoMpk4caJx3HHHye+AYRWomaFpEN3uN2/erJ6dWggKXGze77c466yz5PrLdA0JcAvGFaIpDNuW23LiLdgBoCcxeulmM8YqYzUVGKtO2pIxoNkATWBoZnFbQX4FNSJ0/MD5mWXLlqkl+sukAM8kuBINdjBu68Qq+I0wji/Ta9xBBDjgwuZo0sIl0+KtfdsL1hfOV+m4OH8qMFYzA2O1vlyJVa3JGF588UXf60e6FbT5o1kIM+bE+4MBA7w+XK0EV5aJZ/gJfiecr8lkQQU4rFu3Tl679KCDDkq45l1QUCCbLXMJY1Uvxqq3XIhV7ckYXc1xQfF4azS4digG5r/66qsJX9uSAe6E5jdcccbv4vLR5cQTT0woSNItyAAHnJtCUxia/vyu6mIv2JZxPit6yE+2Y6zqw1iNLdtjVXsyBqz0k08+2XVl2QtOwKOHI5rM4pnyLBoDPAJNWJiHGENTEmnawZHOzTffnNT6T4egAxywrtC8esstt8hatNuy7QU9PTEMIxcxVtOPsRq/bI7VjEjGgOtT9ujRw3WFoWDqMsyHu2HDBvWKxDHAIzD8AjMoJdPxoWfPnsbrr7+ulpRZUhHgFgx3wVHegAEDXJeP0rVrVzmNXy5jrKYXYzVx2RirGZOMUaN57rnn5Own9hWG2h16LNbW1sofryEY4CEYq4cu/K1bt3ZdD7EK1iGOjtIxsUGiUhnggOVj54jZgKJ3jth2MXUftuVcxlhNH8Zq8rItVjMmGQPa7TGDz5FHHinb/HHVjpdeeimwsXsM8JDq6mqjT58+rusABcMmMEuN33SG2DmgGTLTmsBSHeAWbJOY8QgXA8C2in9xvirXzhN7YaymB2O14bIlVjMqGadaNgc4PhsmIDj22GPlpdxwObqbbrpJ9rBMpHaH8ZAXXnih6/dHwTkpBPfSpUuNO+64w2jZsqXr81BwIQFMNZdJQZ6uAKfUYqwyVvMtVpmMbSVTAxwBjPM+0U1VaHrB9HvxdkDAcp588knfdYDmG9QiAUE+fPhwz+cjYM455xxj5cqV8vmZgAGeGxirjFUm4xyWrQGOQe1oDnTrSYmr6mC6QpxbigWD2jFdXvQyrIIAwJVO7LVnXEQdk/l79eLEBdQxI1CmTFDPAM8NjFXGKpNxDsvGAEdTFYLOrwkKQx4+//xz3yaw9evXyzGfbq+3CmahWbt2rXpFCAL3uuuu8+1AgiYwNMtlQhMYAzw3MFYZq0zGOSzbAhwB+/TTT/sOI0HBhouhD14T7yPw7rrrLt+dBCZJR4ccNytWrJATCHhNhYiaOAbaYxYc3RjguYGxylhlMs5h2RbgixcvjvtSYZjt6NFHH1WvdKqsrDT69evn2XyFwL311ls9dxDw5ptv+s7+g2uHYjo63RjguYGxylhlMs5h2RTgmzZtMiZPnuxbQ44umHEGNWM7bNBnnnmmHAPq9hqUoUOHynNdfjAMAD1C3V5vFewAMOOSTgzw3MBYdX8dYzV3MRnbSqYEOJq8MIPRPvvs4/o5/UppaancyAFNXpigP3pyBnvBhPKvvPJKXOeQfvvtN98ZbVAw3lTnemSA5wbGav3CWM1tjc0vThmmpqZGPPDAA2LVqlXqnvi9/fbb4uGHHxZmwIp3331XPP3002L9+vXqUafmzZuLCy+8UBx11FHC3PjVvd522WUXMXv2bNGmTRt1T30ffPCBMHcq8v2Jch1jlYLCZJxhfv31V/Hss88Kswas7nFq1KiR2H333cWuu+6q7nHC6++9917x6quvikcffVR8/PHH6hGnJk2aiOOOO06MHDlS7LHHHure2Hr37i0mT54sdw5uzAqefP/33ntP/k2UqxirFCjzR8gb2dD0ZdaWZW9Jt8+Hgs4fmP/3T3/6k2cnD1zvdN9995XjGt0eR8H0eej96TfEwsv3339vDBs2TDYluS0b6/iUU06R88KmG5u+cgNjNVIYq/mBydhWdAc4xg1iCj23z2YVs3YsZ/F54YUXfOej9Stmbd2YOHGiHBeZDAQR5nbFBANuy0dp27at7PWZ6HVsG4oBnhsYq6HCWM0fbKbOEGatV0ybNk0sWrRI3VNf9+7dZbNT+/btxcCBA8WZZ54pm8ESYW7k4qCDDhIXX3xxQk1edmg2O+yww8T555/veU4K575wDuydd95hExjlFMYqpYRMyXkik2vbmMoOk8q7fS4UDHfA2ER7U9UXX3xhnHDCCZ5NYG4Fs/Og92cyTV7RvvnmGzlTEGqxbu+F+XjPPvvsmEMxgsTadm5grDJWeWRMaYeemDfffLPYsGGDuqe+8847T5x++umyU4ilb9++YtSoUaJr167qntguueQSMXjwYMdykoXaP2rcffr0Ufc4bd++XZg7E1FeXi47qxBlO8YqpYxKynkhE2vbqB2ik0fz5s1dPxMKrmf69ddfq1c4YTzhpZde6vt6q2Be2qAniccEA//3f/8nO6u4vScKLiH34YcfBlLDj4W17dzAWGWs5lusMhnbSroDHBv83LlzjW7durl+HhTM6vPYY4/5Xgj722+/9e2ggYKOIAiyVECPTXRm8WoCQ8Hl29IRXAzw3MBYZazmW6yymVqjpUuXir///e+itrZW3ePUrFkzYQaGHGOIv72YOy7ZzOQF4xyvuuoq0b9/f3VPsDp27CiX36lTJ3VPfeggMm/ePHYQoazEWKVUYzLWZOPGjeLxxx+XM++4bfQ4T3TggQfK809+gfPDDz/Inp1eMwBhOYMGDZLnqzArT6qUlJTIc1LovekGs/zccMMN4quvvlL3EGUHxiqlA5OxBjt27BALFy6Us/ds2bJF3evUoUMH8Ze//EUccsghnh04tm3bJp555hnx1ltveda2CwsLxWWXXSY6d+6s7kmNxo0biyuuuEIcc8wx6p76sBO65pprfDu/EGUSxipjNV2YjDVYuXKleOSRR8SyZcvUPU6Yvg69KNEjs0WLFupeJ9TQP/roI/Hkk0+KtWvXqnudMDbx7LPPFkcffbRo2rSpujd12rVrJ26//XZRUFCg7qkPUwc+9NBDcqwmUaZjrDJW04XJOM1++eUX8dRTT8kasleTV8+ePeWwBr9AqaurE4899pj47LPPXJeD2i9qvmeddZbYc8891b2phwkGJk6c6HneDE1gDz74oO+ECUSZgLHKWE0nJuM0++STT8R9993nOZYPs/Rgxh0EipfffvtNvPbaa+L555+Xf7vp0aOHPPeEyeLTCTuWM844Q5xyyinqnvrQBIarxeAcGlGmYqwyVtPKrKnlDd3DJTDO8PDDD3d9b6sMGTLEMINfvcJdVVWVUVxc7Pp6FAyxuPzyy41t27apV6SXWaM2Kisrje7du7t+PhTMLnTjjTfGdW3WRHC4RG5grKYHYzVzMBnbSioDHBvy5MmTXd/XKq1atTJqamrUK9xt2rTJMGvjrq9HadSokWHW1I3a2lr1Cj0w6XxZWZm8Ko3b50TZf//9jddffz3QCQYY4LmBsZo+jNXMwGRsK6kKcGzAuNxas2bNXN8XBbPyzJo1S73C2zPPPOO7HFyK7fnnn1fP1mvp0qXG8OHDPdc5Ag7z4Qa5M2KA5wbGanoxVvVjMraVVAX4ypUrjSOOOML1PVGsDR0bpx9M9t6zZ0/XZaBgOePGjQu8OSlZ2LHNmzfP6Nu3r+cE+Zhw/5577gns8m0M8NzAWE0vxqp+TMa2kooA37Jli7weaYsWLVzfE6V///7G4sWL1Svcbdy40TjzzDNdX2+VAQMGyOnuMgm+/5QpU4w2bdq4fmaUAw880Fi0aFHMHVw8GOC5gbGafoxVvZiMbSXoAEdt89lnn/WdzxYX9n7kkUd8O3BgOdOnT/c9p9O+fXt5EfFMhKOEk046yXPdI/AwHy4u2N5QDPDcwFjVg7GqD4c2pRCmk5s9e7YcZ+gG09ENHz5cDBkyRM5J6+X9998XDzzwgOfQCCxn7NixvjPq6ISZhS6//HJ5oXU35g5MvPzyy2Lu3LmcYIC0YKyGMFb1YTJOkc2bN8sJA9555x1h1gDVvU6HHnqonEbPa8OHdevWiXvvvVdOVO8Fc82ee+65KZ3PtiEwOcKxxx4rLrroIs/pAjHVIGYE8vueRKnAWI1grGqkjpDzQrqavtBUZdYefcfuockLnSH8LreG5dx1112y16XbMlA6d+5svPLKKxnTEcQPzkmZOzXX72GVQYMGNeh8FJu+cgNjVS/GavoxGdtKUAG+bNkyY+jQoa7vwRK7YMwjdm7JYIDnBsZqdhTGanDYTB2wrVu3ivnz54sFCxaoeyhRZoCLxYsXq1tEqcFYbTjGanCYjAO2fv16eXHunTt3qnsoUbhsGybWJ0olxmrDMVaDw2QcMPSi9LrcGsVnx44dYsmSJeoWUWowVhuOsRocJuOA4XJkqb44eK5r2rSp6NKli7pFlBqM1YZjrAaHyThguB4pLhLesmVLdQ8lCjtIDP8gSiXGasMxVoPDZByw3XbbTZx33nnimmuuEb169ZI1R4oPdoqDBg0SM2bMEIcffri6lyg1GKvJY6wGrxG6VKu/cx4G5Xfs2NFzYD/OfwQRkFil6KmJwfFYZh6t4gZp3LixaN68uWjdunXSvwM643i9FsvHRdLbtWun7qFMxVjNbIzV4DEZ2wQV4KQPAzw3MFZzH2PVic3UREREmjEZExERacZkTEREpBmTMRERkWZMxkRERJoxGRMREWnGZExERKQZkzEREZFmTMZERESaMRkTERFpxmRMRESkGZMxERGRZkzGREREmjEZExERacZkTEREpBmTMRERkWZMxkRERJoxGRMREWnGZExERKQZkzEREZFmTMZERESaMRkTERFpxmRMRESkGZMxERGRZkzGREREmjEZExERacZkTEREpBmTMRERkWZMxkRERJoxGRMREWnGZExERKQZkzEREZFmTMZERESaMRkTERFpxmRMRESkGZMxERGRZkzGREREmjEZExERacZkTEREpBmTMRERkWZMxkRERJoxGRMREWnGZExERKQZkzEREZFmTMZERESaMRkTERFpxmRMRESkGZMxERGRZkzGREREmjEZExERacZkTEREpBmTMRERkWZMxkRERJoxGRMREWnGZExERKQZkzEREZFmTMZERESaMRkTERFp1sgwqb9z3rp160THjh3Ff//7X3WP01tvvSWaNGmiblE22rlzpzjuuOPULafGjRuLH374QbRr107dQ5mKsZr7GKtOTMY2zZo1E40aNVK3KFtt375d/eXEZJw9GKv5gbEawWRMeYPJOHswVvNbPsYqzxkTERFpxmRMRESkGZMxERGRZkzGREREmuVdB65OnTqJHTt2qHucOnfuLDsOUPb6/fffxXfffaduOWEozJo1a9iBKwswVnMfY9Up75Jxjx49xJYtW9Q9TkuXLhXdunVTtygbffvtt6JPnz7qltNuu+0mVq5cKdq2bavuoUzFWM19jNUoSMb5YsOGDUavXr1Q+XAtN998s7F9+3b1bMo2+O1uuukm198WZd9995XbAGU+xmpuY6zWl1ftPE2bNhUHHHCAulXf/fffLx577DGxevVqOTsMZQf8VvjNHn30UfHAAw+oe+vr37+/3AYo8zFWcxNj1VteNVPj/NPs2bPFJZdcghYBdW8EZvTBeapDDjlE7L333pxuL0sgwH/88Ufx8ccfy/NMXr8tgn/06NFy9ibKbIzV3MRY9ZZXyRhftaqqSpxzzjniiy++UPdSPth///3FE088IYqLizmNYhZgrOavfI3VvGqmxg/bs2dPWePaZZdd1L2U6/BbX3DBBfK3ZyLODozV/JTPsZp3YwNatmwphg8fLkaMGKHuoVyH3/u0006Tvz1lD8Zq/snnWG1yvUn9nTdat24tevfuLVatWiW717MDSG5CLbukpERMmTJF9O3bV91L2YSxmh8Yq3majKFDhw7i4IMPFj///LO8Ogj+pdyAySDQuQc17BtvvFGee6LsxVjNXYzViLzqwOUGkwq89NJLsmAiAfTw27x5s+zNmeerJmvg3BJ6XbZq1Upedq9Xr15i2LBh4tRTT5VHVpQbGKvZj7HqLe+TsWXDhg3iP//5j1i2bJlYu3at2Lp1q3qEskGLFi1E+/btZXBjuMuee+6pHqFcw1jNboxVd0zGREREmnGmdSIiIs2YjImIiDRjMiYiItKMyZiIiEgzJmMiIiLNmIyJiIg0YzImIiLSjMmYiIhIMyZjIiIizZiMiYiINGMyJiIi0ozJmIiISDMmYyIiIs2YjImIiDRjMiYiItKMyZiIiEgzJmMiIiLNmIyJiIg0YzImIiLSjMmYiIhIMyZjIiIizZiMiYiINGMyJiIi0ozJmIiISLO8ScZ1s0eKSQvVDReV1xb7Pp64SjGpuFgUmyXY5UZZOEmMnF2nbkTxeywGrK9kX2uH5WAdyHJtpbo3+1nfK6W/bS6LsW0Gtf3ZhbfFEXNEsEu2M+Pec/l+j8VQO0eMDOJzm+s9HI8pXQ/+IvuFkWJOrbozJuxTJ5n/99KA9ZsBMjcZ2zeaqJLMDnD50mr1l7uevUtFUaG64QefK0ZSCW1o5aK0qkpUmaW0oti5Y4ljGfGqW1Gj/qrP77H0qBT3TisUM9V6qCopT/r3S0YqduiA5ZYsHRf6bX12DTkFySAqDq2SzDqOtW0W9CgUhT0K1C0/sXbQgOcUi/Hi7tB2eKcQ4x2viWcZcaqtEZ7fzO+xtKgTc2bUiIkLVDzK9ZDc75csKwmHf4uqu4WYENC6hyXVYrn6M9tkbjIeNFX9WFWi4soiUXRlRfj21EHqOQEqGD1VjOqqbjQQEn/pjKlioLo98LYqMXd0PDuWHIffdEapKK/I7gQmf9+S0K87cJD1K+e4rqPEXBV/+A3F0JnheEzJtm1uK4HFOZJg34nibutzyu8Sic+8hfWwYKIQ5a+n52jSPAgpKS8VFY5tpkCMeo6/BeRcMzWamyO19ugmELNmOMJ6zFkbczRT4yhAHbmGlhd6rqzVjS0XYv6Y0DJ8jm5rVrhv3r7LcBx91K8tOr6bx3vL5Uc9Fnld1PqI8X4RqvnHaq2QTUG2demzHqLhiKiod8/QjejWD3sTU/SRmP097K9rQLOUfX3ajw6s2nu4hN879J3HzDf3X2PxWCJNbPkpel1Gt4p4bZt4XeQ3iTQ/hpanniu3kTGi3PxvjFyGzzbsdcTku4zQEbXb5wPHd/PaDuXyoz6Xbft1HpX6v59d5bV43Hp+6LmRz+MXy1FqqkV1r0IzJYL9/et/Bsf+x/5YXPsRHJWXi9Kxo9R7efOKSzee+zbw/Fxqe7I/nsA+LGWMLLB61ghjxKzV6paPt682+l2zSN2A1cbqlaG/Fl3Tz+jXb4QxW92Ofi4ev/ptdWPlbGPEcPM9+9nuM5e16G3zM9hf9/Yiw/5uEYuMq83X9hs+23yVnc8y8J79rrYtD8uI3Mbnc6yDleZ3M/+xrxv8bf9O8rb9O8jvpT5TjPdzrnP1fdSyQ8u11uVqY7a5rsLr1UG9zlbs32G1+R3sIr+ByzLV93V8B6j3m0c4v4NT9GP239/5uWyf5e3Z8l/755S/Z77xWecO0b+VyVq3vtumqf72Z94eHrX9mLFj/gK27daMJWt5Ueq9n+K9jNB7RrZB5zYpl2dfB27bZ3SMyduROHIu0//9otcPtsF+1rLVcq11E71tR2CZznh0/Q4Wx34q+je39q32dWeK+pwRzu9n/R6yRH0vx29cbzuIvJfzN7C+W+R39P5ceMz+vqHXRm8b6ZZ7HbiW1dhqqAWiwNb0XHTl3ZGm6MIiUeR4bpQlQpQusDeJF4iBg6LqdIMGejSvDBRT0YSnzslEamXey6h70zxavvJy2/IGitKh5WK6rBlWivL5pWKcvTmwq/nd1J+AGqI8j3lb1CcaOjPyHboWikJ1hOD/fm5KxUy1bJzPE0PHqXVZIAp7mbVrz5Nh5utUcyZON1RPKxHW0VGB+R3sevYusrUoRC1TfV/5uUsHR777oFJROr/cozbupU68jsUcH3n/gSWR5nPn57J9v0Gjok5luPye5BR1ROpYtx7bprtqUTjW2SReYMaOc+2bseTRtF0weq7cBtF/w37E5bmMheaxcngbhwIxuFSIsvuxjYS2n4mX2mItKh7l0e+QajGuXnN4JI6wzPC25ft+7sKnwrDuzOVa+wfEZ/VSrzVZFDlnjNMN88dEjj6jv0P0PtJt3yo/d2nkO3YdbH6ScvG6z1G9dLx1zrhKzOxVJu6V+4T6+7mC483POO1el/iO/g3Q3D3TfG8l5ucyf4fnrKN0rGv7vkePLE3G0c0pKtnhnOTYalGi7o9uEouvQ4jSt1QMdux4k6DOs1VcWSPGxGgGwXnI6M+H5CTJc15FQjXu1oMEN713Rf1EbAo3CUfxfb8UCe0QZwoxVv1ejmYkszIxzepkh8CqEEUz1GO2JkB8bnxf6zXFsokxUctFtbnjLxtiLcMsOHVgiWo+R7M0+XM2YarYk+cki8R0dV90k6PXtunOrHR5JNpEoP8GtsHCaePrN2vaOE6nKLISKmH7MROg1/5hSZkomVEkKtzOS3vEsf/7pYjsl1MhSsutdWE/jWeWIWVmFUjx2LfKjnjWKTdZSkSZeSBTX09R1Ff9aYquiEtu+zlZ0XDj/xvE/7kyR5YmY3XkGS62jV5uYLgvtDOPTsg6oHbnexSu+NbMfI4a0Llt3NKSmOdXoumrCZpBV2sG/oRy2fpg/Y44co5AQlaPYSdgS8ilMyKvCZVkOoBEjtjDRVZmzIreWOF4bObQ0CvIWyjJRUrkiDfS8SuZbTQ10Ark15oT4n10CdiG1Z/R+k4UFVHbbDz83y+VQuuibvZ4UV4a6ShbtWCieRxt47FvtXeuDZW5US1IEDrSL38zxhrxbR2xQ3L3+Q1M8X2uzJF7zdRhmdH0IKGThPrTC5pJqx29Gm1NqWhi6Vsuyn0qFtgZJrKz832/VELzkWurA4ZBeawlNEWrIJXNyTMS28nVF6tJ3sY8ep/OI+NAyG1OW8KxqxM1y9SfHmQFOur0R2WFWXmUvehDydw3sVhHknEmZP/3S6Ha10X5EvdWh8r7bUfGDpF9q3czcn0Fo8eJQttpqnrc9nPRzc1hLskdz1V/JvK5MkVuJeOo5sWSaYXO86xBkOcoVfOHR6BF9yAtHlsjJt5p60XotgwzeCtKy8PNQGhWqR5r1eRC50OE7MGrist7Wwk5rp6Bvu8XJKuXqio46pTnaszvNLbQ1lRcbtZkrXp4VHNZ8RhRY53frve5zeLzfZ1N2iihXpcDb0PznPOx0E5ioLgcpxWs+yeYFRQeGScn6jSEjAP7edZAhCpWod/LpUetFH1aq0SU9bKdr3ZbBo7oZwjHtotTQdZr6m8/Lr2IrYTs2cPYJsb7BSfq9MwQtE6FWpasZGk9Vt7bdmTstW91+dyePcvNd5mqjqrtyxozv0jN8eCyn0Nzv8vpNygYfbfzN6hAe5eS0OfKDI3Qi0v9TURERBrkcDM1ERFRdmAyJiIi0ozJmIiISDMmYyIiIs2YjImIiDRjMiYiItKMyTgr2cZNZsLVRoiogRDTtvHIGKOd4eNiKVhMxlnFSsLlotSa4q2kPEOmGCSi0IQ/0ZN8qElsWHEmH0zGWQMBPUYIOS+zcy7ulFzcnYgShouhzIyaahVzPmPGL7cLuRBZmIyzxcJ7RZmYKC73mx4PTVuq9h26ik6khu53wW6vx0IXMLdPTRnHtH5EeW7gbfarQmHO9cil/vziMBb317o0b7O5OysxGWcJeUmwXoVqfmvnXLuOideXTZfzAZeXRI6g0XQmL7GomrYxf7X1Gr/HQvPYjhfiztBj8VwKkogGiqkzCuW1iOtmTxc16jrq/rHmD4nY/tq7xXiVkJ1XL5LX+zZvhy+2UFMtHNf/pozFZJyNanuKy1VQ4jJnNfarGC0xY2+B7RJ25iPeF9L3eyykdEbk4hHxXgqSKO8NulxMXDZGlJSXirvlaaTYsebN76L79qsX4T0KxbixheHl4spPCV3HnbRhMs4SjguNd8U1jzzUuzyh34X0Y1xkn4iSFLrMYKQ1qwGxFuOi+9g3hC5Nab6HMJ+Hq8LJSjMuFel+eUTKPEzG2UJedtF5vdP4eV1IP9ZjRBScBsSa30X3rX0Drucrk39PMyWbz8e1ipGc1dMoszEZZw11nd2EO2P4XUg/gYvsE1EDNCDWYl50H8uuEeUVNaK0BPcUiMJe5uP383xxNmEyziIYNhG6WLmtqWtImagON4W5876Qvv9jRBSc5GMt9kX3e/YWony+UBfpN98L56Pnm8nZdo6aMlsjw6T+JiIiIg14ZExERKQZkzEREZFmTMZERESaMRkTERFpxmRMRESkGZMxERGRZkzGGoSvvuI1gYe88gqeE/9VkkLXUY1nmbgSk7qvQWxXc6p38QifC1kQZZNw3Hhvx1Y8x38Vpkh8xFpmYNdAXjgptLx68W+/KlviV5Ki4HCccTohsDFJh7ppKZ1hXdgBgVEiypbIuyOG+l0LFYE9RkTPchtZZiiwx8wP/R3mtUzrM/adKCqeG6UmE7E+F6bzmyoGIrDrzaurHjP/cn0/k/0zEWU61+3YHheucVAkJi6IXFwlGirNJdOi9gD2ZbruI7yWacWl83HrPULx5r5PKbqyQl4H3fXzmKzHKY2QjEmTt682+vXrZ/S7ZpG8uXrWCHl7xKzV8jYsusZ8vN8IY/ZKdUeU0OP9jKvfVncYi4yrsczhsw25lKj3AN9lrpxtjLC/XlptzB6O11xtLt36O9Znsj8e+zVEmS16G1ZxJmNCsWLHFmsOLrFlxXwofl3ixHeZ7nHlWKZL/Ns53z+k/j6F0oHN1DoVFpl1XpO6LOHypaihFtW7zBquKxy6RFo0XJUF/9qvzIJ5as1/lpSL12vNZ+A6yKbQnLUh/suMBfPeqj/jViBG3TnR/GbJvieRbtZ2Xy2qEVK4khJuhueHNsk5pM1/vS7oUmO+1vynyDZftLwsqflv6JKHuLKT+Y/9ymuxlhmLtY9JwMDbZpp7FOszUbowGesUFZw9eyNsVLArVjJ1ZwWv88os9uVYCd6as1ZSARq67FrirGQuLwcX74Ur1CXfkn1PIr2iKr7WJQwd1/dW8ejBimXH9YXty7ESvGOueasSYD6WTF+PcDIfI88Jx9d/o6cowmt47fK0YjLWplJMkuebIhcND9eSx4aCxut8jnaDpoqqqlDtWSwpC124IqiOJkQZqG72eHnetejKy21XSjL/wfYvK6TufTf0w0UmqkTFlaHjY+xbguvESUFiMtbCClx0vAh1epK6jhJzF6A5NxQ0JdOEmHilTHnO2nS0qGud1j8adh5th4/IezfkSqcDxVR5TdYKMVHWvKf7B7hV6yfKMuFK8dCZjk5NA2+rEjOthIx4HjoxFAtRLVXRalbYjjfdjoYdR6TWEbl5BO3RKSwe8opviNcZqlXrfr/Ks/8RPqUGk3G6yaESViJ26SGJhBy++PhcUbgUde2oZuYwVTt3NGE5gzfUpOzcAbg2l1msZjMH9+bwkAIxuDTSLO6l7s1yWQGwn7smynToUW0lYrfRB0jIoVg1y6VmJRpx4nFJU6vly3Gqxl4xtpqUHZVr/9hz67/hemrKMqg01KLl1wSNayWb/9jPbVPqMRmnU3jYAoYBeQ9/sKBGLodWDB3nGLZgHw8YPn87IXTu1mpOC3csUcFXPW186MjV/AzjZdO3vdOXnTpfhNq+anquvDbU/GYFp/wMVrN0eHleFQbbDq3vRHE5hzZRlrCGNmGYj/fQQkulmCRj26xkX6qea43ttWLFdv42dO7WOlVlddq0KrblYoxH7EWz+oeUDVFzEpjvKfcZ4U5gaIWLNEtby/OqMMjYjjp9RunBccZpFG7uimYbZ1hvbGNUjdxahn0cYL3lOsYIm+qNXfQat2hxOf9l/xwu4yt9Pw94jWsmykguMaCEx8vHiisrThzbfv3lRo+/j7UPiFbv+bKyb53+chtnbHvcbax09P6D0oLJmIiISDM2UxMREWnGZExERKQZkzEREZFmTMZERESaMRkTERFpxmRMRESkGZMxERGRZkzGREREmjEZExERacZkTEREpBmTMRERkWZMxkRERJoxGRMREWnGZExERKQZkzEREZFmTMZERESaMRkTERFpxmRMRESkGZMxERGRZkzGREREmjEZExERacZkTEREpBmTMRERkWZMxkRERJoxGRMREWnGZExERKQZkzEREZFmTMZERESaMRkTERFpxmRMRESkGZMxERGRZkzGREREmjUyTOpvCtBvv/0m1q5dK7777jtRV1cn/8Xt7du3q2fkp1122UW0b99edOrUKVw6duwoWrRooZ5BlF6MVXeM1fRiMm4grL6NGzeKVatWiW+//VasXLlSltWrV4v169eLDRs2hMvmzZvFf//7X/XK/NS0aVPRqlUr0aZNm3DZa6+9ROfOnUW3bt1E9+7dRdeuXeXf7dq1E40aNVKvJGoYxmpiGKvpxWScgJ07d8rAXbZsWbgsXbpU/PDDD+Lnn38Wv/76qyy//PKL2LZtmwx+ig1BvOuuu4qWLVuGy+677y723ntv0bNnT9G7d2/Rq1cvWXr06CF3EkR+GKupwVhNHSZjD1u2bJEBXFVVJb766ivx5Zdfyn9x/44dO2St2foXgU/Ba9y4sQzmZs2ayYK/EfwI+OLiYtGvXz9Z+vbtK2vtrJnnJ8aqfozVhsu7ZIyvi/L777+H//3+++9lIH/22Wfiiy++EJ9//rlYsWJF3p8zyhZNmjQR++yzj9h///3FgQceKP894IADZPMZHkPgo2CHwZ1A9mCs5h7GqrecTcYIXAQomqDQQQNl69atMnCrq6tlWbJkifwX54vwfModCGSc7+rTp48oKiqSNXL8i+az3XbbTTa12Qt2BKQHYzW/MVZDciIZI4hxHgjNUlb56aefZCeN5cuXi5qaGvkvghuBTvkLzWfodILzWyiFhYWy4JwXdgh77LFHuDRv3jzvauepxlileOVbrGZtMkZNGueJ0FSF3pHorIF/rbJu3TqtvSHRzIJaHTYQdBJxO1eF3ogDBgyQG1Yu2rRpk/jggw9kj9VoWD/o+IHND+tH59EOPsuee+4punTpIoMf/6IpDR1Q0IyGGjqGeVByGKuZj7GqX1YmY/SCfPXVV8Ujjzwi3n33Xbkh6fwaqMG1bdtWjsNDt39rPB7K4sWLxdy5c+WQimiDBw8Wd955p+zgkIuw850wYYJ444031D0R6MQxYsQI0b9/f9nDFecCUTC+E//++OOPaT8PWFJSIo477jhxyCGHyKDu0KGDbBbDzhk7AR4lJ46xmh0Yq/plXTLGuaT58+eLm266SfaYTHctDTVE1MTQ4QD/onaGfxHgGIOHgpobNmBsHC+//LL43//9X9kMFw2BPWPGDPHHP/5R3ZNbFi5cKMaOHSt7t0bD+rvnnnvEqaeeKpsjsQPE+E7srHFeEEdLmIABNXVrTGhtba1s4gwSfjt8xlGjRskJDig4jNXswVjVL6uSMYYnlJeXi0mTJolvvvkmpcGNTgLW2DnUvPbdd19ZsEHgHAWatayCLvyojblBb89zzjnHdSNv3bq1ePDBB8UZZ5yRc0dd2KyeeeYZ8de//lVOoBANwxwef/xx2aPSDX5bnF9EsxjOK+JfBPeaNWvkb49mT5xbxL+4D9tGom644QYxZcoUdYuCxFjNHozVzJBVyfi1114TF1xwgZyuLsiPjVoxOgbst99+8rwDNj707EMNGucfMG7O+hfNXInAxnniiSfKJrpoCOrrr79eXHHFFXKnERTUXl9//XVZk8dEB17n4/BdMA4QtU00w2E9BAXfe9q0aeLGG290/a2OPPJI2XyZ6PdGMxSCGc1i1r/oAPT111/Loy98X+xMEfjYKbg5+OCD5Y710EMPVfdQ0Bir8WGsMlbDzJWfFf79738bu+++O7aUhIoZROFi1qANswZtHH/88caECROMOXPmGJ988omxdetW9S6pYe6UDHPn4Pr5hg0bZqxYsUI9s+HMYDaef/55wzwCcH0/t4Ln4jV4bVBqamqMU0891fX9sC6wTlLJ3MkZZsAbTz31lHHVVVfJ3xy//WmnnWaYtXj1LEoFxmp8GKshjNWQjE/G+KHMWpnRqlUr143FKo0bNzbMmpth1pCNTp06GT179jQGDhxoXHzxxcY999xjmLVPo66uzvj999/VktPn4Ycf9vz8HTp0MCorKwP7XBs3bjSOOOII1/fyK2bt19i0aZNaSsPgu+A7tW/f3vW9sC4eeugh9ez00fHb5xPGamIYq97yMVYzOhn/+uuvxgsvvGDss88+rhuKVVCLPuaYY4w77rhD1ho//fRTuaFnyg+6ZMkSo6CgwPWzo9xyyy3GL7/8op7dMD/99JOx2267ub6PX8Fr8Nog/Pzzz8aNN97o+j4oWBfV1dXq2ZQLGKuJY6ySXcYmY2wkTz/9tNGnTx/ZbOW2oaA0bdrUGDJkiLFs2TL1ysyzc+dO48QTT3T9/CiHHHKIbCoKwvr1643u3bu7vo9f6dGjh3xtEJYvX24cdNBBru+DgnWBdUK5gbGaHMYq2bl3K9QMJ/MxzMCshcqT++bnVI84oZPG0KFDxe233y57UmYq9N4866yz1K36MM8uOrx4fc9E4Fqjf/7znxMa+I7nnn322YFcpxTfoaKiQo7Z9IJ14dWjlbILYzV5jFVyMH+QjILmLtSy999/f3luCR/RraBjwfDhw2WnjiA7M6TKjz/+aHTp0sX1u6AUFxcH0vSE5j7Udq+44gqjsLDQszMKCh7Dc/BcvCaIpsK1a9ca/fr1c30/FKyDoJrYSC/GasMwVskuo4Y2oes7xiZee+21spZtbnDqESd080ctG+POMBg/0SEMumCsHIZHuEHt8+qrrxa33Xabuid5WG8YjI/B9xjv57Ue8Z6YGAGD+jEBQhA1YIwrLSsr83zP6667znMd6IIJC+bNmyc++ugjORTnsMMOE5deeqkoKCiI6/F8xFhlrOqSs/EqU3KGQE9MdADxO++EDiA4j/HFF19kRS3bDjVRr16LKOiY8f7776tnZ5/33nvPt0MKvjvWQSb58MMP5dHBfffdJ/9+8cUX5d8nnHBC+L7ox//f//t/4cfzFWOVsapDLsdrxiRjjE2MZ0jE0UcfbXzzzTfqVdnFrIEaN910k+t3swo6iKB3abZBhxK/jiAoZi07kOa1oFiBi3+j4T4EsNfjq1evlo+7PZbrGKuhwlhNr1yPV+3JePv27UZFRUXMSQIQ3H/4wx8yuidmPFauXGkUFRW5fkeU5s2bG2PHjg1s+EQ6oDctPjM+u9t3QsF3xnfPJKgxo3hBrdoveFHTzvTadpAYq87CWE2vXI9XrckYHUCwAjGWzW2jsAqau4466qisD27AjDIYRI9JD9y+KwqaiO666y5jy5Yt6lWZC59x2rRpcsYct++Cgu/64IMPZtxsOqgpY/tLFgJ/1KhR6lZuY6y6f1/Gavrkerxq67NuBre8ogs6EeAkuxd0+MBcrP/4xz/k5O/ZDnPK4vJfJ598smdnlrVr1wqzBieef/55OW9spsJnw2e8//775WXU3OA74rueeOKJgc6nGwRcQq8hnTrQUSQeZpypv7ITY5WxmgnSEa86Y1VLMrbGJuLSariqh9cKaKbGJt5xxx0ZPTYxUdigLrzwQjnRvZfly5eLv/3tb+KFF17IyCC3ghu/DT6rF3xHfNeGBFGq4DOh12WyPv7447i+F3qrYpvPRoxVxmqmSEe8ao1VM7jSKtGxiZguL9t6YsYD525mzJjh2+yHnqqY1ejuu+82Nm/erF6pHz4L5hDu3bu36+e2Cr7b9OnT5XfNRGi2QtMXOnckCq/x6iziBts8tv1swlgNYaxmhnTFq65YTWsyxkTyZg3N6Nu3r29wN23aVF6xA5ME7NixQ70692ByAQzi9zsnhdKxY0dj/PjxGdFzc8OGDfKzYIJ/t89qFXwnPC8Th0fYoUNHMueR8Bq/ziR2uNIQtnls+4iBbMBYdWKsZoZUx6vOWE1bMkY3efTExFysscYmYv7axYsX52QtO9p3331njBgxwnf2HRRcOg1XeHn33XfVK9MP4yoxXCXWJd+sI6W6ujr1ysyFGnMiiRXw/ER2COiZim2+W7duxiuvvJJxQ0aiMVbdMVb1S3W86ozVtCVjjE1s06aN6wZhFdTAcUWXpUuXZvwOK0jff/+9DBy3dWIv2Ehat25tTJkyRdbU0wXjEvGeeG+/nbNVcIk3fKdsYQV4PAGbSGBb3njjjfC6QQy888476pHMxFj1xljVL5XxqjNWU56M0XSFLxjPJAG5MDYxWWvWrDEGDBggm/3c1o+9YF1hftxZs2bJGi2GIQS5Q8SysEwsG++Bcy1+TZVWwWc//PDDsy64wQpwr3NSiewAok2dOtWxnjBOF9fszbRmXcZqfBir+qUqXnXGakqTMdrf582bF9fYRNTQ8jW4LahBn3rqqTEnVbAK1tvBBx8sxw5+8MEHxqpVqxrU8QCTF2AZH330kVFWViaXHc8OBwVT651yyinGDz/8oJaWfRDAOCeFALd39MDf2Mkl0jRmV1JSUm99de7cWcYGYiQTMFYTw1jVLxXxqjNWU3ahCHNDkxPJT5482ffSauYGJI4//ng5Vi+XhkQkC+MWcTm6uXPnCrPWqu6NrUOHDuKYY44R5hGLXI+4veeeewrzKEeYwScvvYZ1Df/973/lRP/owr9582axYcMGYQam/J3MHYV4//33hbmhy+fGo1OnTmLEiBHC3Pjl+2a7mTNnyiEU5s42fPvmm28Ww4YNk7cTgd/TbZ00atRIjsXFb11aWipatmypHkk/xmpyGKuZIah41R2rKUnGCG7rGqdfffWV51VBsMFhkDlWnFmTUffSTz/9JJ588kkxa9Ys8eWXX8qAjBc2nNatW4sePXrIMXXt27eXgY7rn1oD+X/77Tf5GyGwzRq+HAy/YsUKsWnTJs8dsRv8fvjdRo8eLc455xzRrl079Uj2wzq54IIL5N/YPnHll2TgqjhXXXWVuuXUuHFjsd9++8kdI8boYkecbozVhmGsZoYg4lV7rCIZB8nccIxnnnnGOOCAA3zPXdjHJu7cuVO9mixbtmyRPVrPOOOMmMMpdBR8ppEjR8qr9+Cz5iI0gzXUX//6V9/et4gRjOPVMbaRsRoMxmpmaGi86o7VQJMxOhJgfJZZg4gZ3KeffnrOj01sKAwXqampkedFMHl7PL0jU13wGfBZMAkCPhs+I7lD4kICQyKLFeSIGcQOYigdGKvBYqxmt0yI1cCSMb7MggULjMLCQt8NsWnTpkZpaanx+eefc+OIE2phGEKCy5q1bdvWdb2mo+C9J0+ebHz99ddpP4rLVtjGMQ735JNP9u1gg5jp0aOHUV5envKjT8Zq6jBWs5fuWA0sGVdWVhrt2rXzDW7UKgYNGmQsWbIkr8YmBgVHJhjCgF6C6OHnto5TUfBekyZNkr03cRk9Sgy2deygse37HYWi7LXXXsaiRYvUK1ODsZp6jNXspDNWG5yMUZt46623Yp4rwRfDrDT5PiQiKJi67uGHH5YbDWrBLVq0iHtog1/BMrAsLBPLxnvgvajhcKF9jM+NFeSIJcRU0EejjFU9GKvZR0esNqg39bZt28Qbb7whLrroIrFmzRp1b31NmjQRAwYMEHPmzBG9evVS91IQdu7cKcyjF7Fw4ULxr3/9S/79888/yx6Y+H0wLMKspctentZPbR4Ryd6VzZo1k8MomjdvLrvr77777qJv377i6KOPFmZwy7/x21FwcNWc888/Xw5JwW/npWPHjsLcuYo//elP8vdpKMaqfozV7JLuWE06GWMDeuWVV8Q111wjP7TXYrAhHXvssfI6mhybmHoYi/j111+Lb7/9Vnb3x9i5jRs3ynGKCHZAUKNrfps2beRwCgyr6N69u+jTp48c60ipVVNTIy699FJh1qg9h8JgJ4x4ue2228SQIUMaNLaRsZqZGKuZL62ximScKMz+giERsS6thmYUzPRSVVWlXklE8NVXXxnDhg2L2XMTMwk99dRTSV/ajrFK1DDpitUm15vMhcVt69at4p///Ke49dZbhRm4npMEoFnFDG5x3XXXieLiYll7IKKQtm3bykkYrNmU3OLIjE+xbt06efSEprDCwkIZV/FirBI1XDpiFRJKxpgNZsGCBeKGG26Qs814BTeauzBLCabXM2vkPJdBFAUJD7MgobkRzZN+QY5ZnjA7VpcuXWRzGOIrFsYqUTBSHath5gLigt5iGJtovkHM5i6M0/rss88C7w1KlGsQIxjbiCZixI5bTKEg5jAu2DzSjRlXjFWi4KUiVu3iTsYYb9ihQ4e4xiZWV1dzbCJRnBAriK9jjz1WXt3HLbZQEHuIQTzXD2OVKDWCjlW7uJMx5l11e1OrILg5NpEoefGObUQs+mGsEqVWULFqF/fQJnSp/+6779St+vr37y8vJcaxiUTJw9CjkSNHik8//VTdUx8ug+cXi4xVotQLIlbtGqt/Y9p7773VX+5OPPFEeSkwIkpet27dZCz5iXX5O8YqUeoFEat2cSfjc88917dn2D/+8Q9RWVmpbhFRMjAzE2a/8oLezohFP4xVotQLIlbt4k7Gf/7zn8Vxxx2nbtWHLt+33367nLGEiBKHmZgwiw/GM3rB1Idnn322uuWOsUqUWkHFql3c44wxFyrORaE2sGHDBnVvBE4944Ph36OOOkpO40ZE8cEUiGVlZeLFF1+UY4TdoFls6tSp8pwvxj56YawSpU6QsWoX95Fx48aNxRFHHCEuu+wy0aJFC3WvE+bAfe655+SHJKL4zZs3T3aqQqC7wQT0Y8eOFUceeaSMRT+MVaLUCTJW7eJ/pgkTlg8fPlwWN6hpr1q1SsyaNcu3hxkRRXz++ecyZmpra2UMuTnttNPEiBEjZAzGg7FKFLxUxKoloWQMOPy+4IILPA+/MU0YOoc8+uijYv369epeInKDZmTEyqJFizynrMQ0lRdeeKG8Wk8iGKtEwUllrELCyRhwDc1Ro0bJCbTd4NqPTzzxhCgvLw9fCoyInBAbmD/68ccf97w8G2IMsXbMMceoexLDWCVquHTEalLJGFejQI9NXLvR62LKP/74o7jvvvvE4sWLPWsRRPkKMfHFF1+IGTNmyN7NbnbddVdx0kknyVhLtpMVY5WoYdIVq0klY+jQoYPsIILDcq+T1B9++KG8UDkumE1EEYgJxMYHH3yg7nFCszIuZ4gYwyw+DcFYJUpeumI14esZ2+GN0VvzrbfeEtu2bVP3Oi1dulTOCDRgwAB1DwG6xGPdvPnmm7L5AwV/Y6e4cuVKWRtr3bp1wtfEpOzwyCOPiLvvvtuzaRi//ZQpU+QRbbxDI/wwVpPHWM1vaYtVo4F+/vlnY/z48eGJsd1Kly5djHfffVe9Ir/t3LnTqKqqMiZNmmQcc8wxRrdu3Yzdd99dTjhu/pBGy5Yt5frCJOSXX365XG/mzkC9mnKBWcM29tlnH9dYscrYsWONLVu2qFcEg7GaGMYqpTNWG5yM4YcffjAOP/xw1w9qFTz+008/qVfkJ7MGbTz55JPGgQceKIPabT3Zi3kkY+y3337GfffdJ3eklP3WrVsnd95uv7dVDj74YGPNmjXqFcFirMaHsUrpjtVAkjH85z//MVq1auX6gVFwMebLLrssr6+dikBt3bq173Vmowueu8ceexg33ngjLwCf5bDt4wjK78Lk+K0//vhj9YrUYKzGxljNbzpiNbBkvGPHDuOee+7xvb7j3nvvbTz77LNagxy11hdffFFeHLpTp05GSUmJ8e9//zulwYPvO3fu3IQCO7rgtQ8//HBe7yDjhd8Svyl+244dO8qL6OM313nEYm0DiAG33xcFsXPXXXfJWEolxqo3xmp6MVYjAkvGgMP1kSNHGk2aNHH9AthIcVHzL7/8Ur0iffCjL1++3Lj00kuNXXbZxfG59txzT+ONN95QzwxedXW10b17d8d7JlNwjmrx4sVqqeTlzTfflL+pfd3hN8dvj20glTtzL1999ZVs8vLaySNmhg8fbnz//ffqFanFWHXHWE0vxmpEoMkYHR7+9a9/GQcccIDrl0DBuZVLLrnEWLt2rXpV6m3cuNEoLy83DjvsMNfPhDJ48GD17GChQwdO8O+6666u75towUawbds2tXRyc8IJJ7iuOxRsA//85z/lNpEuP/74o9y5YAft9plQiouLjXfeeUfGUDowVutjrKYfYzUi0GQMaF7A+ZYOHTq4fhEU9EB88MEHjV9//VW9KjXQ3LBkyRLjhhtu8G1yQEH7fyqaldAb02+Hhx8dRyB/+ctfjFGjRslmGr8OI+3atTM++ugjtXSKht8Qv6XburPKXnvtZVx//fWyBpzq5Idt/KGHHpLbvNtnQUGsTJ8+Pe1Nc4xVJ8ZqejFWnQJPxrBq1Srj4osvljVrty+Ego0a5wpStYKxYl955RVZO91tt91cP0N0ScW5ur///e/yXIjb+yG4R48ebbz33nvy827fvt34/PPPjQkTJnhupHjN7bffrpZO0dCs5bbeogvW47Bhw+RR2C+//KJeHSxs2xju4tcjs3nz5saFF15o1NbWqlelF2M1grGaXoxVp5QkY9R4PvzwQ+PII4/0bHfHeQHULuvq6tSrgoPhG3feeaes5TZr1sz1/d1KKgIcYxSxMbm93x//+EdZc7bX8vH3N998Y5x22mmur0HvvrPPPls9m6LFG+Ao2DbQ5HTHHXekZCgRtm3swKPPe1rFOi/7/vvvp+RILx6M1QjGanoxVp1SkowBNcc5c+bIXpBuXw4FwytmzJhhbN26Vb2qYbCS0AHjvPPOk01dXjsXr5KKAEdNyquTzBVXXOHa3IHzTHfffbfra/Cd0LuU3CUS4ChYn2hOPPfcc2VTWFCBht9w5syZvkOIcBT2yCOPaJ8ogrEawlhNL8aqU9JzU8eCqeHOPPNMceqpp3pOnL1582Zx6623iq+//lrd0zCvvvqqvI7k008/LSe/N7+fekSfnTt3ek6+j4n73daNuUMQZg1d3arP3IjVX9RQ2EZ++ukn8eyzz8rrkGKqwyAsWbJE3HLLLXIbd4PffejQoQ2aWD4ojNUQxmpmy/lYNb9gSmEmn379+jlqGdEF7fSoJSULNZtrr73Wd9xkPCUVte1x48Z5Nn1gaMmKFSvUMyPQow+vc3sNau6nnHKKeiZFS7S2HV1Q+77yyivlNpUsnH/C9Iluy7dK37595e+cSRirjNV0Yqw6pTwZw6JFi2JOKTd58mTZXJYINJlhBpTjjz8+rmauWM9JRYDjfFjbtm1d369NmzZy4Dh+aLw3Ngx04zePFmRzjNtr0IkA57bIXawAj3c7QU9ZnB9KtFkW2/CUKVNcl2sVxEIqx8o2BGOVsZoujFWntCRjwBRxfuP3UCPFmLJ4zgMgEHAS/4EHHjB69eoV14+GXpqYc9evRp6KAK+srDR69+7t+n4oGPCO3qyY8eXll1+WNT2v4EbBTgG9CsmdX4BjO0EnjHh67OK5++67r9zGMLgf21ws2Hbx2/ht53jsuuuuU6/ITIxV9/dkrAaLseqUtmSMq1qcfvrpvsF4yCGHxJzxByfQUcMeM2aMbyDYS2FhoXHVVVcZn332me9co6kIcHzvESNG+L5vIgXNhJs2bVJLp2h+AY6dO8aSXnPNNTJ43Z4TXXCkhIkv0OM4VucNbLuHHnqo63JQsO1jiEam/36MVcZqOjBWndKWjFETweWo/AbVo1nnf/7nfzzb59Gb8YknnpBNXX41GqugBo/n4jVowsA5sXQHOCxYsMBz/GIiBd8Z8wWTt1gBjm0LgYr1iNl/sM25PddesB2hKezRRx/1HOyP5V500UW+y8PQDJ3DmOLFWGWspgNj1SltyRgQZBhY71dLRiBgVqDoc1Jo6kKNGTVnt9dFFwyXwNR2uEKNtSxdAY7vjXMTfkcasQpei++DCQfIWzwBDvitP/30U3lllvbt27s+P7pgzmI0Ta5evVouw4LtC9us304cMwlhJqtEz2vpwlhlrKYaY9UprckYEKjYUL0CDT8C5iR9++231SsM46233oo59ZxVEAhFRUVyWjO8l/38ga4AB7w3el0mE+R4Dabg++6779TSUgeTGGBHiiYaDIKfN2+eZw0zE8Ub4IBtA5NOzJo1S9aE4/ltcA5r4MCBxmuvvaaWYhgLFy70PceJXrW4JGG6LgIRFMYqYzWVGKtOaU/GOOzHTDYIWLeVgYLZVs4//3w5V21ZWZms5cSz8hG8aM7AOQO3Wo3OAAf0vkTnGL+pB6MLmlLGjx8vpy1MtZqaGtmNH58PGyWafDp37iwHu2fLEV0iAW7B0IhPPvnEOOmkk3y3D6tgW+zWrZsxdepUuY1idiq/2aMwdALNvpnePB2NscpYTSXGqlPakzHgi2LGH2w8bisEBRsZmhLiOU+AgpWOk/1+G6LuAAe8B674cfTRR3vWzlDwffr37288//zzaWnuQmDgajhunwU7WDQhZkMySSbALdh2EmmixLaJbdRvh41ZrVCbz7ZEbGGsMlZThbHqpCUZA5pT0BTkt3LiKagRooZYUVGhluwtEwLcgqBFk8nEiRON4447Tn4HDKtAzQxNg+h2v3nzZvXs1EJQ4GLzfr/FWWedJddfpmtIgFswrhBNYdi23JYTb8EOAD2J0Us3mzFWGaupwFh10paMAc0GaAJDM4vbCvIrqBGh4wfOzyxbtkwt0V8mBXgmwZVosINxWydWwW+EcXyZXuMOIsABFzZHkxYumRZv7dtesL5wvkrHxflTgbGaGRir9eVKrGpNxvDiiy/6Xj/SraDNH81CmDEn3h8MGOD14WoluLJMPMNP8DvhfE0mCyrAYd26dfLapQcddFDCNe+CggLZbJlLGKt6MVa95UKsak/G6GqOC4rHW6PBtUMxMP/VV19N+NqWDHAnNL/hijN+F5ePLieeeGJCQZJuQQY44NwUmsLQ9Od3VRd7wbaM81nRQ36yHWNVH8ZqbNkeq9qTMWCln3zyya4ry15wAh49HNFkFs+UZ9EY4BFowsI8xBiakkjTDo50br755qTWfzoEHeCAdYXm1VtuuUXWot2WbS/o6YlhGLmIsZp+jNX4ZXOsZkQyBlyfskePHq4rDAVTl2E+3A0bNqhXJI4BHoHhF5hBKZmODz179jRef/11taTMkooAt2C4C47yBgwY4Lp8lK5du8pp/HIZYzW9GKuJy8ZYzZhkjBrNc889J2c/sa8w1O7QY7G2tlb+eA3BAA/BWD104W/durXreohVsA5xdJSOiQ0SlcoABywfO0fMBhS9c8S2i6n7sC3nMsZq+jBWk5dtsZoxyRjQbo8ZfI488kjZ5o+rdrz00kuBjd1jgIdUV1cbffr0cV0HKBg2gVlq/KYzxM4BzZCZ1gSW6gC3YJvEjEe4GAC2VfyL81W5dp7YC2M1PRirDZctsZpRyTjVsjnA8dkwAcGxxx4rL+WGy9HddNNNsodlIrU7jIe88MILXb8/Cs5JIbiXLl1q3HHHHUbLli1dn4eCCwlgqrlMCvJ0BTilFmOVsZpvscpkbCuZGuAIYJz3iW6qQtMLpt+LtwMClvPkk0/6rgM036AWCQjy4cOHez4fAXPOOecYK1eulM/PBAzw3MBYZawyGeewbA1wDGpHc6BbT0pcVQfTFeLcUiwY1I7p8qKXYRUEAK50Yq894yLqmMzfqxcnLqCOGYEyZYJ6BnhuYKwyVpmMc1g2BjiaqhB0fk1QGPLw+eef+zaBrV+/Xo75dHu9VTALzdq1a9UrQhC41113nW8HEjSBoVkuE5rAGOC5gbHKWGUyzmHZFuAI2Kefftp3GAkKNlwMffCaeB+Bd9ddd/nuJDBJOjrkuFmxYoWcQMBrKkTUxDHQHrPg6MYAzw2MVcYqk3EOy7YAX7x4cdyXCsNsR48++qh6pVNlZaXRr18/z+YrBO6tt97quYOAN99803f2H1w7FNPR6cYAzw2MVcYqk3EOy6YA37RpkzF58mTfGnJ0wYwzqBnbYYM+88wz5RhQt9egDB06VJ7r8oNhAOgR6vZ6q2AHgBmXdGKA5wbGqvvrGKu5i8nYVjIlwNHkhRmM9tlnH9fP6VdKS0vlRg5o8sIE/dGTM9gLJpR/5ZVX4jqH9Ntvv/nOaIOC8aY61yMDPDcwVusXxmpua2x+ccowNTU14oEHHhCrVq1S98Tv7bffFg8//LAwA1a8++674umnnxbr169Xjzo1b95cXHjhheKoo44S5sav7vW2yy67iNmzZ4s2bdqoe+r74IMPhLlTke9PlOsYqxQUJuMM8+uvv4pnn31WmDVgdY9To0aNxO677y523XVXdY8TXn/vvfeKV199VTz66KPi448/Vo84NWnSRBx33HFi5MiRYo899lD3xta7d28xefJkuXNwY1bw5Pu/99578m+iXMVYpUCZP0LeyIamL7O2LHtLun0+FHT+wPy/f/rTnzw7eeB6p/vuu68c1+j2OAqmz0PvT78hFl6+//57Y9iwYbIpyW3ZWMennHKKnBc23dj0lRsYq5HCWM0PTMa2ojvAMW4QU+i5fTarmLVjOYvPCy+84DsfrV8xa+vGxIkT5bjIZCCIMLcrJhhwWz5K27ZtZa/PRK9j21AM8NzAWA0Vxmr+YDN1hjBrvWLatGli0aJF6p76unfvLpud2rdvLwYOHCjOPPNM2QyWCHMjFwcddJC4+OKLE2ryskOz2WGHHSbOP/98z3NSOPeFc2DvvPMOm8AopzBWKSVkSs4TmVzbxlR2mFTe7XOhYLgDxibam6q++OIL44QTTvBsAnMrmJ0HvT+TafKK9s0338iZglCLdXsvzMd79tlnxxyKESTWtnMDY5WxyiNjSjv0xLz55pvFhg0b1D31nXfeeeL000+XnUIsffv2FaNGjRJdu3ZV98R2ySWXiMGDBzuWkyzU/lHj7tOnj7rHafv27cLcmYjy8nLZWYUo2zFWKWVUUs4LmVjbRu0QnTyaN2/u+plQcD3Tr7/+Wr3CCeMJL730Ut/XWwXz0gY9STwmGPi///s/2VnF7T1RcAm5Dz/8MJAafiysbecGxipjNd9ilcnYVtId4Njg586da3Tr1s3186BgVp/HHnvM90LY3377rW8HDRR0BEGQpQJ6bKIzi1cTGAou35aO4GKA5wbGKmM132KVzdQaLV26VPz9738XtbW16h6nZs2aCTMw5BhD/O3F3HHJZiYvGOd41VVXif79+6t7gtWxY0e5/E6dOql76kMHkXnz5rGDCGUlxiqlGpOxJhs3bhSPP/64nHnHbaPHeaIDDzxQnn/yC5wffvhB9uz0mgEIyxk0aJA8X4VZeVKlpKREnpNC7003mOXnhhtuEF999ZW6hyg7MFYpHZiMNdixY4dYuHChnL1ny5Yt6l6nDh06iL/85S/ikEMO8ezAsW3bNvHMM8+It956y7O2XVhYKC677DLRuXNndU9qNG7cWFxxxRXimGOOUffUh53QNddc49v5hSiTMFYZq+nCZKzBypUrxSOPPCKWLVum7nHC9HXoRYkemS1atFD3OqGG/tFHH4knn3xSrF27Vt3rhLGJZ599tjj66KNF06ZN1b2p065dO3H77beLgoICdU99mDrwoYcekmM1iTIdY5Wxmi5Mxmn2yy+/iKeeekrWkL2avHr27CmHNfgFSl1dnXjsscfEZ5995roc1H5R8z3rrLPEnnvuqe5NPUwwMHHiRM/zZmgCe/DBB30nTCDKBIxVxmo6MRmn2SeffCLuu+8+z7F8mKUHM+4gULz89ttv4rXXXhPPP/+8/NtNjx495LknTBafTtixnHHGGeKUU05R99SHJjBcLQbn0IgyFWOVsZpWZk0tb+geLoFxhocffrjre1tlyJAhhhn86hXuqqqqjOLiYtfXo2CIxeWXX25s27ZNvSK9zBq1UVlZaXTv3t3186FgdqEbb7wxrmuzJoLDJXIDYzU9GKuZg8nYVlIZ4NiQJ0+e7Pq+VmnVqpVRU1OjXuFu06ZNhlkbd309SqNGjQyzpm7U1taqV+iBSefLysrkVWncPifK/vvvb7z++uuBTjDAAM8NjNX0YaxmBiZjW0lVgGMDxuXWmjVr5vq+KJiVZ9asWeoV3p555hnf5eBSbM8//7x6tl5Lly41hg8f7rnOEXCYDzfInREDPDcwVtOLsaofk7GtpCrAV65caRxxxBGu74libejYOP1gsveePXu6LgMFyxk3blzgzUnJwo5t3rx5Rt++fT0nyMeE+/fcc09gl29jgOcGxmp6MVb1YzK2lVQE+JYtW+T1SFu0aOH6nij9+/c3Fi9erF7hbuPGjcaZZ57p+nqrDBgwQE53l0nw/adMmWK0adPG9TOjHHjggcaiRYti7uDiwQDPDYzV9GOs6sVkbCtBBzhqm88++6zvfLa4sPcjjzzi24EDy5k+fbrvOZ327dvLi4hnIhwlnHTSSZ7rHoGH+XBxwfaGYoDnBsaqHoxVfTi0KYUwndzs2bPlOEM3mI5u+PDhYsiQIXJOWi/vv/++eOCBBzyHRmA5Y8eO9Z1RRyfMLHT55ZfLC627MXdg4uWXXxZz587lBAOkBWM1hLGqD5NximzevFlOGPDOO+8Iswao7nU69NBD5TR6Xhs+rFu3Ttx7771yonovmGv23HPPTel8tg2ByRGOPfZYcdFFF3lOF4ipBjEjkN/3JEoFxmoEY1UjdYScF9LV9IWmKrP26Dt2D01e6Azhd7k1LOeuu+6SvS7dloHSuXNn45VXXsmYjiB+cE7K3Km5fg+rDBo0qEHno9j0lRsYq3oxVtOPydhWggrwZcuWGUOHDnV9D5bYBWMesXNLBgM8NzBWs6MwVoPDZuqAbd26VcyfP18sWLBA3UOJMgNcLF68WN0iSg3GasMxVoPDZByw9evXy4tz79y5U91DicJl2zCxPlEqMVYbjrEaHCbjgKEXpdfl1ig+O3bsEEuWLFG3iFKDsdpwjNXgMBkHDJcjS/XFwXNd06ZNRZcuXdQtotRgrDYcYzU4TMYBw/VIcZHwli1bqnsoUdhBYvgHUSoxVhuOsRocJuOA7bbbbuK8884T11xzjejVq5esOVJ8sFMcNGiQmDFjhjj88MPVvUSpwVhNHmM1eI3QpVr9nfMwKL9jx46eA/tx/iOIgMQqRU9NDI7HMvNoFTdI48aNRfPmzUXr1q2T/h3QGcfrtVg+LpLerl07dQ9lKsZqZmOsBo/J2CaoACd9GOC5gbGa+xirTmymJiIi0ozJmIiISDMmYyIiIs2YjImIiDRjMiYiItKMyZiIiEgzJmMiIiLNmIyJiIg0YzImIiLSjMmYiIhIMyZjIiIizZiMiYiINGMyJiIi0ozJmIiISDMmYyIiIs2YjImIiDRjMiYiItKMyZiIiEgzJmMiIiLNmIyJiIg0YzImIiLSjMmYiIhIMyZjIiIizZiMiYiINGMyJiIi0ozJmIiISDMmYyIiIs2YjImIiDRjMiYiItKMyZiIiEgzJmMiIiLNmIyJiIg0YzImIiLSjMmYiIhIMyZjIiIizZiMiYiINGMyJiIi0ozJmIiISDMmYyIiIs2YjImIiDRjMiYiItKMyZiIiEgzJmMiIiLNmIyJiIg0YzImIiLSjMmYiIhIMyZjIiIizZiMiYiINGMyJiIi0ozJmIiISDMmYyIiIs2YjImIiDRjMiYiItKMyZiIiEgzJmMiIiLNmIyJiIg0YzImIiLSjMmYiIhIs0aGSf2d89atWyc6duwo/vvf/6p7nN566y3RpEkTdYuy0c6dO8Vxxx2nbjk1btxY/PDDD6Jdu3bqHspUjNXcx1h1YjK2adasmWjUqJG6Rdlq+/bt6i8nJuPswVjND4zVCCZjyhtMxtmDsZrf8jFWec6YiIhIMyZjIiIizZiMiYiINGMyJiIi0izvOnB16tRJ7NixQ93j1LlzZ9lxgLLX77//Lr777jt1ywlDYdasWcMOXFmAsZr7GKtOeZeMe/ToIbZs2aLucVq6dKno1q2bukXZ6NtvvxV9+vRRt5x22203sXLlStG2bVt1D2UqxmruY6xGQTLOFxs2bDB69eqFyodrufnmm43t27erZ1O2wW930003uf62KPvuu6/cBijzMVZzG2O1vrxq52natKk44IAD1K367r//fvHYY4+J1atXy9lhKDvgt8Jv9uijj4oHHnhA3Vtf//795TZAmY+xmpsYq97yqpka559mz54tLrnkErQIqHsjMKMPzlMdcsghYu+99+Z0e1kCAf7jjz+Kjz/+WJ5n8vptEfyjR4+WszdRZmOs5ibGqre8Ssb4qlVVVeKcc84RX3zxhbqX8sH+++8vnnjiCVFcXMxpFLMAYzV/5Wus5lUzNX7Ynj17yhrXLrvsou6lXIff+oILLpC/PRNxdmCs5qd8jtW8GxvQsmVLMXz4cDFixAh1D+U6/N6nnXaa/O0pezBW808+x2qT603q77zRunVr0bt3b7Fq1SrZvZ4dQHITatklJSViypQpom/fvupeyiaM1fzAWM3TZAwdOnQQBx98sPj555/l1UHwL+UGTAaBzj2oYd94443y3BNlL8Zq7mKsRuRVBy43mFTgpZdekgUTCaCH3+bNm2VvzjxfNVkD55bQ67JVq1bysnu9evUSw4YNE6eeeqo8sqLcwFjNfoxVb3mfjC0bNmwQ//nPf8SyZcvE2rVrxdatW9UjlA1atGgh2rdvL4Mbw1323HNP9QjlGsZqdmOsumMyJiIi0owzrRMREWnGZExERKQZkzEREZFmTMZERESaMRkTERFpxmRMRESkGZMxERGRZkzGREREmjEZExERacZkTEREpBmTMRERkWZMxkRERJoxGRMREWnGZExERKQZkzEREZFmTMZERESaMRkTERFpxmRMRESkGZMxERGRZkzGREREmjEZExERacZkTEREpBmTMRERkWZMxkRERJrleDKuE3NGTBKV6lZ9lWJSsd/jycAyi0WxWSYtVHelQN3skZ7L93sslsprg/jcWO+hdZDq9eBq4aTwexePmGN+GqeGf8dY2xU1iPn7jZwd/atFYPv2ezwZWKbX9hIcv+3G3G8k+961c8TIID53jLhJl/BvUTxSzKlVd+aBjEvG2FGGNwhHSWbnt1xUL1F/uuopioYWmf+PLZ4dQGgjKhelVVWiyiylFcWO1wS5E1m+tFr9VZ/fY2mx8F5R1mumXAfWekju90uGucObUSMmLgi9d9WdQow3t59gd96xtqt846x8OUoSO/W6FTXqL3cFPQpFYY8CdcsPPlesHXqo8jxe3G3bXuzbapAVdp/tprZG+H/rVEtH3PizknD4t6i6W4gJ6dpv6JdxyXjgbWpjqKoQE/sWRTaOqqlioHpOcArEqNtGmf8PBpJg6YzI58R3mTs6qKVnL6yHmUPLRXm6j5Ch6ygxd8FEIcpfTzgpULzMOHrOitOZotT8b6b82yzPBRdfYYOmiqmD1N8NhSTYd6K424pTbC8p2ddkmXTHjXlUXlJeKirMbSayz8R2lT+/RY40U0eahl1r42jGsR671l7PctZ6UTMLNV+q5ann4mi9ZFq1qJ5WIpfhV1usWeH+mN8yrBph/c8Hzu/m1byK5Ts/l/1oxVm79H8/G6w38/Hw8+VzI58n/lpznahZViSKCtUt+/uHl6vYf6uox+ytJgnV2GvM9d6r0CMpRG070U1jjs/jdZSFZeRXk1ogfH5riPzeznWL7Sfy+5vrXsV7aLuynovfpESULakWZUPqL8PBfM5y9aeD/HxjhFmNFGPk54g+Ynb/fODYxj1bB1y2G1tTsXMb938/u8pr8bj1/NBzI58ngSNNR9zY37/+Z7DHpuMxx2/s9d44Ki8XpWP9K26h72X+oZYZXj+u74HPG/1+5n0am99jMjLWamP28BHG7JXqpo9F1/Qzrn5b3YCVq81XwyLj6n79jH7DZ6vb0c/F41eb/w9ZPWuEMcJ8z362+/CcRebz5WOzQktZ/fai8PKc6r9fiPcycF+/ayLvZrx9te02ludcB6vN7wb274G/reUCbvezv862TP/3cy7XWDnbGGF+H2vZoeVa68a57hywTKyHcHH/DiH239nlN1e/pX3dgeNzOmAZ9vc2i/37mpzf0dpWFPv6kN/f/h3N58rPZv/u9X+j/OazXTj4/9b43RzboS2mnNtCaP2PMH9z+/ZhmPGFCLNvW4vedvzSYfXeTwnFqPO3RhzX/82d36VejIW3MeeyHMtQsRZ5nX2Z/u8XvX4ccRoVw9FxFIFl2mLG8VlMfnEStQ/BsurHiSnqc0Y4v5/1e8gS9b3k/tmxDO/3iN5HeH/3zJAzHbgcR6RdC2w1rCIx8c5Ijatn7yLPo1eoFmgqsTeNDBQDo5rECgYN9KjBDRRT0TSnzrdEamley6gTr5cLMfFSW0PMoFJROn96qAa40KyTDx0nRnUNPQQF5neLCB39Tu9dUa85vOjKuyOvKzSPSpfVmM+O8X5ubE14WHdFV16u1k1PUdS3RtR4vW6odc4YpxtwdBKppTq/Q4Eo7GXWwMMnzOx/m+RvGfrcpcdHXjewpFSUV7jXs+Vvbp3emFEqxPwx3kfSjm3FFF5X5tp903zT8PcF87m23yJUI58uihbMdfxGFC+331oxt59wU3TXQlHodfQqVYvCsVGnhMz4sm3lpgIzBh2/dFjB6LlyWwn1bYgccdWPcxXH9eKyQAw2N7Oy+7E9usRY9Dbmud2Uipm3Wa+zxYXv+7kLny7DujOXO06tG5xvr17qtSZ94sYnTiT73+YzZZzIz10a+R26DjY/Sbl43WufYTneOmdcJWb2KhP32loDq3uNc5768HkP5z6i/j4k02RXMnY0R5hFNTngnOS4paHm3/pNIebGmMCOsqh0sHOjS4Y871QlKq6sEWOimt6c0KEj+vMhyYX+QkeWot7e3cvKx5aI6uidkOLewcX//VJDnU+cISLrwt5r0yxj5ofuDj23QhTNcP6+oc9tNTeqMtaMrHgMmmoGdYUoLR/vUeGwN+ebZUiZuWsPQR8A745C5WLMkGoxroqJOBZnE6Z1qsXrtw7x2+7rMyuUAZxDDvVXmSkKp3ltKyFucYkkF+IWY3Y+201f986k/u+XIvXixjtO5HPHVosSx+8b+txI6OHXyNMGocecnPsgZ2XdqbTEVskx+b6HPNAoD+WD2tdFuZnIMzlWsysZqyRn1ZrsNaRwx68FRWK657mJ9Co4vtRZe3Tlc3Rp8q7FovYb2pklNkzH//1SSq6LSjFprIh08DHLzKHqccnWGQgBHt5J2zoFWSV8FBGPqKMwpW72eFFeWhFZ5oKJ5vFBhHcrivl5Mmhby2Th2FQl0vnK67fWaaAoHeq+rdj5xaV/jCW33fi/XyqF1kWsOAklbzzm3CcVXWl7jSxuldfQkX75m8n9+t7vMVBcbh4QoeNo5f1lojAqkWeanGmmDkMzhV/zaTqhA4T6010o8B0bIWpwZsAONjcmmcytmp2ryNFFfAnZ//1SqbKi3L3VoXaOmB4+Mo6Cmq1snsTnLhfTvZqaY8F3XBLf0ROC1vrN0MxV7debVPY4ZUIORPi31g2dDdWfHtziEtt36KjNJcaiJbjd+L9fCvnEjT1OnJBYQ6cC8bnFtHvj+46jx4nCaSUJHliE1o3fe+DxmopJonzZRHF5AK0nqZQTydjZDFYiylLQHBH60VVTuEfTc71ewmNrHOer3ZYx8DY0BVlN7GZBE5Z1xI+gRfOu9ZhZ6p/7jCRkz/OiNr7vFyRH01GxGCNmqub0UG01/J0mmMcK4SPjqKaw4jGiRp2zrfe5zeIduFFN2kPMHdcC9yES1k7Aem55b1uN36ztV5SWh5vfUOq9Z3jH6uxdSrF4/9bBUedW1bbgvr1E9xLG/sN2vlomV6s3tfqNXeIS/Tas19TfVl2SbiLbTYz3C4533PjGSdRpp5JphaFz1C6f27tnOfrb2E5bqDJmfmQUhqtY74GDs2XloiaI048p1gi9uNTfREREOQSVvntFYRaMV869ZmoiIiKQswHaeltnMCZjIiLKQeZRMab4tA8zy2BspiYiItKMR8ZERESaMRkTERFpxmRMRESkGZOxBuFx0V5j7sLTfsY/mUR4jHPMZQY1HtY2TrTeuGvn2M1EB/IT5RPsDxgjxGScTiohhudiXlImJ5SIBKJKcOF5X9VkA77zW4cSHy7PKNVbpkr+4WWqgf1ey7SStiOpW4lXVQ7kIH/bHLBygo9IxaHyWlx2LqJ8LF7LHQ7lllAF2K3CrOLFc4ILovqYjNMJs8XY51DFlVFM1pVFMP8rEpx9rlU5b7PPVZWsxFc6w1ouLu5uLnOG2hGYiVMm//BVlGIv0x+GC+AdbVd4kSV6UL39cVy5CUmZs1RRbsGVy+pN04qxreb275i7mSgGJmOdcBky/KsuJoGrBCGJRV8qEEez7nPdWvPo2uePxfR95j9LQpcRk1c1MdnnsfVfZiy4tJv6M24FYtSdmD4v2fckylCl42xXNgJUVmvExLGhinaYfcpI3yPm6Ok5bRVYtFqhRcu2LMcUuOFTUWYxn4cj93qtbupxtlJlHiZjndSFJKwLKOB6wUiS9ivGWMnUHS7XZv4Tdek1+3KsBO+Y31VVApK9EoyVzGVzd7xNcfK6qsm/J1Fm6ilGjS0MX1s4dHWju8Uoe7whSc4oEhVWKxKuUOV5mqinuDzc2mSWGZFlSzglVFGqHrdf7tFM4nIuafW6kvLIqStT5bWhy62GXoc5oNlKlWmYjLUxg0dek9d24e/jS2WSxDlW1FxRs7UHVMaQl0sLNYdb56j9z2sT5bBBl4uJy3Dap1Lca10kwabuTTPO7RcqsF9nN1qsi/j3nSgqwpcODV0hSlbe5UX2bRfIMWM0cmnSSlE+39561rBLFlJqMBlrgaYonOvFeVXbuVZ5JZfQ1VCQkEumCTHxylBzl/dF7k1Rl56rfzTsPNoOH5EndAH3aLjKSqiWjfPBMc9B19YIv2N8ouyF0zClonyI+5WnEI/Vtise4QpVqIa7czYnOy7i78O3BU3GnnXlqVDJyEp+nmMyTjd5XsdKxC4X2nZ08porCpeGOku5X0ZMnR92XMzcOo9cKArNZYealM1n2C6SbwWua4JXzclO7s3hIaHrl9ZL+FFwdIDwT/k1WIl0UHEbukxofZEOllZxv4pQzIv4eyjo4bqDiMARteP9vT8r6cFknE5IxLKmWypmmok21jWX0Uwd6gkdaX6yxhNbHTfC528nhM7dWj2yxVB1pRI0ieEZ1rkl8zOMl7Vi94uG4xxYEY500fysmp6tHtvWuW35Gaxm6fDyvCoMeL2qiZs7hEy/wDdR0BCj4dENCfK+iH+Uek3faJpWf+KavqJM3MtOWxmNyTiNrKNDEdVkZO8EFZ4QxCwygWFIUvgckQtcAP9Ks+6szt1aSc9+XmmqrF2rDleyMhDVPO5QIEY9p84Hy/HDaly0+TmsmrSshavHrGa0oivvDlcYrA5k1oXKw0OrnhslkzlRXkGMlpaH+lZYxaOPhe9F/H2Zce64yL5ZfQ6fMw7FtFDj/UOFHbgyDa/aRESUg1CxLy+pElPZGpUVeGRMRJRzontQU6bjkTERUQ7AkXB4ql15Kip2vxTKHEzGREREmrGZmoiISDMmYyIiIs2YjImIiDRjMiYi8iJnzAuNzfW60pE1N4DjCkq+IldmirXMwOZ8D1/pKXp8sXP6zfi/AwWNHbiIiFw4eycrmFDHmrwGCU5e7MXOvxez68Vf7MsMz9Jn57VMJNISUbbE+bj1HpiCc+og6zmhxyy4Zjom8XH9PCbrcUofHhkTEbkYeJt9Lmd1QRR1nXB5dKuuujbTeo410539kod21tSxtnmirdnzQlNVmolzgjVDXpzLjGXhvWp63Jnqe4RKdKK1z52Nqz3hwha85nF6MRkTEcVUIAp74V91QRTrKmTWHPCAOaDlFcw8Lo8Ydf1yCF82tQKvsC7IUioGW0fBsZYZi7p2eSIG3haaDjf0mShdmIyJiGKyroamZrWyrm5mv9awlUw9uF4tzb4cK8H3Kgwn60glwH5ltgSEk3loLvn4jnbVxWIc341SjcmYiCgG62poReHrFavLl+ICLfJCL9Y1yjMNLhKhmsNNuE46LxKRmZiMiYh8hDs52a5cBjinjPOroSummYl46MTQeWXX635H2K8tHm7uth8NO45IndcnT1bB6Lmhc8Iz1CVXfc9B+x/hU2owGRMReUCPaisRu13K1NHJ61LzyBNJzNHMHGGdH65eujx0B1jnkXub6dtqUl5SbaZDi3Ue2S3BW03YTsuXyiW6X19cXd/ctwl6Ybnj+uWUHkzGREQurKFNGObje01xqVJMsq4Vfql6rjW21xorbDt/Gzp3a/XILhKlxyPtFYjBpbI7lxijXlN5bajp2ysxRq4dPinUwct8TzkcK9wJDM3nkWZpa3leFQa0AoSGa5WKcRzalFYcZ0xEVI/3OeDQ+F3zj3pjgqPGA1vjkB1H1fWXG16eUm98s8dRuaX+eGgMt5qqzm27jTO2Pe42Vto+7pnShsmYiIhIMzZTExERacZkTEREpBmTMRERkWZMxkRERJoxGRMREWnGZExERKQZkzEREZFWQvx/uR50UykUzcUAAAAASUVORK5CYII=;movable=0;resizable=0;rotatable=0;deletable=0;editable=0;locked=1;connectable=0;" vertex="1" parent="1">
          <mxGeometry x="1590" y="31" width="483" height="832" as="geometry" />
        </mxCell>
        <mxCell id="ImZzVccB2ujbgJuywWcu-15" value="" style="shape=image;verticalLabelPosition=bottom;labelBackgroundColor=default;verticalAlign=top;aspect=fixed;imageAspect=0;image=data:image/png,iVBORw0KGgoAAAANSUhEUgAAAeIAAAMXCAYAAADmKVYgAAAAAXNSR0IArs4c6QAAAARnQU1BAACxjwv8YQUAAAAJcEhZcwAADsMAAA7DAcdvqGQAAHiSSURBVHhe7d0HvBTV2fjxA/beCHhFpYUrKBbURJGIihQjMZqAQUzehKaJiL4WFM1fNIpRMVgSEROlGJOIWJLXGFSKhZsXNeUNFiJ4CeWiiKIilojRkP2f58yZ3Znd2dnde3f37O79ff2M3G3Tn3nOOXNmpk1CUwAAwIm29l8AAOAAiRgAAIdIxAAAOEQiBgDAIRIxAAAOkYgBAHCIRAwAgEMkYgAAHCIRAwDgEIkYAACHSMQAADhEIgYAwCESMQAADvH0pRL517/+pTZu3KjefPNNtX79evOvvP7ss8/sN1qn7bffXrVv317V1dUlh3333VfttNNO9htAeRGr0YjV8iERt5Csvs2bN6vXX39drV27VjU1NZnhjTfeUJs2bVLvv/9+cvjwww/Vv//9b/vL1mnbbbdVu+++u9pzzz2Tw9577632228/1alTJ9W5c2d14IEHmr/btWun2rRpY38JtAyxWhhitXxIxAXYunWrCdqVK1cmh8bGRvX222+rjz/+WH3yySdm+Oc//6k+/fRTE/jITQJ4hx12UDvvvHNy2HXXXdUXvvAF1a1bN1VfX6+6d+9uhi5dupgDBBCHWC0NYrU0SMRZfPTRRyZ4ly1bpl599VX197//3fwr73/++eemtOz/K0GP4mvbtq0J5O22284M8rcEvgR7r1691CGHHGKGHj16mNI6JfLWiVh1j1htmVaXiGVxZfjPf/6T/HfDhg0miF988UX1yiuvqJdeekmtWbOm1Z8jqhbbbLONOuCAA9Shhx6qjjjiCPPvYYcdZprM5DMJehnkYMEBoHoQq7WHWI1Ws4lYglaCU5qdpDOGDFu2bDFBu3z5cjOsWLHC/Cvnh+T7qB0SxHJ+66CDDlI9e/Y0JXH5V5rMdtllF9O8FhzkIAA3iNXWjVitkUQsASznfaQpyh/effdd0yFj1apVavXq1eZfCWwJcrRe0mQmHUzkfJYMXbt2NYOc45KDwW677ZYcdtxxx1ZVKi8HYhX5ak2xWrWJWErQcl5ImqekF6R0zJB//eG9995z2utRmlakNCc7h3QIiTo3Jb0OjznmGLNT1aIPPvhA/elPfzI9U9PJ+pFOHrL7yfpxWcuRedlrr73U/vvvbwJf/pXmM+lsIk1nUjKXSznQPMRq5SNW3arKRCy9HZ988kk1c+ZM9dxzz5mdyOViSMltn332MdfZSdd+/3o7GV5++WX10EMPmcsm0g0cOFDdeuutpjNDLZID7yWXXKIWLVpk30mRDhvDhg1Thx9+uOnJKuf+ZJDrN+Xfd955p+zn/QYPHqz69++vjjrqKBPQHTp0ME1hcmCWAwC148IRq9WBWHWr6hKxnDt67LHH1OTJk03PyHKXzqRkKCUw6Vwg/0qpTP6V4JZr7GSQEpvsvLJj/P73v1f//d//bZre0klQT5s2TZ1wwgn2ndry7LPPqvHjx5terOlk/f30pz9Vp59+ummClIOfXL8pB2o5Dyi1JLm5gpTQ/Ws+161bZ5o1i0m2nczjyJEjzc0LUDzEavUgVt2qqkQslyDMmzdPTZw4Uf3jH/8oaWBLhwD/2jgpcX3xi180g+wMck5CmrL8QbrpSyksivTq/Pa3vx25g++xxx7qF7/4hfrWt75Vc7Ut2a3mzp2rvv/975ubI6STSxl+/etfm56TUWTbyvlEaQqT84jyrwT2W2+9Zba9NHXKuUT5V96TfaNQ1157rbr66qvtKxQTsVo9iFX3qioRL1iwQI0ePdrcgq6Ysy2lYekEcPDBB5vzDLLjSQ8+KTnL+Qa5Ls7/V5q2CiE75imnnGKa5dJJQP/oRz9SF198sTlgFIuUWhcuXGhK8HITg2zn32RZ5Do/KWVK05ush2KR5b7lllvUddddF7mtjjvuONNkWehyS9OTBLI0hfn/Smef1157zdS6ZHnlQCpBLweEKEceeaQ5qB599NH2HRQbsZofYpVYNfSKrwpLlixJ7LrrrrKXFDToAEoOuuSc0CXnxMknn5y45JJLEvfee2/ib3/7W2LLli12KqWhD0gJfWCInL8zzjgjsWbNGvvNltOBnHjkkUcSuuQfOb2oQb4rv5HfFsvq1asTp59+euT0ZF3IOiklfYBL6GBPzJkzJ3HZZZeZbS7b/hvf+EZCl97tt1AKxGp+iFUPsapLP/bfiiUbSZfGErvvvnvkjuIPbdu2TegSW0KXjBN1dXWJbt26Jfr165c499xzEz/96U8TutSZWL9+feI///mPHXP53HPPPVnnv0OHDomGhoaizdfmzZsTxx57bOS04gZd6k188MEHdiwtI8siy9S+ffvIacm6uPvuu+23y8fFtm9NiNXCEKvZtbZYrehE/MknnyR++9vfJg444IDIncQfpPR8/PHHJ26++WZTWly6dKnZyStlY65YsSLRsWPHyHmX4cc//nHin//8p/12y7z77ruJXXbZJXI6cYP8Rn5bDB9//HHiuuuui5yODLIuli9fbr+NWkCsFo5Yha9iE7HsIA888EDioIMOMk1VUTuJDNtuu23i1FNPTaxcudL+svJs3bo1ccopp0TOvwxHHXWUaR4qhk2bNiU6d+4cOZ24oUuXLua3xbBq1apE7969I6cjg6wLWSeoDcRq8xCr8EV3H3RMTtzLpQS69GlO5Ov5tJ+ESYeM0047Td10002mx2Slkl6aZ511ln2VSe6bK51bsi1nIeRZoSNGjCjoonb57tlnn12U54zKMsyfP99ck5mNrItsPVdRXYjV5iNWkaQ3RkWRJi4pXR966KHmXJLMYtQgnQiGDh1qOnAUs+NCqbzzzjuJ/fffP3JZZOjVq1dRmpukiU9KuRdffHGia9euWTueyCCfyXfku/KbYjQPbty4MXHIIYdETk8GWQfFalaDW8RqyxCr8FXU5UvSvV2uPbzyyitN6VrvbPaTMOnKL6Vrua5MLrQv9DIFV+RaOLkEIoqUOi+//HJ144032neaT9abXGgvF9bL9XzZ1qNMU256IBfsy80NilHyletGp06dmnWa11xzTdZ14IrcjODRRx9Vf/nLX8zlNl/60pfUeeedpzp27JjX560RsUqsulKT8WrScYWQHpfS2SPuPJN09pDzFq+88kpVlK6DpASarXeiDNIJ44UXXrDfrj7PP/98bOcTWXZZB5Xkz3/+s6kV3Hnnnebv3/3ud+bvQYMGJd9L//z//b//l/y8tSJWiVUXajVeKyYRy7WH+Vz28JWvfCXxj3/8w/6quuiSZ2Ly5MmRy+YP0hlEepFWG+k8EtfpQwZdui5Kk1qx+EEr/6aT9yR4s33+xhtvmM+jPqt1xKo3EKvlVcvx6jwRf/bZZ4n58+fnvAGABHafPn0qusdlPpqamhI9e/aMXEYZdtxxx8T48eOLdolEOUivWZlnmfeoZZJBllmWvZJISVmGbKQ0HRe4UsKu5FJ2sRGr4YFYLa9ajleniVg6e8jKk2vVonYIf5Amrr59+1Z9YAu5U4xcIC83NIhaVhmkWei2225LfPTRR/ZXlUvm8ZZbbjF3wolaFhlkWX/xi19U3F1ypIQs+19zSdCPHDnSvqptxGr08hKr5VPL8eqsX7oObPNkFukwICfUs5HOHXJv1V/+8pfmRu7VTu4RK4/w+trXvpa148rGjRuVLrmpRx55xNwHtlLJvMk83nXXXeZRaFFkGWVZTznllKLeH7cY5DF4LenAIZ1C8qHjzP5VnYhVYrUSlCNeXcWqk0TsX3soj0eTp3NkW/jt7LWHN998c0Vfe1go2ZnGjBljblqfzapVq9RPfvIT9dvf/rYiA9wPbNk2Mq/ZyDLKsrYkgEpF5kl6VzbXX//617yWS3qlyj5fjYhVYrVSlCNencWqDqyyKvTaQ7kFXrX1uMyHnKuZNm1abFOf9EiVuxXdfvvtiQ8//ND+0j2ZF7kncH19feR8+4Ms2x133GGWtRJJU5U0d0lHjkLJb7J1DIki+7zs+9WEWPUQq5WhXPHqIlbLmojlpvC6ZJbo0aNHbGBvu+225skbcgOAzz//3P669siNA+QC/bhzUDLsu+++iYsuuqgiemi+//77Zl7kZv1R8+oPskzyvUq8BCJIOm8057yR/Cau40iQPDFI9nnZ9yUGqgGxGkasVoZSx6urWC1bIpau8NLjUu6tmuvaQ7kf7csvv1yTpet0b775ZmLYsGGxd9WRQR5/Jk9qee655+wvy0+um5RLUnI9ts2vIa1fv97+snJJSbmQpCrk+4UcDKQHquzznTp1SjzxxBMVd1lIOmI1GrHqXqnj1VWsli0Ry7WHe+65Z+TO4A9S8pYnszQ2Nlb8waqYNmzYYIImap0EB9lB9thjj8TVV19tSujlItcdyjRl2nEHZn+Qx7TJMlULP7jzCdZCgtq3aNGi5LqRGPjjH/9oP6lMxGp2xKp7pYxXV7Fa8kQszVWycPncAKAWrj1srrfeeitxzDHHmKa+qPUTHGRdyf1uZ82aZUqycqlBMQ+GMi4Zp4xbpiHnVuKaJ/1B5v3LX/5y1QW28IM72zmoQoI/3ZQpU0LrSa7DlWfuVlpTLrGaH2LVvVLFq6tYLWkilvb2Rx99NK9rD6Vk1loD2ycl59NPPz3nDRP8QdbbkUceaa4N/NOf/pR4/fXXW9TJQG5MIOP4y1/+kpg6daoZdz4HGxnkdnlf//rXE2+//bYdW/WR4JVzUBLcwU4d8rcc4AppDgsaPHhwxvrab7/9TGxIjFQCYrUwxKp7pYhXV7Fasoc+6J3M3BT+qquuin08mt551Mknn2yuxaulyx6aS65LlEfKPfTQQ0qXVu27uXXo0EEdf/zxStdUzHqU13vttZfStRulA888Pk3Wtfj3v/9tbtov3fQ//PBD9f777ysdlGY76YOEeuGFF5Teyc1381FXV6eGDRum9I5vplvtpk+fbi6T0Afa5Ovrr79enXHGGeZ1IWR7Rq2TNm3amGttZVsPGTJE7bzzzvaT8iNWm4dYrQzFileXsVqSRCyB7T+j9NVXX836dA/Z2eQCcllpugRj38W7776r7r//fjVr1iz197//3QRjvmSn2WOPPVSXLl3MNXPt27c3QS7PL/Uv0v/Xv/5ltpEEtS7Zmwvd16xZoz744IOsB+Eosv1ku40aNUp9+9vfVu3atbOfVD9ZJ6NHjzZ/y/4pT3BpDnm6zWWXXWZfhbVt21YdfPDB5qAo1+DKQbjciNWWIVYrQzHi1WmsSiIuJr3TJObOnZs47LDDYs9VBK893Lp1q/01fB999JHpufqtb30r5yUTLgaZpzPPPNM8hUfmtRZJ01dLff/734/tZSsxItfpurh2kVgtDmK1MrQ0Xl3GalETsXQakOuvdMkhZ2B/85vfrPlrD1tKLglZvXq1OQ8iN2LPpxdkqQeZB5kXucGBzJvMI6JJ0pLkJUksV4BLzEjsSAyVA7FaXMRqdXMdq0VLxLIgjz/+eKJr166xO+G2226bGDJkSOKll15ix8iTlL7kMhF5NNk+++wTuV7LMci0r7rqqsRrr71W9tpbtZJ9XK6z/drXvhbbmUZipkuXLol58+aVvNZJrJYOsVq9XMZq0RJxQ0NDol27drGBLaWJE088MbFixYpWde1hsUiNRC5TkN6A0pMvah2XYpBpTZw40fTSlEfhoTCyr8vBWfb9uNqnDHvvvXdi8eLF9pelQayWHrFanVzFaosTsZQinn766ZznRmSh5G4zrf2yh2KR29Hdc889ZoeR0u9OO+2U9+ULcYOMQ8Yl45RxyzRkWmg5eUi+XH+bK8AlliSmil0LJVbdIFarT7ljtUW9pj/99FO1aNEidc4556i33nrLvptpm222Ucccc4y69957Vffu3e27KIatW7cqXWtRzz77rPrf//1f8/fHH39selrK9pFLH3Tp3PTm9De1rgmZXpTbbbeduVRixx13NF3yd911V9WjRw/1la98RenANn/LtkPxyNNvvve975nLTmTbZbPvvvsqfWBVAwYMMNunpYhV94jV6lLOWG12Ipad54knnlBXXHGFmeFso5Gd6KSTTjLPweTaw9KTaw1fe+01tXbtWtOlX66N27x5s7kOUQJdSEBL9/s999zTXDIhl0507txZHXTQQeZaRpTW6tWr1Xnnnad0STrr5S5yAJZ4ufHGG9Wpp57aomsXidXKRKxWvrLFqiTiQsldXeSyh1yPR5OmE7mDy7Jly+wvAYhXX301ccYZZ+TsoSl3CJozZ06zH09HrAItU45Y3eZHmh5R3rZs2aL+8Ic/qBtuuEHpoM16AwBpStGBra655hrVq1cvU2oA4Nlnn33MDRb8uyRFxZGOT/Xee++ZWpM0f3Xt2tXEVb6IVaDlyhGrBSViucvL448/rq699lpzF5lsgS1NXHL3Ebllni6Jc+4CSCPJTu5uJE2M0iQZF+By9ya569X+++9vmsAkvnIhVoHiKHWsGvrHeZFeYXLtoR55ziYuuQ7rxRdfLHqvT6DWSIzItYvSLCyxExVTMkjMyXW/uoabM66IVaD4ShGrvrwTsVxP2KFDh7yuPVy+fDnXHgJ5kliR+DrppJPMU3qiYksGiT2JQfluHGIVKI1ix6ov70Qs91GNmqA/SGBz7SHQfPleuyixGIdYBUqrWLHqy/vyJek2/+abb9pXmQ4//HDzODCuPQSaTy4vOvPMM9XSpUvtO5nkUXZxsUisAqVXjFj1tbX/5vSFL3zB/hXtlFNOMY/zAtB8nTp1MrEUJ9cj7IhVoPSKEau+vBPxd77zndgeYL/85S9VQ0ODfQWgOeSOS3JXq2ykV7PEYhxiFSi9YsSqL+9EPGLECNW/f3/7KpN0677pppvMnUgAFE7usCR355HrFbOR2xmeffbZ9lU0YhUorWLFqi/v64jl3qZy7klKAe+//759N0VONctMyb99+/Y1t2YDkB+5reHUqVPV7373O3MNcBRpCpsyZYo5xyvXNmZDrAKlU8xY9eVdI27btq069thj1fnnn6922mkn+26Y3NP24YcfNjMIIH+PPvqo6UAlQR5FbiY/fvx4ddxxx5lYjEOsAqVTzFj15Z2Ihdx8fOjQoWaIIiXs119/Xc2aNSu2JxmAlJdeesnEzLp160wMRfnGN76hhg0bZmIwH8QqUHyliFVRUCIWUuUePXp01iq33PpLOoLcd999atOmTfZdAFGk6VhiZfHixVlvQym3nhwzZox56k4hiFWgeEoZqwUnYiHPwBw5cqS5GXYUeXbjb37zGzVv3rzk47wAhElsyP2gf/3rX2d9xJrEmMTa8ccfb98pDLEKtFypY7VZiVieKiE9M+XZi9kehPzOO++oO++8U7388stZSw9AayUx8corr6hp06aZXsxRdthhB/XVr37VxFpzO1QRq0DLlCNWm5WIRYcOHUxnEKmKZzsh/ec//9k8ZFwedg0gRWJCYuNPf/qTfSdMmpLlkYQSY3J3npYgVoHmK0esFvw84iCZqPTKfPrpp9Wnn35q3w1rbGw0d/o55phj7DsQ0u1d1s1TTz1lmjxkkL/lgNjU1GRKYXvssUdBz7RE9Zg5c6a6/fbbszYHy7a/+uqrTU02n8sfciFWm49Ybd3KEquJFvr4448TF110UfIm11HD/vvvn3juuefsL1q3rVu3JpYtW5aYOHFi4vjjj0906tQpseuuu5qbh+uNmNh5553N+pIbil944YVmvekDgf01aoEuWScOOOCAyFjxh/Hjxyc++ugj+4viIFYLQ6yiXLHa4kQs3n777cSXv/zlyJn0B/n83Xfftb9onXTJOXH//fcnjjjiCBPQUespOOgaTOLggw9O3HnnneYgiur33nvvmQN31Pb2hyOPPDLx1ltv2V8UF7GaH2IV5YzVoiRi8X//93+J3XffPXJmZZAHKZ9//vmt+tmnEqR77LFH7HNi0wf57m677Za47rrreHh7lZN9X2pOcQ8Vl23917/+1f6iNIjV3IjV1q3csVq0RPz5558nfvrTn8Y+n/ELX/hC4sEHH3Qa4FJa/d3vfmce7FxXV5cYPHhwYsmSJSUNHFnehx56qKCgTh/kt/fcc0+rPjjmS7albFPZtvvuu695AL5sc5c1FX8fkBiI2r4ySOzcdtttJpZKiVjNjlgtL2LVU7RELKSKfuaZZya22WabyJmXHVQeSP73v//d/qJ8ZIOvWrUqcd555yW233770HzttddeiUWLFtlvFt/y5csTnTt3Dk2zOYOck3r55ZftWJHNU089ZbZpcN3JNpdtL/tAKQ/k2bz66qummSvbAV5iZujQoYkNGzbYX5QWsRqNWC0vYtVT1EQsnRv+93//N3HYYYdFLoAMci7lBz/4QWLjxo32V6W3efPmxLx58xJf+tKXIudJhoEDB9pvF5d03pCT+TvssEPkdAsdZAf49NNP7dgRZdCgQZHrTgbZB/7whz+YfaJc3nnnHXNgkYNz1DzJ0KtXr8Qf//hHE0PlQKxmIlbLj1j1FDURC2lSkPMrHTp0iFwIGaSn4S9+8YvEJ598Yn9VGtLEsGLFisS1114b28wgg7T3l6IpSXpdxh3sZINLzeO//uu/EiNHjjRNM3GdQ9q1a5f4y1/+YseOdLINZVtGrTt/2HvvvRM/+tGPTMm31IlP9vG7777b7PNR8yKDxModd9xR9uY4YjWMWC0vYjWl6IlYvP7664lzzz3XlKijFkYG2aHl3ECpVq6s1CeeeMKUSnfZZZfIeUgfSnFubsaMGebcR9T0JLBHjRqVeP755838fvbZZ4mXXnopcckll2TdQeU3N910kx070klTVtR6Sx9kPZ5xxhmm9vXPf/7T/rq4ZN+WS1riel7uuOOOiTFjxiTWrVtnf1VexGoKsVpexGpKSRKxlHT+/Oc/J4477ris7exyHkBKlevXr7e/Kh65ROPWW281pdvtttsucvpRQymCW65BlB0panonnHCCKTEHS/fy9z/+8Y/EN77xjcjfSC++s88+234b6fINbhlk35BmpptvvrkklwvJvi0H7/TznP7gn4d94YUXSlLDywexmkKslhexmlKSRCykxHjvvfea3o5RCyaDXEIxbdq0xJYtW+yvWkZWkHS2+O53v2uat7IdWLINpQhuKUFl6xBz8cUXRzZxyHml22+/PfI3skzSixTRCgluGWR9ShPid77zHdP8Vawgk204ffr02MuEpPY1c+ZM5zeBIFY9xGp5Easpzb7XdC5yu7fhw4er008/PetNsD/88EN1ww03qNdee82+0zJPPvmkeQ7kAw88YG5kr5fPfuLO1q1bs95IX27CH7Vu9MFA6ZK5fZVJ78D2L7SU7CPvvvuuevDBB81zROX2hcWwYsUK9eMf/9js41Fku5922mkteqBDsRCrHmK1stV0rOqFKym5Q88hhxwSKl2kD9IuL6Wj5pISzZVXXhl7XWQ+QylK2RdccEHW5g65fGTNmjX2mynSc09+F/UbKbF//etft99EukJL2emDlLovvfRSs081l5xvklsiRo3fH3r06GG2cyUhVonVciJWU0qeiMXixYtz3ibuqquuMk1khZBmMrmzycknn5xX01au75QiuOX81z777BM5vT333NNcFC4bWaYtO4V01de1BNMEE/Ub6TAg57IQLVdw57ufSI9YOR9UaFOs7MNXX3115Hj9QWKhlNfCtgSxSqyWC7GaUpZELOS2b3HX50lJVK4Zy6fdX4JATtj//Oc/T3Tv3j2vDSa9MeUeunEl8VIEd0NDQ6K+vj5yejLIxezSa1Xu5PL73//elPCyBbYMckCQ3oOIFhfcsp9Ih4t8eubKd7/4xS+afUwu3Jd9LhfZd2XbxO3n8tk111xjf1GZiNXoaRKrxUWsppQtEcvTKb75zW/GBuJRRx2V804+crJcStbjxo2LDYLg0LVr18Rll12WePHFF2PvHVqK4JblHjZsWOx0CxmkafCDDz6wY0e6uOCWA7tcK3rFFVeYwI36TvogNSS5qYX0LM7VUUP23aOPPjpyPDLIvi+XYVT69iNWidVyIFZTypaIpQQij5SKu2BemnLGjh2btT1eei3+5je/Mc1bcSUZf5CSu3xXfiPNFnIOrNzBLR5//PGs1ycWMsgyy/1/kV2u4JZ9S4JU1qPc1Uf2uajvBgfZj6T567777st6Ib+M95xzzokdn1x+4fJSpXwRq8RqORCrKWVLxEICTC6ajysdSxDI3X7Sz0FJ85aUlKXEHPW79EEuiZDb1cmTZvxxuQpuWW45FxFXw8g1yG9leeRmAsgun+AWsq2XLl1qnrDSvn37yO+nD3IPYmmOfOONN8w4fLJ/yT4bdwCXOwTJHaoKPY/lCrFKrJYasZpS1kQsJEhlJ80WZLIB5B6jzzzzjP1FIvH000/nvJ2cP0gQ9OzZ09yqTKYVPF/gKriFTFt6VzYnwOU3clu9N998046tdOQGBXIQlWYZucD90UcfzVqyrET5BreQfUNuKDFr1ixTAs5n28g5q379+iUWLFhgx5JIPPvss7HnNKX3rDxWsFwPdCgWYpVYLSViNaXsiViq+nKHGgnWqBUhg9xF5Xvf+5659+zUqVNN6SafFS+BK00Yco4gqjTjMriF9LKUjjBxtxNMH6T55KKLLjK3Iiy11atXm676Mn+yQ0ozz3777WcuZK+Wmlwhwe2Tyx/+9re/Jb761a/G7h/+IPtip06dElOmTDH7qNx1Ku6uUHJ5hDT1VnqTdDpilVgtJWI1peyJWMhCyp18ZMeJWhkyyA4mzQf5nBeQQVa4nNiP2wldB7eQaciTO77yla9kLZXJIMtz+OGHJx555JGyNHFJUMhTbaLmRQ6u0mxYDYmkOcHtk32nkGZJ2TdlH407WMvdqqQUX21J2EesEqulQqymOEnEQppQpPknbsXkM0hJUEqG8+fPt2POrhKC2ycBK80kEyZMSPTv398sg1w6ISUyaQ6UrvUffvih/XZpSUDIg+LjtsVZZ51l1l+la0lw++S6QWn+kn0rajz5DhL80mNYeuNWM2KVWC0FYjXFWSIW0lQgzV7StBK1cuIGKQlJJw85H7Ny5Uo7xniVFNyVRJ4oIweXqHXiD7KN5Dq9Si9pFyO4hTyUXJqx5LFn+Za6g4OsLzk/5eLB+qVArFYGYjVTLcSq00Qsfve738U+/zFqkDZ+aQqSO+Hku7EEwZ1JnjoiT4jJ5xIT2U5yfqaSFSu4xXvvvWeePdq7d++CS9wdO3Y0TZW1hFh1i1jNrtpj1Xkilu7k8jDwfEsy8uxPuej+ySefLPjZlAR3mDS5yZNj4h4Mnz6ccsopBQVIuRUzuIWci5LmL2nui3s6S3CQfVnOX6Vf1lPtiFV3iNXcqjlWnSdiISv8a1/7WuSKCg5ysl16MkozWT63MUtHcKdIs5XcV1guPymkOUdqONdff32z1n85FDu4hawraVL98Y9/bErPUeMODtKjUy61qEXEavkRq/mr1litiEQs5PmSXbp0iVxZMsjtyOT+tu+//779ReEI7hS5xELujNScTg7dunVLLFy40I6pspQiuH1ySYvU7o455pjI8ctw4IEHmlvz1TJitbyI1cJVW6xWTCKWkszDDz9s7moSXFlSqpOeievWrTMbriUIbo9ciyfd9PfYY4/I9ZBrkHUotaJy3LSgUKUMbiHjlwOj3OUn/cAo+67cjk/25VpGrJYPsdp81RSrFZOIhbTTy515jjvuONPGL0/f+J//+Z+iXZtHcHuWL1+eOOiggyLXgQxyaYTcfSbuFoVyYJCmx0pr9ip1cPtkn5Q7GcmN/WVflX/l/FStnRfOhlgtD2K15aohVisqEZdaNQe3zJvcXOCkk04yj2OTR8pNnjzZ9KQspFQn1zuOGTMmcvllkHNQEtiNjY2Jm2++ObHzzjtHfk8GeSiA3D6ukgK8XMGN0iJWidXWFKsk4sBQqcEtwSvnedKbp6S5RW6pl29nAxnP/fffH7sOpMlGSo9CAnzo0KFZvy/B8u1vfzvR1NRkvl8JCO7aQKwSqyTiGlWtwS0XrEsTYFSPSXk6jtyCUM4l5SIXrMst8NLH4Q+y88sTS4KlZnkAutyYP1tvTXn4udzpp1JuNk9w1wZilVglEdeoagxuaZ6SgItrdpLLGl566aXYZq9NmzaZazqjfu8PcneZjRs32l94JGivueaa2M4i0uwlTXGV0OxFcNcGYpVYJRHXqGoLbgnWBx54IPZSERlkp5XLG7LdRF+C7rbbbos9QMgNz6XzTZQ1a9aYmwNku72hlMDlInq5u41rBHdtIFaJVRJxjaq24H755ZfzftyX3MXovvvus78Ma2hoSBxyyCFZm6wkaG+44YasBwfx1FNPxd7VR579KbeYc43grg3EKrFKIq5R1RTcH3zwQeKqq66KLRmnD3InGSkRB8nOPHz4cHONZ9RvZDjttNPMua040tVfen5G/d4fJPjlTkouEdy1gViN/h2xWptIxIGhUoJbmrnkzkQHHHBA5HzGDUOGDDE7uJBmLrnZfvqNF4KD3Bz+iSeeyOuc0b/+9a/YO9XIINeTulyPBHdtIFYzB2K1drXVC40Ks3r1avXzn/9cvf766/ad/D3zzDPqnnvuUTpY1XPPPaceeOABtWnTJvtp2I477qjGjBmj+vbtq/SOb9/Nbvvtt1ezZ89We+65p30n05/+9CelDyhm+kCtI1ZRDCTiCvPJJ5+oBx98UOmSr30nrE2bNmrXXXdVO+ywg30nTH7/s5/9TD355JPqvvvuU3/961/tJ2HbbLON6t+/vzrzzDPVbrvtZt/Nrb6+Xl111VXmwBBFF+7M9J9//nnzN1CriFUUjd4ArUY1NHfpUrLpFRk1fzJIRw+5n++AAQOyduiQ55V+8YtfNNctRn0ug9wST3p5xl1Gkc2GDRsSZ5xxhmk+ihq3rOOvf/3r5j6v5UZzV20gVlMDsVr7SMSBwXVwy3WBclu8qHnzB10qNnfn+e1vfxt7f9m4QZfSExMmTDDXPTaHBJDcq1VuHhA1fhn22Wcf07uz0OfQthTBXRuIVW8gVlsHmqYrhC7tqltuuUUtXrzYvpOpc+fOpqmpffv2ql+/fmr48OGm6asQegdXvXv3Vueee25BzVxB0lT2pS99SX3ve9/Leg5KznXJOa8//vGPNHuhphCrKDqTjluJSi5ly+3p5AbxUfMlg1zSINceBpunXnnllcSgQYOyNntFDXLXHenl2ZxmrnT/+Mc/zB2ApPQaNS25v+7ZZ5+d83KLYqKUXRuIVWKVGjHKSnpcXn/99er999+372T67ne/q775zW+aDiC+Hj16qJEjR6oDDzzQvpPbD37wAzVw4MDQeJpLSv1S0j7ooIPsO2GfffaZ0gcSNW/ePNMxBah2xCpKwibkVqESS9lSKpQOHTvuuGPkPMkgzyN97bXX7C/C5HrB8847L/b3/iD3mS32Dd/l5gE//OEPTceUqGnKII+B+/Of/1yUkn0ulLJrA7FKrLamWCURB4ZyB7fs7A899FCiU6dOkfMjg9yt51e/+lXsQ6zXrl0b2xlDBun0IQFWCtIzUzquZGv2kkEewVaOwCK4awOxSqy2pliladqhxsZGNWPGDLVu3Tr7Tth2222ndFCYawjl72z0Qcs0LWUj1zFedtll6vDDD7fvFNe+++5rxl9XV2ffySSdQR599FE6g6AqEasoJRKxI5s3b1a//vWvzR11onZ4OS90xBFHmPNNcUHz9ttvmx6c2e7sI+M58cQTzfkpudtOqQwePNicg5JemlHk7j3XXnutevXVV+07QHUgVlFqJGIHPv/8c/Xss8+au/J89NFH9t2wDh06qP/6r/9SRx11VNbOGp9++qmaO3euevrpp7OWsrt27arOP/98td9++9l3SqNt27bq4osvVscff7x9J5McgK644orYji5AJSFWidVyIBE70NTUpGbOnKlWrlxp3wmTW9JJb0npebnTTjvZd8OkZP6Xv/xF3X///Wrjxo323TC59vDss89WX/nKV9S2225r3y2ddu3aqZtuukl17NjRvpNJbgd49913m2sxgUpHrBKr5UAiLrN//vOfas6cOaZknK2Zq1u3bubShbggWb9+vfrVr36lXnzxxcjxSKlXSrxnnXWW2muvvey7pSc3D5gwYULW82TS7PWLX/wi9mYIQCUgVonVciERl9nf/vY3deedd2a9Vk/uviN30pEgyeZf//qXWrBggXrkkUfM31G6dOlizjXJjd/LSQ4q3/rWt9TXv/51+04mafaSp77IOTOgUhGrxGrZ6BJaq+H6kgi5jvDLX/5y5LT94dRTT03owLe/iLZs2bJEr169In8vg1xGceGFFyY+/fRT+4vy0iXpRENDQ6Jz586R8yeD3DXouuuuy+vZqoXgkojaQKyWB7FaGUjEgaGUwS078VVXXRU5XX/YfffdE6tXr7a/iPbBBx8kdCk88vcytGnTJqFL6Il169bZX7ghN5CfOnWqebpM1HzKcOihhyYWLlxY1JsHENy1gVgtH2LVPRJxYChVcMvOK49M22677SKnK4PcbWfWrFn2F9nNnTs3djzyOLVHHnnEftutxsbGxNChQ7Oucwk2ub9tMQ9EBHdtIFbLi1h1i0QcGEoV3E1NTYljjz02cpoy+Du57Jhx5Mbt3bp1ixyHDDKeCy64oOhNSM0lB7VHH3000aNHj6w3u5eb5//0pz8t2iPYCO7aQKyWF7HqFok4MJQiuD/66CPzPNGddtopcpoyHH744YmXX37Z/iLa5s2bE8OHD4/8vT8cc8wx5hZ2lUSW/+qrr07sueeekfMswxFHHJFYvHhxzoNbPgju2kCslh+x6g6JODAUO7illPnggw/G3p9WHso9c+bM2M4aMp477rgj9hxO+/btzQPAK5HUDr761a9mXfcSdHJ/W3nYeksR3LWBWHWDWHWDy5dKSG4RN3v2bHMdYRS5xdzQoUPVqaeeau4xm80LL7ygfv7zn2e9/EHGM378+Ng75bgkdwy68MILzUPSo+iDl/r973+vHnroIW4eACeIVQ+x6gaJuEQ+/PBDczOAP/7xj0qX/Oy7YUcffbS5NV62nV6899576mc/+5m56Xw2cu/Y73znOyW9P21LyI0PTjrpJHXOOedkvQWg3D5Q7vQTt5xAKRCrKcSqI7Zm3CqUq7lLmqd0qTH22jxp5pKOD3GPTJPx3HbbbaZ3ZdQ4ZNhvv/0STzzxRMV0+ogj56D0AS1yOfzhxBNPbNH5J5q7agOx6haxWl4k4sBQrOBeuXJl4rTTToucBkPuQa5plANbcxDctYFYrY6BWC0OmqaLbMuWLeqxxx5Tjz/+uH0HhdLBrV5++WX7CigNYrXliNXiIBEX2aZNm8yDtbdu3WrfQaHk0Wtyk3yglIjVliNWi4NEXGTSWzLbI9OQn88//1ytWLHCvgJKg1htOWK1OEjERSaPFCv1g71r3bbbbqv2339/+wooDWK15YjV4iARF5k8T1Qe8L3zzjvbd1AoOTjKJR5AKRGrLUesFgeJuMh22WUX9d3vflddccUVqnv37qbEiPzIAfHEE09U06ZNU1/+8pftu0BpEKvNR6wWVxvpOm3/rnlywf2+++6b9aJ9Od9RjGCUVSo9MuXCdxlnK1rFLdK2bVu14447qj322KPZ20E63mT7rYxfHnDerl07+w4qFbFa2YjV4iIRBxQruOEOwV0biNXaR6ym0DQNAIBDJGIAABwiEQMA4BCJGAAAh0jEAAA4RCIGAMAhEjEAAA6RiAEAcIhEDACAQyRiAAAcIhEDAOAQiRgAAIdIxAAAOEQiBgDAIRIxAAAOkYgBAHCIRAwAgEMkYgAAHCIRAwDgEIkYAACHSMQAADhEIgYAwCESMQAADpGIAQBwiEQMAIBDJGIAABwiEQMA4BCJGAAAh0jEAAA4RCIGAMAhEjEAAA6RiAEAcIhEDACAQyRiAAAcIhEDAOAQiRgAAIdIxAAAOEQiBgDAIRIxAAAOkYgBAHCIRAwAgEMkYgAAHCIRAwDgEIkYAACHSMQAADhEIgYAwCESMQAADpGIAQBwiEQMAIBDJGIAABwiEQMA4BCJGAAAh0jEAAA4RCIGAMAhEjEAAA6RiAEAcIhEDACAQyRiAAAcapPQ7N8177333lP77ruv+ve//23fCXv66afVNttsY1+hGm3dulX179/fvgpr27atevvtt1W7du3sO6hUxGrtI1ZTSMQB2223nWrTpo19hWr12Wef2b/CSMTVg1htHYhVD4kYrQaJuHoQq61ba4tVzhEDAOAQiRgAAIdIxAAAOEQiBgDAoVbXWauurk59/vnn9p2w/fbbz3QSQPX6z3/+o9588037Kkwud3nrrbforFUFiNXaR6ymtLpE3KVLF/XRRx/Zd8IaGxtVp06d7CtUo7Vr16qDDjrIvgrbZZddVFNTk9pnn33sO6hUxGrtI1YDJBG3Fu+//36ie/fuUvCIHK6//vrEZ599Zr+NaiPbbvLkyZHbVoYvfvGLZh9A5SNWaxuxGtaq2na23XZbddhhh9lXme666y71q1/9Sr3xxhvmri+oDrKtZJvdd9996uc//7l9N9Phhx9u9gFUPmK1NhGr0VpV07Scb5o9e7b6wQ9+IC0B9t0UuVOPnJc66qij1Be+8AVuoVclJLjfeecd9de//tWcV8q2bSXwR40aZe7KhMpGrNYmYjVaq0rEsqjLli1T3/72t9Urr7xi30VrcOihh6rf/OY3qlevXtwasQoQq61Xa4zVVtU0LRu1W7dupqS1/fbb23dR62Rbjx492mx7knB1IFZbp9Yaq62u///OO++shg4dqoYNG2bfQa2T7f2Nb3zDbHtUD2K19WmtsbrNjzT7d6uxxx57qPr6evX666+bLvR09qhNUroePHiwuvrqq1WPHj3su6gmxGrr0NpjtVUmYtGhQwd15JFHqo8//tg85UP+RW2QGz1IRx4pWV933XXmXBOqF7Fau4hVT6vqrBVFbhjwP//zP2aQmwRIT74PP/zQ9Nps5aumasi5JOldufvuu5tH53Xv3l2dccYZ6vTTTzc1KtQGYrX6EavRWn0i9r3//vvq//7v/9TKlSvVxo0b1ZYtW+wnqAY77bSTat++vQlsuaRlr732sp+g1hCr1Y1YzUQiBgDAIe6aDgCAQyRiAAAcIhEDAOAQiRgAAIdIxAAAOEQiBgDAIRIxAAAOkYgBAHCIRAwAgEMkYgAAHCIRAwDgEIkYAACHSMQAADhEIgYAwCESMQAADpGIAQBwiEQMAIBDJGIAABwiEQMA4BCJGAAAh0jEAAA4RCIGAMAhEjEAAA6RiAEAcKg2E/GzE9WZs9fbF5nWzz4z9vPmkHH26tVL9Rp2ryrumIMa1MSs44/7LId196ozizHfer2bdVDy9ZCNXgd2+hOftW+hujmI5YYr7T58ZYN9pxRi4jXHMseqiVhOxXFLY1n2j2o4FlRGIpadJ7Dig0Nzdsj1a1bbv6J17NJVde3S0b6KIzvERP3/ON5Oc5G6XS1btkwtu1Wpi0K/yWcceVq3WmVdsrjPymK9unfaajXhcb0OkuuheduvObyC0Dw1RKathyHzyzftom7jalfNsWznfd5guw8PnhdOQpKcipWcY+I11zKXnutYvkOtvnS+N20by716nanuXWe/UKDVa8p1HGi+ykjEB45UD9mVvmzaEKVOm57cCA+NyifICnTiFDXlRPt3S0lA9Zigbvfn0yzLFNXPe9V6yXp4fIJS8xaWpTS9qnG5GjIttd773ViifQfxqjmWVy9Xy/X8Jsenx73s4ZGq1e9FZY7ldBLL8y/Vk3+q8hNqc1V103SyOdgO6U0QySamtNJUuDlLl5Rtqdcbn/2uKR2PU/P0f+PMOGJK0yuWq1X2z5DYcXg16aj5E6Fly9Y0ZMafNl+BJqVwCTZ+ekENV8rn/ve976bmp4CanxzYune1B7Lg9DPnIbWt0j4L1bDipx1d8pXpBn6Xvs7kdXL96prAsNR8hPenLJ/FbmPkq2JieeXqyFgz4xs/T6nHxnnzEaoZx8dWaN/OVqNO3y+1bMuca3pB5Y/ltM+Cxy6zjP5nLYiTuPEEPyvpqYUiS1SaZy5PHHLFYvsiRtPsxLChsxNv2JfijSbv1RuzhiUOOeSQxOXPmJcZ35XPh83yXy1OXH6Ifj30kMB7+jvPLNbfl88u1/8XixOL/fGlyZielX0c3jRnN5k3tTcSs4emXpvxBdeBXi4zZ8HlkL+T49XM60MCvwuOM3566etn8RV6PP647Xj9dRNed0EyTvldYIhaBl9wO2dsc/3d5HynLWPaNk+R7+ppZnyeuW6H6dfJbaWn7S+PLHdqG4Z/l+2zQvaTVqcKY9nb94OxIvSvn9HjC+2zehzmD2+aqe9n7jeheMkjluOXOX566eun3LEcjhMt+d3g+tfS5jMoY77MfPvLGDeetHUj8xVY3kpW3Z210mqiHQ8MNCIFm5gO7Kq6Zqu1GstV1/HhprOOJ/ZLa5Lqp/plaQLrOOoh0/TmnctI1USzjuNZXTY/7QI18kDvXf1NNXCIUlPvkhLcerVQF7wnnBdo3NbLFRqP1HpPXa4uyGgCH6Km3+i/01F17a5LsXK6KXZ60ZLNvLLu9HgvsOtGzsktb8y2JnumzitJs6SuPSRrK+nL0LWn6hmsfYRqIvq7Mq9mvoeklvHAgXpO5qmFkTWAfmqKTNeez0qVlL1l9Zq1ZN12VReM76rmzfc+bZg/z55jbFDzHhuihiS3cfB32T8rZD9BjAqJZWkGXbbsdqUu8WLZq5l31N8Pj0HpcZr9Mja2vP3Gjx0j31jOtsxVEMuhlin/uwXFst6Ktwz2arUyXKLU7cse8pY5bjzp6+bEKWr+pT3ti8pWFYk43Gxpg8Oct+ip7rDvhZth9W5U383+lY/gQbb5vCCerrreclFsc5F0xkifPwkKzyq1fIUOmGSgpVkxVQ2e1lPNjzoP3aOnilrq+OmViJxfWzZfDZnnr4tw026vU6fqQ6Yl3x2/XA22n/nNkqbTit8UaIbBauoK77Os7DnK+ZeuVuNs01TqgKPXrT7AdDtRb29z4FivVq+02950nvGbLr1h8C12DuM+QwHSmzRtYaniYrmjGvmwjuXHJ6jV4+ObUGNjy/QfiY5JIyaWsy1zpceyHAMvaPSTaGrdFRrLPZOdtearCWqq+lkex4SodVMtqiIRewkuNaRKiqmOIbLx0wPYjX5qyGm2Jhoje0lU6ADOlsh7TFDzJWllO2+cRfz0SslbF+tnX6TmDUn1hJSDXKisaoJdPpuvek5LJeNUQPqDLRnn0PHkIalSuiTex+apBikxm/Nc3fS0dQ1j3UKdXgMHSlm3oWkFalZxnyFPttUiOQQSUCXGstS2esTEohUbW3G19xqN5eTx2hSuUsm4ebGsC0XjdZ13WmodZRtPqsBdfaq7aTqg3+AhFbIRpJZl/8zCJAlJDPa1kCbSIYPlsOQl8tgegn4NMs8Ajp9eCUmiWxFdQ2m4K1AjDpGmtp6meUvmW93ys9gaSVbSucT+6a1TXaedv9ouszTb66R8l/7GkIH6lWaauFIl75C4z1B0lRPL0jpl/8wiNrZMItf7Wdx+U8uxHCjItCiWT7xQ14q95ufY8fgFbvtSjsUL50UfZSpN9SbiUM85PYxfHT6vWhRyAPebJLP1TkxvbhuspnYPnN+JGoeU/qepUFPnHfXzk7/pd6M0AwXOkaT3DBTJ5tz4pjMjx/SKZ7maempqGr1O1QeIx71aT8dRF6iugfM+8+oDpejgzQP0MPiWrt55rIj5ztaDPL3Xrdkfbk1detKtXql5j+nStG3Fk4P9vMd0Yj7Z/4Y0R05XanxgHMltHveZyGc/QVaVEsvp89FrnFp96e2Bc45yoLfNov5+GBtbEftN1P5bQ7EcPo0ox0J7zraAWM4UOA8eO55+akros4vU8u7VcY64jfTYsn8DAIAyq5mmaQAAqhGJGAAAh0jEAAA4RCIGAMAhEjEAAA6RiAEAcIhEXKPCT6Xxru9Lf6INgBwC1xZnix//2tn87waWuvdArnEW7QlCyWv106+hDt+usjLuTtj6kIirlQRWTJDK7d7ye2A6gCgmGQbuozxPbswRvAmFTW7jHvNeeg8qiL+hi3fjGXkkoydjnDbx++P07qucbZx+Eg1/7t/cxkvy9jvyCEfDu1GHn3DldpXBez77D1sgIZcXibhWnVjEB6YDrVD4Hvfz1YQe+s0V/hODdK3WJLcharr/HXPPZZ3osj0JSSfZi+RhIYH7lpunA63wb5+qk+YlkvgDTz7KNc5cnv2Zl2hPm26XwxvS75M+ZFrqs+mneQmZFrTyIRHXqPSm6bD023KmlbhDt/qLL+EDrYPcn1z+tQ90MU/k0tIfySfJOu1e0En2/uc9/fuba+be0fpf77Gc9t7WPYaogf5tNXONMxd5RKH9M1/9bpyuixf+PKEcSMSt0bpu6sJA6XjZtK6pErckYfN8VP/z29VA7xOgFfMf5mIffGCe7auFnqMd/5AI8wg/LXTKKDgeP7mbJ4T5/AJA7qdARUomcu8e2fnVcrupnvKb0LKhlEjErVHMg73XPzVPqUsvTJXy9TfNQ/qBVsw/l9ozGRvyEAn9jzxT2JzjlVam1LnfyuE9W9l/QL45J00rV8UhEbdK2R/svapxOZ28gAA5zTNYzu2eNj10blXOIcv5VJOMJQmfNsE7j9wj8IzrCPKIz6SoWnCoJurXxHXNuQUF4o6jHrKtX9LonOucc+7HP6K4SMStUK4He4cOFEArJj2n/SS87MbMRzOGOnSdp2ucksBCTcsp/vng0LOW/fPG9Tp1+83IK5brVOjzzxtHJXe/2TpMCtN6jMlHfobIoxzl37hm52fnmZp98Fw2SotEjNCDvc1D2ectzB6kQCshSVguI+p5qS60RiThsAY10bQs9Uw9S9m/dte/zDBwvtY7V+v3vO5pn4stz901XbfUOPubhiu95u5sSbFbvUntauqp9lnGeprm0qdkhy9pMk81Rfvjy1ZYMJc+2d7g5pngKAueR1ytJMiT1wamyGUIctmSBNRF6vZkU5ocVOYN9j7zgjN1PmvIpRPUav3i9oe9B+knm+Isf5xA65H9nG8yHkzHxlQhVhLqhMcf8h6EL/wYDdWmM8ebHl9+ASApS23cl/F9c0mV9xB/adq+d9jg0LXCoc+jjiNyeZU9FqA8SMQAADhE0zQAAA6RiAEAcIhEDACAQyRiAAAcIhEDAOAQiRgAAIdIxJa5kF0uvg8+GzQXuY4w7vvyec4He8t1hd6tJp0+dsy/+UAve2OAXPwnNGVb/lyfF0iulQzdHMGXnO/iTQsAyolEbBOh3PzC3KbuVqUuyjcZ5SPmVnJecpmnhthb5A2ZL68LmbZcrJ/nDdz9xBhxw3czH/OH2Fv1DVHz9PfiHgxuvn+JUrcn11e4EJHr8yApAGVOS7aJXQ92vuVmJGb+Bs8LJFy9/NNWp57daqdFQgZQTUjEctP1HhPU7f7t3A4cqR5K3pWmdCQBjVPysO7UtOS+tfMvXZ28vV3RSK3RPNrQPtw8jblfbvLOPf3UlMcnKJXtNpc6Md6xMnDnHVlf+vurp9nkl+vzQsm9eE+bnrrz0IlT1LJsd/0x226Zmt59qroopiABAJWERCxCN1lPl2o6zv34sOBTjeJqtuvVwnnL1ZDBmem+46gL1BD/IeBSGwwl5WANWOZLbl0n95mNn7f1aoiaX6TChTwmcXn6fWrlHrpqnlqop5/r82Yp8Lmo/c6LKUgAQIUhEeta1O1SC9XJM7P5VJLdHaqn3/S57HalLsme8BquHBx4qpFOPaH70AbJE1WyPB3FPJTbPgTcPpklkp7XIaaGK/e39eat6+ro1NPxxH7RNcgsIpNpgHlSTAY9r95zz3N+XhBdA5Ya7uBCnqEqD1uPLVwBQOXgXtMBcm7Tf9qKeViCNOnKudPADdfNAxEaL/DekxqrnAs1TaWStOV8b6DmGfo8yE/wgRvEJ3k3aV8+fpmaotKnL59dpNSt/u/SX4dt3bpVHX744fZV63Pi2WeraT/8oX0FABVKEjGCFicuP2RYYnZTIvHGrGGJYbPesO9bz1yeOOSKxd7fTbMTw4bOTphvBP/2Rb1nvJGYPdSbRqbAZ8FpGem/ixtPlFzfl2U/JHH5M/ZlhMh1Ehhvrs/TRX9f5uNy/f8Isk6Tn2Ubb8zvAaDC0DSdoZ8aclqqGTX0EO84BTWHygO9l6t5T0U0Ja9bqOat0OOKqOGWltTSxymV45GHHbt0jVgn0tTuzXOuz6PkvY6FeaarbbrPRh5sftqQopwTB4BSIxFnWK9Wr/T+6njyENXT7zhlNcyfF9nJykvgOgEEzjObc63273SmQ9EtF6Wd91yv7r1kqlKXXuglka49Vc9gR6Vnf5b2XNEikSZ0ey48KglLk33y/PmJQ9SQx+4Izff62XekEl+uz9NEreP4RCpJ3f4ZSRcoxq9OPZwdACoc54htTTD0aOzgg7jTHpydPH8sMs4Bh8fVUycTtbJnxDliS36f1qErNH7NP29tnDZBTVipxx44Jxx8iH/uB/hHnVOOWH7Df3i4d85aOqGFljs43+kPEs/1ebq0dRx6cHnsOvLmLVw4SXs4OwBUOBIxAAAO0TQNAIBDJGIAABwiEQMA4BCJGAAAh0jEAAA4RCIGAMAhEjEAAA6RiAEAcIhEDACAQyRiAAAcIhEDAOAQiRgAAIdIxAAAOEQiBgDAIRIxAAAOkYgBAHCIRAwAgEMkYgAAHCIRAwDgEIkYAACHSMQAADhEIgYAwCESMQAADpGIAQBwiEQMAIBDJGIAABwiEQMA4BCJGAAAh0jEAAA4RCIGAMAhEjEAAA6RiAEAcIhEDACAQyRiAAAcIhEDAOAQiRgAAIdIxAAAOEQiBgDAIRIxAAAOkYgBAHCIRAwAgEMkYgAAHCIRAwDgEIkYAACHSMQAADhEIgYAwCESMQAADpGIAQBwiEQMAIBDJGIAABwiEQMA4BCJGAAAh0jEAAA4RCIGAMAhEjEAAA6RiAEAcIhEDACAQyRiAAAcIhEDAOAQiRgAAIdIxAAAOEQiBgDAIRIxAAAOkYgBAHCIRAwAgEMkYgAAHCIRAwDgEIkYAACHSMQAADhEIgYAwCESMQAADpGIAQBwiEQMAIBDJGIAABwiEQMA4BCJGAAAh0jEAAA4RCIGAMAhEjEAAA6RiAEAcIhEDACAQyRiAAAcIhEDAOAQiRgAAIdIxAAAOEQiBgDAIRIxAAAOkYgBAHCIRAwAgEMkYgAAHCIRAwDgEIkYAACHSMQAADhEIgYAwCESMQAADpGIAQBwiEQMAIBDJGIAABwiEQMA4BCJGAAAh0jEAAA4RCIGAMAhEjEAAA6RiAEAcIhEDACAQyRiAAAcIhEDAOAQiRgAAIdIxAAAOEQiBgDAIRIxAAAOkYgBAHCIRAwAgEMkYgAAHCIRAwDgEIkYAACHSMQAADhEIgYAwCESMQAADpGIAQBwiEQMAIBDJGIAABwiEQMA4BCJGAAAh0jEAAA4RCIGyu3ZiapXr156mKga7FsZ1t2rzpTvXJn1G2FmnHmMr9eZ6t519r0IDVfm/g6A4iIRA2W0fvaZqte0nmr+sulqiH0v03p17yXzVNfTetrXuTXMn6eGTJui+tnXIZKkT12uLlg2X03oYd+Lor83Ts9V9vkCUAokYqCMVnW5QC17eKTqaF9HWT/7IjVvyO3qwnr7Ri66tnvHygnqwhPt6zTrdWqdvyxLkk5qUBPHKzX9RtIwUG4kYqCM+p0Ynw4lqV40b4i6fVRcqg5ruGuq6jo+e3LvqKeZa2wNV45TKluNGkBJkYiBiqFrpafOU0Nuja8xhzWoeY8NUUOy1IbzIc3l49R0NaUF4wDQfCRioEJ4tdKH1MgD7Rt5WD/7DrX60gubX5O1NfD5N1IXBlwhEQMVQWq2Ss0bL72WvWHwLcuVemxcTC/mBvWzW7qqCwpoxk63/ql5avmKqWqwnWavXuOUfkdNPVX/nW+PbQAt0iah2b8BlE2DmthrnhoS04lKmowHN16glmWprcrnF6nb1UN5J+L16t5hFyl1a1ytW+brDtXz8cJq5gCajxoxUJXWq4XzlBpycvNrwwAqAzVioBqtu1fdu3qkGkkHK6DqkYgBAHCIpmkAABwiEQMA4BCJGAAAh0jEAAA4RCIGAMAhEjEAAA6RiAEAcIhEDACAQyRiAAAcIhEDAOAQiRgAAIdIxAAAOEQiBgDAIRIxAAAOkYgBAHCIRAwAgEMkYgAAHCIRAwDgEIkYAACHSMQAADhEIgYAwCESMQAADpGIAQBwiEQMAIBDJGIAABwiEQMA4BCJGAAAh0jEAAA4RCIGAMAhEjEAAA6RiAEAcIhEDACAQyRiAAAcIhEDAOAQiRgAAIdIxAAAOEQiBgDAIRIxAAAOkYgBAHCIRAwAgEMkYgAAHCIRAwDgEIkYAACHSMQAADhEIgYAwCESMQAADpGIAQBwiEQMAIBDJGIAABwiEQMA4BCJGAAAh0jEAAA4RCIGAMAhEjEAAA6RiAEAcIhEDACAQyRiAAAcIhEDAOAQiRgAAIdIxAAAOEQiBgDAIRIxAAAOkYgBAHCIRAwAgEMkYgAAHCIRAwDgEIkYAACHSMQAADhEIgYAwCESMQAADpGIAQBwiEQMAIBDJGIAABwiEQMA4BCJGAAAh0jEAAA4RCIGAMAhEjEAAA6RiAEAcIhEDACAQyRiAAAcIhEDAOAQiRgAAIdIxAAAOEQiBgDAIRIxAAAOkYgBAHCIRAwAgEMkYgAAHCIRAwDgEIkYAACHSMQAADhEIgYAwCESMQAADpGIAQBwiEQMAIBDJGIAABwiEQMA4BCJGAAAh0jEAAA4RCIGAMAhEjEAAA61+eSTTxJbtmyxLwEAQDlRIwYAwCESMQAADpGIAQBwiEQMAIBDJGIAABwiEQMA4BCJGAAAh0jEAAA4RCIGAMAhEjEAAA6RiAEAcIhEDACAQyRiAAAcIhEDAOAQiRgAAIdIxAAAOEQiBgDAIRIxAAAOkYgBAHCIRAwAgEMkYgAAHCIRAwDgEIkYAACHSMQAADhEIgYAwCESMQAADpGIAQBwiEQMAIBDJGIAABwiEQMA4BCJGAAAh0jEAAA4RCIGAMAhEjEAAA6RiAEAcIhEDACAQyRiAAAcKl4iXjJZ9evXLzSMnbPBfujSBvXAGJmfyep5+07x+OMeqx5Yb9+qYhvmjA1tv/ShGNvz+etlXLnXlz8vLvYhbx77qclL7BsVrbb2wXjPq8lmX2xGLNvjU7n2p4L2oYxjZ/q2bMFyV7rQstfg8uWp5Yl4/QNqrKzEKxfaN1Ia75rRjBXbjJ3On4cxD+jDUrq1auVK+bdJNRX9QOWPu1GtXGveKEA5gquQaWxQixc12r+jNS5aHLF+C7FBNa2Rf3Ovr7WrvHlpXFXYim15EvXnsVq0ZB+sMut1DJs/Co/lDeu8Xxa6PzVPah9a+Ex85Jn9NePY2aimjwjEbAuWu6LJcTu07DW2fAVoYSLWB/oR0/VuIwaqKQ0NqiE0TFJ9zGcFSO50BVi70s5DFWnOchaqoGnUqbNmprbdlEH27UFTUttz5ln6W+XR5yo7zasK2YOqLYkWQx81yW6fSX3tW7Wq41lqhlnWGeqsjva9qva8WrTA+2vgjXZ/Tw6BY2fNLbdnQ8Mi77idPMbU1vIVokWJeMOcmcorz0gSbkbSBYDWKllQrlfdO5s/WhW/1QtKtfnkk08SW7ZssS8LIeemhqvpK/VudN5cNWNE7rqSnPcbflf6yveTeGp8GaTEFFkzkqbXibYwEJaaJ/879aq+e6NqDI6/+zg1N1nLix5X/LKlfiMlWq9Gkn05vO/kt5zx60qTZp1ka0SAGUfnZqzLMGkymyil9Ty/78m2bJnbuL57vd4WwbkPF+Yyp+//tl6NmzNGrRzhbyvvd50j15cIjzdd9Hr2JLepnMeSJjQ9L3O7zUx+P7lvZNkWqX0nNe8Z+2Bo/nKtvyhx+2Cu6YUl10WWuIjdfwO/SY4nuO/46zD5vfjtGbmsyfUsv/FrT/nFd17bWeTalv5yBOYh+74a3AeiBI45cXEWu9wBOqbqdUw1RqzjQvYD4S9TcP4zt2t+6z5Dch2mS81Tcp2GBOfZn7Z+b053NdPfZnHTzRmnhS53AdPOoQU1Yv/clFKdDkzNcOrEuzckO0folTDJBIKsTK/5Ze559fr1QjXxejkbUqfOGj1QvplG73wndda7VJQ+aqwZR7qBakA/+2eS7CiyI+tpzxmnx6qtnK5m2HOJz1/v7dSyAbxmkil6LPpXd00qsBNMuInXDDd6y7VwlpzDzmM5c64rPb+z7caXnSM4LbOjNGddFsGSGfYAnZpvb8gMeEnCcgD017Ms28y8OtLI+TMv+M22tOOuGzHGjies/rwBqnO27Zdcz3qOzbz46zmLBRNTAam/6wWqDkobiP44/P0rc9/R+6DSwWrWyVw1rru8l9qmhay//Mg+748rtZ4XZTl/nlyHKxepxf58+7U2fZAZq5PV89d7CSa139nl0LE0qVkdoaK3Z+EC6zYZ34HlCEjf1guv9M/H5rEt+06yv9PzPVv/Su9DMyVhyEE4mUjrVKcu9s9YfdQke2yQfcs7ZubXZyTZGinT9beDWQdRCtsPCqfH38XfH+z44/aHvmPtvh9Wf95Ys+0lj5gknFw2/1RZIFaS9Htmm9nly5oIC4nTfOU77dyK12taq+s3wAuAAL9zROp8wIBkoCW/v6bJSw56J08Gkb9wct6gb13WBawbMSOZ6FIbbpIuNWb+YuCNtjTZ8Sw1xj8Havjnaup1Avd/10cNMN8pQieYzt29ZdIlFzOqHMuZ17rypb/2NWNdFo8+eOfYsaXA49VCshWmYpjt7NcMfHKu1E9uqWCbMaKPqgt9LyV4jsqvEdWNmBx5kPCZ8QZrLksWJQ+IkqiM5P7VqBY1BLeOTjbX+cEaKCxlbMPc6y9fA2/0E5u/P+uxr4vcY7TMfd5fR/UDTtBznIqTcaOSe2ZyOZrdmS9yexYqsG47nqAGmG0YEbuR29ompTy3ZfJ3C2aqsVfbg/voZh6EJU4D+605uEtCzkg4QamOlanpZit8ewrbDwqljy/JmEjFc/aOcXpedWUlvR+KV7CNWjY91lH2WLZgUWZBxfw+RwGuoDgtQD7TzkMLEnFn1d3uPMkNmuxUkFmzSJ4PSJb89GBLKMkEVVLR52HMvCfP1Ujp3M6bHvymkYJ32FCX/MBy5imfddXnqlTJc7j/ndjgLY6oVo9kb3V9UPGCK7geo0v4fitKUL49Wpt90Muivltwx4ipzQSD2PJ746ounULz1LlbroORFlFAy3f9NYc/T3H6nOQdzL3evv5BcaAaIwfJZJx0Up2CSTN9OQpU7O0Zuw1DUt+TGM9/W/pJT2qa+p9Acm8eLzGFjps6yeeupTXv3HI++0FL1B3YyfsjWyUhlt/SmrZsHfU+Z/5IL6QGC4XZtShOs8pv2vloQSJO7cSFlIRTTb/BoeUliuLwa47hwT9XkBc5D5E8h2THkayZFiZ+XdnessFxS+IucTI2LRDp8xRokvF6O6eX8IuXTEqheUFYGs7XX98BXgFPah7rF6tFJtEMqJD4LJ2ogmGc5IFdRNTS/F7/BR07tFQtPZ9aWiu4ZK2VaFHTdLK5II/zQ35Ju5IOeknJpqwiNAn6l1INGpNqaivw8qqC1pXfCuE3zzerFFpsfgnfPx9VvKbWYoouuRd2CVTylEHoYJxqXgvXttMOnP5+0b27CldsXK4/v+mySS2a7TVLDzzJpuFknITPLyab+DOWIyWUuFwKbetUU7vUvvLeln7fgu7j1BRTg823f0M+MvveZEpVgoLXKZd6HWfv5RzeP7PVPvOTOj0SKoj4TcvprTF5KixOw8rRu7tl54glCdgE0HjXcNuU5g0ZPRSTJW1pbvVL+NKrL+0uMskmCF0TyLd2l2waa26HkTp1wgAZg9ckmOxgJk3MhdYw/XnRyynjkV54kT0E45Yzn3Vlmr/91/qzWXYawebB5qzLFpHehKn1l7q8rVwl98AB6so8apH+ejbN+/r70prRz3ZGylcgOU20TfTJDk167KZJN2Dhld76MU38dr9INc26Xn8er4DdqBYukBgeqAYkm139OJHlsPue3g/9WPeXI1nAMS00D+j9NuJ44Iq/rc269jpoqu4D1AlycM9rW+pYC5wX7mM7uIU7/EisesfB5LEkUup7qcHOU2i9Z0qdM02dvirmOk422erj+tg5D5j9MrMXs887bspNdOR4581H85ttkxURPW1zY55kK6Meq+3QVbA847Sw5S6elnfWMp0N/JJ7uuDGkKZU/3t6ZZidR1ZE+kEm0HnH7mTxO7OWPOnurUD5TerOSv657HBJyl/hfqlTmlz98zPJQoVs/Ngapj/uwPkMPS+TA+ORjTjwRrvcoRpD3HLmXlfyTTlYeucSUztU+JKEZqxLy18/cSXFDHIg0uvDX3/JA/SN/uUhfqIMn//xD9zBaWWffvx5seQByl9vkXdb8+n1nGza19+X8/CDpmT0b0iKLOFL7dU2Jdvz9V7gpm8LoePhvIFm/fjrJtVpTcu5/qJE7INJ8esqq+RBS+YvfOBLxYnd9/zCRHAek+e6tQXT9b4pp2myHyPynsdkwTIcy56o91KS+9h5U/S2kn0jlfCmJE+t5LEt/Z7tyf4Cfozp9SG9qI1UgTBeqmATJusrsO9ELbdUgkKnvPQ8+q1iGQrfD4KdFhvvmq7XlR5/1lNsA/V+XW8KmX7SSnaMjZE1xiWn2GWRcfr9YyRWMpv647d7Sn5xWthy5zvt3FpwHTGA/EjNRwpLcoBtae/gcqi2+YXhX5+rCwnNvZ61MH6rQjiZoXAtrxEDqC3JWp9tskUV0IUne3rKu9QM1YREDCAgdUAv/mVFKB6vP4E5hWYGacHQb+va8OQCe2rDPZqmgXJY/4Ca3HCCmlQFB0npSDbjwBktvDYWJec3RRuOTiPoeZisJrGvtBCJGAAAh2iaBgDAIRIxAAAOkYgBAHCIRAwAgEMkYgAAHCIRAwDgEIkYSGceqBG8X7nP3qS/LA/QiGPnI/nQDwDVjEQMpHn+Ge8mCRlPcPKfzxvx/Nny8h+V15ynMvl3ZMr2dKpcnwMoNhIxkNXCMj0+sozWN6nYp9bm+hxA0ZGIgTgLZtL8C6CkSMRAFvXd5SmkwefMRkm/+b43JJ/7bM83p56LHPh+xnu2Odj/TdqQ81nSkb/zzyPb88r22a7J5zXLYGr9uT73yH2ow+OXIdCM7c+D/k3wu/k+BxtojUjEQDYDxngPCV8wMaLjluf5670HzMtDyxsaGvTgPQC/8a5JXgLsO8C8lpO65nRusOk3/b3u3VVnSYj+4+yS4/SGzIeiB+lkbh4AIDf/t78xD1fXBYmrJeHXqbNGRz04Xn//JJlqrs+19Q+oSXdJmpbnz3rTmGseih/RhK/X2XD57qApecw70LqRiIGsOquzrhunU5FONbP82mvQ82rRAvm3Xg3o5yeaPmrAIPnX70jVWfKrppOtTswbGhbpT+rVwEEy1uB7eixpz5FtXFVAT6wli0yBIPQM4fRCQN9JqmGOtzypZDpDndW3zptujs/9+VSDBiQfAl/Xb4D3/TVNGetn4I3691fxuHggFxIxEKfjWWqMJNaV09WMBu+tpGTtVtc6R6Saaiea5KzT7DpJTXXqhAGSqrzEvHaVpLJOasBJndLe0+8eKOlO10xt8pdaZb5NuxvW2Xq2ns/h9jf9+nm1dT/ht5Q/n8H5SjZl+8ne132cGsuj8YC8kIiBHPqMsrXiu/zzp+lSTbXBwW+OrTtQkq4k5udV0xr9hzRB29pq8j39aoCfuHTynyHjME3Lnsa7hud3ntU2BYeH4j6nNr3J3BsmJWvJAApDIgZy0YlxsjkXmqbjCWpAoNk5K5t0G1ct8q7/7dJJ13u9Juvke+b8cBppKtZJzjsPK9/N3lQd10RcLH1O8goGBTWZJ3ETEiAbEjGQh7oRY0wyDUs1O0vTdKindKjzkj1PvGCh17Grm6TcOtWpS+C9wPlhr7ex3xP5eTXDdJDS4pKsXygwTdOpZPf89Wl3COvYSXn18yzXSMd97p9zNk3T/vxJgs0nuaZuQrKooVRFBaA6kYiBLLxztr4+apLfVByovdaNmJGqsd413DtvKr2XQ0nTT9gi1bHLr2EG30vxLx+y53m7j1NzZ55lk7XfAaxedU9Wo+vUWTPner28bcFA5kXOV3vnqn191Fi/dm/P9YabvOM+1+vA9gpPzd9wNX1lxB2+TK0/Wni9AmjzySefJLZs2WJfAgCAcqJGDACAQyRiAAAcIhEDAOAQiRgAAIdIxAAAOEQiBgDAIRIxAAAOkYgBAHCIRAwAgEMkYgAAHCIRAwDgEIkYAACHSMQAADhEIgYAwCESMQAADpGIAQBwiEQMAIBDJGIAABwiEQMA4BCJGAAAh0jEAAA4RCIGAMAhEjEAAA6RiAEAcIhEDACAQyRiAAAcIhEDAOAQiRgAAIdIxAAAOEQiBgDAIRIxAAAOkYgBAHCIRAwAgEMkYgAAHCIRAwAq2tatW+1ftanNJ598ktiyZYt9Wd3atGmjtt12WzNss802qm3btuZf/zMASMexofLtuOOOatddd1UHHHCA6tSpk+rZs6c6/PDDVe/evVW7du3st6pXTSRiSbzbb7+92m677ZKJFwDyQSKuXoceeqjq37+/GjRokDr22GPtu9WnqhOxn4BlkNovABSKRFz9OnTooE4//XQ1dOhQdfTRR9t3q0fVJmJpqthhhx2oAQNoERJx7ZAm61GjRqmRI0dWVW6oukQsNV9JwjIAQEuRiGvP97//fTVu3Di1//7723cqW1UlYinh7LTTTqYpGgCKgURcm84880x12WWXqW7dutl3KlfVnFj1a8IkYQBALg899JCaOnWqeuONN+w7latqErF/ThgAgHw8+OCD6s4776z465CrIhFzThgA0Bx33323mjVrln1VmSo+EcslStSEAQDNde+996qXXnrJvqo8FZ+I5ZwwlygBAJprxYoV6oEHHrCvKk9FJ2JqwwCAYpg7d6564YUX7KvKUtGJWGrDXFoAAGipDz74QC1YsMC+qiwVm4glAcu9owEAKIannnpKffTRR/ZV5ajYG3pIEt5tt93sKzc2PnGTmvrMJvsqYJ+T1YSJg1V7+xLaW/PVTbcuVb0vuUIN3te+9+Isdfn9So24ebTqbd/KbqmadfkctUL+ZP2WlNmvX+7NOrZodWtd5syZYx4SUUkqtkYs54fd2qiWvrxJ7X3SBHXzzTeHh+/lTivp5OB3+b1L7asatG97fVDX//lJuCAb1fwpc9RGf103Y/2ixKRQNWW+3lJokVmvqkQiERjeV09dbD/zXfyUel9/9v7Tl9o3Ml369Ptp40moV9Ov0LHTynhfXaqeel//ZvkM+zqGnZd8xxE1X4nEqypqSjOWe59njru0KrH3dMUm4oruKW2SDsJ6q9F51XwjvLVULX1vb9W7t12rrF/UIJN4RvW0r3x7qv63hhPVjHP763f1J71P1ekujU2uU0+Sb4T1/MZToe/P6ONNq+eotER48anqSPl5j+MiE2TQpacdaealZ5+0bybHMTRQkLhUndo7c770r9UYScihpH2p6mIL7RnjLrHly5fbvyoHiRgASm6GOq6H99fy2W1Mc3hqOFiN9T6KJ7VTP5FvflpNCI1DD3udrG7xPk2jE2E+td8iCi3jbJv4QknbnZUrV9q/KkfFniPea6+9zEZ0R5pLp6qlh01QV3w1W/3M+876w05WG595SgXPJvc4+2Y1+gj9hzlPas58hh08Qt080qs/Rp6LTn6emo/Bb09Vc171Pk6OP4P3/afesy+t1PftPHfooVa8mpqvvU86WbXXy5B6p0fq3K45/xtePiHN9sl105xzxFnGGzxHvPTey5PLnBRYd8lpXNJRzffHlfUccx7bS0Rts+Q4U9vDX/bk9ouaL1n2yH0gsH7Tyffnd0xbBu8cugruV/NlLCvUitC2Do83at/ae5+99bKnzhFHrmN/PHlso/j1pRW6/GVWluOMJNFbpaa7WT19yV7q5Nvs+xGk5jxGkrYk20ByzfZ+NsnvG4HpJudluZqZoxAgTc2m9r1ipmrTM/DNyOWR5uqpqr/+uiTig0ebb2pR76feyxh3ibVr10699tpr9lVlcH0iNiu3SThl0zNT1eXP2Be+4AFXW/HMen1QuTl88Js/X208Qh+IjhitbtYHTvPe24NDvzP0gW6WHv/Jl9ycSmDmoDtfzX+rd/I9mY/5cg51ZOrQHGXjE7PUU0ofBG8OHMTNQdvOj31rhZ7bm/WB0DAHSkmi+iBvpmeTzYtK9ZaD/r6D1RV6fCFmnEvVxq8GplMof7xRSVzoacx5O21ZbEKa9WLvQEFkhZpzqyS91DaIE7u9ZPw6aYQLOt76+MOLg/V77VXvw/ZWT729Xr/vzdX6tzepHgfrlPj2Rv1N792NG/RfBw8201j64opwoaVY3tPJTc+n7F8ebz7nP7FR9TbTWqr+oJNw1LI8ZV+J3iPT11tw+9ttZLZ3euFA5FpfJVz+anLbGrVB76N76v/6n6trp7cVmngCNerf5U7CQZs3b1Z77tnc6Zbe5g3lbSp+99137V+Vo6KvI64EkZ210pLp3id9LXQga1+X/wFn49KlatM+vVXvYALSY+t98Ca1dGmga4yuYYzOeSCzHcwO6x0+WB7RW/V4b6la+pZ9re3doaP9y5fZ0cokkzjvrVeSjkrFHMDTl8WsG51MXwx3fOtxdv61q9jtpcer04pXAEnykq8/TfP9V/X6NK908n17b9XxFFnH/vrwtkMPvd59m17WhRb7d/FkzufgwT1S05Jl0fvN1yKWJR85t7/IY32J0ix/NRmrDk420Y6J7cQU6eIuqs78sVlteMX8kezsFBwiOz4tfUQ9vVn/q6db7o5Rhn8+OTDvShcl1gSOR61dxSZi2amqWiFJ6r2n1NTLL1eXB4b0psLMhJSdqcWHxmcvC2oBab4MjTOjqbHYJMHZpJemY4f0RJKeCJohtL10DTu4rHoINe9KwUbmTw4k0tFMCgf7dlQd91lhapG6jqzWv6eTsy3Y9B45QZ2s66D+Np5lvlNCdlnySqRCWiQCy3r55ZmnNuLFr6+yL3+lGn2watNmgpcUjahOTPkb+3xmTbKuc1RP6+Xq5Oue1mlQTzGtQ1ep9BwVKCCYJmxtxSOxTfLlIk3TlaZiE/F//vMf+1crIE3d6bVuPTS3KU+aCTPHl9bsWwBpuvWaiAPjOzt58qmksiYT2wxcEnJ+M7is/pBsCQm0WLy1Xm3qYC7cMrVAM7+mJhps5dA11Yn+eEYodb8kpFm2Ru3aUjXr1qdU+9A+oxPnPvbjfORcX5W8/OV2izp5L68T04RnbEbOpxOTNG2bP/ZUdYeaP2xi98Y1M1e5+LaT1SPynT37qzGneW+Vk+m8VcbzwHHat2/ecbWUKjYRV/rzI4sl3MzZUjoddMhstm0pOQeaXiPPu7bVbN6ybDLnYsOi5qdodM1277Rm/ChSK5d5M83ntplftqU0wS7V6yb7/MllXiN0jdqvPefprfwKHma77KNr5/pvs2/lapkx401vUZAavf0zlzzXV0ozl78G3dL/els73lMdeVqueupytcHm7eZe7jP2blsrPsnWUItig1oTUctN7xme6riVMran99le/Qs5491y3bt3t39VDhJxOUXV4kwz5wrTwaYYeh+ha6qvSkcv+0aRhM7xmQ5mGf1oi673KServdOXRU97/quBa46LbV9dk91nk3rqyfjCTPvevb15ezt4/bOXlOa/vCmyST0s1XSdISO5bVTzfxnRc1mahEM3ibGdswbbDlVHfE3XbNP2rchtF06KS+/NciojKqnnub4yxSx/q9FT1dmMuGFtrmSka9K/S51jbta5Xl0rvt6vhefplrVePTz9mmP/+mK1eYMuIlSXnj3Tr+V2r2IT8b///W/7lyu2RpZxvjXPZjVbK/GZA3fgXPBNyYOjV0NonzGdZjbdSS/ts9urp24NjksPLbirV++RugYTPI/9S6VGX6KTpP28ZKRXdfqyRPWuLobk9pJm1Anq5LfnpKZphpvCBQKbgDa9p/cTf16S74VrmNK0Hx6X3EVsdPZl0Ms9+GCd3JLLPVWtHxzVXNxDndxhftp4JwR6L8uypO1bsu2CpxX0tEaftLdaYZqLvWHpETerEQfbz322wJg8F5zcn3Kvr4KXvybZO1H5503NMEanYrFcPRdRY8ww+uBkc3boHKweUpcpxbul/yOFJc7Rz9nv2/PZdvBvKLJ56eMF9eBOSa2PuDuIlcLhhx9u/6ocFXsdsTRZ7L777tzYA4hiLjnL9z7eiCPHmnJIXpMbknldcfJ72a4XTl7Dmy58XbB/HXH4ml5N7s4lNwbJ83pkuXTq1WShIWXzMxPSmpX9a4NzXyst/PnLHE/p9OrVS/3hD39w/hyDdBWbiMXOO++sdtxxR/sKQBKJuGjKlYjh3n//93+rq6++2r6qHBXbNC0+++wz03QBAEBL7LHHHhX31CVfRSdiOU/8r3/9y74CkHTE19SIs8M3JgGQ3fDhw9Wxxx5rX1WWik7EQmrFreVSJiB/7VXvI0rUcxyoMdJT+qyzzrKvKk/FJ2JqxQCAlvje975Xkb2lfRWfiMWnn35qBgAACnHuueeq0aPzuT7MnapIxEISMTVjAEC+vvWtb6nzzz+/4i+DrZpELPeelmQs54wBAIhz5plnqgkTJqj999/fvlO5Kvo64iht27Y11xZzfTGAYuA64trz/e9/X40bN64qkrCoukTsk0S8ww47cOctAC1CIq4d0jt61KhRauTIkVWVG6o2EYttt91Wbb/99maQmjIAFIpEXP06dOigTj/9dDV06FB19NFH23erR1UnYp+fkLfbbjtqyAAKQiKuXoceeqjq37+/Gjx4sDrmmGPsu9WnJhKxT2rFkoglMcu//mtBsAGIwrGh8smpyF133VUdcMABqlOnTqYJWq4L7t27t2rXrp39VvWqqUQMAEC14cQqAAAOkYgBAHCIRAwAgEMkYgAAHCIRAwDgEIkYAACHSMQAADhEIgYAwCESMQAADpGIAQBwiEQMAIBDJGIAABwiEQMA4BCJGAAAh0jEAAA4RCIGAMAhEjEAAA6RiAEAcIhEDACAQyRiAAAcIhEDAOAQiRgAAIdIxGX3vJrcr5/qZ4ax6oH19m3HNswZq8bO2WBflcn6B9TYMQ+oMk8Vea93va+yfeKVYh9eMtkeH2SYrLdC/p6/vp+avMS+MMeawn4PN0jEZbZhzkzVdN5c1dDQoIfJSl2tg60CDnZ1B3ZSnQ6ss6/iFS1pd9TT7NJJ5TdVFE3Eeo/cpuubVJP90z1JKoUUXMuUhPJdl3nboB6Y1aTGzZHjgwwD1CJJyM06RnRW3Qd11/9HpSMRO1Wnzpo5V41Ti9Ri1zXjvpPUpL7277LpoyZd1cf+jfJhvRdPqdelHn+DHCOmqxnJmm6+9PHlqrMo6FYBErFza9XKlbpU3TG6JC3vpZqaUp6/3tYOpGlMl5iTvws2a6WXogOfyfeT49DSpy2vk+PRgz8P0vQ1/K5G1XjX8OR4krJMO7UMtln+eltPSWvW878n0/DGk1YDipn/lKiakH4vOR07DxHjzxifTM+f1xBdaxnjj8MbQtvIbhPzmf59cBtm3W7B36TPf9w2TUpbbjO+tNf+b4N/a7HbVKSt96yyLYO8H1qPsv5S6zrrOokRu6+Y8UxUC/V/E6PmJWoeRfCzQrZbHutS3g/tI1r0/hulTte67Z+azJc3/958ZhcRC6Hl96Yv40tf58FlR+mRiB3wg9QbFqkBDZN0uVeHW78BSi1aHDjQPq9m3NVJDYisqTaqRVfrgLxaqckNDWrGCF3ulSCb1V3NNU1aehi9Ug33A1U+u1KpKfazyWqSmrjA+yiD/u6kRQNS49HD2M4yV3pcJzWouefVq3rbvD75wLWpg3u2aWtNs+TgIcuqP4upQSy8sp9apKdhxnFjJzX96kDyyGv++6gBgxaqRYGDiDkdMOAEfTiTA9NM1T3Z7CenBvyD4QbVtMZ8PS8nXOePQw9zxunl8w/Gehoj9HL60zhpkTkwp0RsN/OblWpMcnzd1cxg0oxZrymdVffuTarJHtg3NCxSSr9Oroe1K5Uy6yBdzDYVK6er4c8M8Kata2YDFk2KTh4yn8FlME2qNgnoaQfXQKaodZJbtn1lw9pOejxT1ED9n7e/6Lgy6yFmPTdru6XLvi77nDRQLXwmsN30+pq5ZoA6QRfAc3teLVpQr7p39hLk8FVjvHm08xmfjAMyttFkdYJ+u7DjDkqBROyAH6QN5mChS+3+waDjCUofvlLN1EsWqYWDBpgkHaWxiw7ImammJ3PwDR5s+w5QAxcsksOD99l5Y5PjqhsxWY3rbl9EWblS19VT6jrKWPuoPmnBWde3j5le3LRFo16yubbAEUfWTbKJXMZh56OQ+Q8f9DaoxTJr/fScmfU5Rp2VPPjVqRP0MWj67DwPZEl1en3YP4WcJ/TXV/o0+k5SUwbZv6307ZaxnQP7Qa71muIty6IGk4r0MndSY0Z3Sq6H559ZmKUPQPZt6tHJLFlwkppZo1oZ3DGs9O3jF4hm5lG7FRnrJA/Z9pXw/Au7jDHruVnbLUPMukzbbhnbNaRRTR/hF9RlmKiazpus583bl8eNSq1lb7wz86pZZ24jux8XeNxB8ZGInZLzP7oEPWCRmmQOWMGDqRw8m8JBl2bgSeHP1q5KNYn5Abww8FneOp6lZkhtwY4nn6bCuGmL+qwHnfwUNP/Bg976xWqRPoDKAXbDuiZV3y3cdUU6qTVHqkk0vKwyjVzSt5v5zYKJgfENV9N1BVbkWq9BsiyNqyQVrVUrVXfVWdbDmiadlqW2P7B5NZzu+XX2kflMT/Sdu9Xbv3JLXyelELeem7PdChNsqbEFpaw1//pAZy1v8GrgqdNYKdISYv/MIWobeQo77qD4SMQVwjuA6pAYMUZ1kmaigpquUgbeGA7gBlsLLeSgaEgytuMYs2p4Xsk427SLobD576PGnuc1yz4/e7rqFDiA+uu5RZZMVhPVlMBySsuGp7mJPdVK4g8zkrWzvNerXwCRGo3pyasP0jolr5XCiCRm+7VSaVqXex9xLdt6bu52K0SfUeNUk7RQLJmhpndpbo0zdfqhObJto5Yed9AyJGLnpHTcGCht65Jzl0VqxuxFqtPowprqTJNs8lxlWMZ5IDk429pALjLeXAksbtrFUOj8y/ebnpmsFq0Zp8bamqC8V5/WrCtNtt66T292lctIstU9w+QcdPKbaU2QegpqUbZz8ZZZtrtmhObLV9h6lVqXLoDoGk1qmXQtbHa288PFY/aR0HnGwCmBzt1VvamZW5KI8tz3iiluPTdnuxVMmoDXLFKTm13jlO3bmKy5GqaQlV/izNxGQc0/7qDlSMQOhJsah6tFAwLnurQ+J3VSCxc0o7NE30mmmXt4ctx68Dty6Bru5OBnV69UnbI1aUmnjuA4rgwfOLwDml0Gf/xx0y6GQuZfmIPeQttJy5Ja/o3K9qT1hpndUuve1Fiu9D+bpLOIX89N03esGrcm1cQ5SR8IU9/soyaFpqGzUdq5xgwR85XsHV3geu3cTel9R5mOPcIk8gVNXkKMEblNC5Exn8PVytG2Vq+Xb0yX6anPnuke3z+hKLymYG+d2g55ceu5Odsti+zrUpqAm9TCFtQ4+1wlHeYCxw/pfJXvufWIfSnYM7rZxx20WJtPPvkksWXLFvsSFWHJZDV23di8e482j1xCopPNdakm0OqSa/7l8xmq08ziNY83l5xPlt695b9OGy1Riu0mvZ5nHDijMveFshx3EIVEXHHKlCCl1iuXYhTYU7Vi5Jp/ufZVLrtxfuMKuWQqdYkaCnffffepGTNm2FflIef9g9tNao8tFRyn1LwriVya5h93pMe2OO6449RNN91k/kZpkYgrTckSiCT4VC9RZa6xrKbkUMj8l6kwk4XUpFLXOEsP2GptdWhdSr3dpDY8SU2uzBpnxRRcWycSMQAADtFZCwAAh0jEAAA4RCIGAMAhEjEAAA6RiAEAcIhEDACAQyRiAAAcIhEDAOAQiRgAAIdIxAAAOEQiBgDAIRIxAAAOkYgBAHCIRAwAgEMkYgAAHCIRAwDgEIkYAACHSMQAADhEIgYAwCESMQAADpGIAQBwiEQMAIBDJGIAABwiEQMA4BCJGAAAh0jEAAA4RCIGAMAhEjEAAA6RiAEAcIhEDACAQyRiAAAcIhEDAOAQiRgAAIdIxAAAOEQiBgDAIRIxAAAOkYgBAHCIRAwAgEMkYgAAHCIRAwDgEIkYAACHSMQAADhEIgYAwCESMQAADpGIAQBwiEQMAIBDJGIAABwiEQMA4BCJGAAAh0jEAAA41Gbz5s0J+zcAACgzasQAADhEIgYAwCESMQAADpGIAQBwiEQMAIBDJGIAABwiEQMA4BCJGAAAh0jErcWSa1XfkXPUBvsyJ/l+3756uFY9Z98Ke05dG/d5zt+X1ob7R6lrl9gXEZ6b3Df288L566PY4y2P8PqQZSl8u8k6H3V/fntYru0D1lFrQiKucXKANQnx6YFqyfVK/TCPZGF+I99fskQPA9VC/f3gAVYOEH37LlQDs3ye6/eeDWrOSG9eYg/eyYSeOcQtw5pVjfavaF26DVL1neyLODL9yfEpKbw+lqiBT6ctUx7jKIs35qhRsu5KNC91nTqrzp3q7Kt4ubZPxawzx9Y2xcQGagaJuIZJQlzY30sOS0Y1qVHDpyl1/sM2WYxSc96wX0xz3CT9/UnH+a/UNXPHK7XgWVubfk7dfWdn9ZMl1+hPhP58yU9U5zvvTtag4n8vpMY1TDWes0Q9fH69fS+LvtfYhO59t97OvwzX9LXfaYa6s69RI/a3L1pIksqgm/314S3/7LPzS0jltKFhgep880/UoCcXFlzbzYveVi3ZJkBrRSKuVbr2s7Dbw+bAaGqoVyl1g05eN6hnzUH4uEnnqMarCmiq9i1ZqBZ0r1dd7EvPcWrgKQvUwnyb0XQBYODcliVSX7LGb4b0wkWq1p3eRC6/S9aopaZoa1/e+Lzvmpru5QuUevIybxwxNbRsNZfYcfg11Iz50wUVexrBq22nliu4vLEtCRm8AtTAvgVuqwzZ501eh+YpuHx6ueXzcCtG9PaJW2fx29vKsj1Tr70h67zKENxOSwKtMoHTO6nlsacl5DcynvRTQIH5CU8nvE+GPgtOHzWPRFyjpPajTDPhc2rhk4PUT+4doeRV3dkjbM1NH5C7Nao15u94Mq7Gbp3M743g3wFZk1H67/c/Th1XjNqoPkBepn6SrCEvWXKDOtF+JBZc/kOlrref3azUZXEHt1X3mIOg14IgtdsNak2nG/TvBil1ip1Gf1mbmY6bJC0CwyLOwceMQw66wxvVOcl5lyb8wIF55QL1Q52kfqiLTkuWzDa1dznw36MLV973l6hzVg2LbZ4PkQLUKQPNtj+u/yC14OkWHOgj5i2TTk7DF6hBusDlLfdCNezOcHN09PaJWWc5tndIxvaMW3+6QHBVYF5lGNXF25ayne6pVw/775/TqIYF9qO190hhxJ6WkFag/U9Ueu2qZwMFhOdmT9MxI0VXWSeBbT63Xt2T3Gdyry/ULhJxzersnQN9o0mtzajB+taqpqgaRZA+EP1QmqKTTc0Faunvc1nVZA9kok7VBZJC/fk3pJJEp3pVH/pumpXKHARTtfQ6dVzftOKGrk1GL4U0z+uDZ/IcvJ9Qs4/DFJTOPzcwPq+mek+yltaoOp8TbOLeoJ7VPxnULzW+QhLqc0/rg3x/O7W+A1vYPJ0+bxFM4j8ntf77XqN+cor924rePjnWe8z2DsnYnrnWX6NqbLJ/iv31uPU/ZjsNOtH8baStu0addh9OnqYRdepEXYZY0ODP5QbVtGqQOkfWVaAwZASTdsT6ynnaBjWDRFyj6nQSNgeWiBK6Rw4QnVWnbAcyQ0rp01TnwPnPOJkddQr7fcHk/LHUUGxzXnrtMN+OQ0b3QerE2HWRh/1HqNk6IT98/tr42rcm55XT569Lt+CBd5AaGGq6X6MaVzaqacNt06UM0nybF2kVkRqo/9vL9B7Rkubp9HnLtKFprf0ru4K2j8ixvUMytmfc+qtTI+59WNXfY98PtGzIdmqU1g7/N2bdpdQHk7RV108yse0T8cazakE3L/madeI3t5thmJqmCwxCPqs3tWa0RiTiWqVL7uoeOaDog8z1OhUnD0C2trbkbrVgULBGlk4nUX3QUTenncuNrFlKUtfvh3ohZ/l9scnB2TT1eQfSvJtqS6hOH4hja99W4T1iB6mfmGUNDPm0NJjaVrBJVw8351+bbg7pQV0SLdrecetPkrF9T5J9IBkP0vtw6DehGnCEQOFXatSd/ZYILdjZ0Bu8pn1ZX42r8jlRhFpEIq5Zx6lrpKlUDii2ppY8iNjzXjdka1qUz/veo+pDTXuWOchMU3cHD4A6qU/T7yZrIHG/LxlpEqyvjMs9mnQtyv6ZjTSLNoZ6kmc2nYalN12nWZL9cp9Qs7TPNLHek7XnfItlNH97tfLiKXR751h/QTLvuvYsadE0X5sCbSH85unn9DaVDnL2XakpB64uCMlYX7I/BPYiiamMPgioFSTiWiYJOHDtcHKQHtS281YmrzlZUkmoGS9w3nPEvT9RKtnMqYfLVbIzWO7fF5Ekn+T4+6phd3b2zsUVkzlA2ubELAdC08s3MB99L1+rxl8fWL9R45BzgIMWJJtZpZmy8ZxsHZ88x016WA1aEGwmTdUITbNnZC3c66yX2ZQsiakxcC6z2HRBUDpgJed1oVJp54hjRa2zFm7v7Osv2HtbhsvUWv/8fcZ20kOO0w6i7uxzVOc7L1PTbLO0IfEYWid6SO5T6evrh6oxeKpCCne2cIDa02bz5s0J+zcAlIxcOiS9mMvXSgJUB2rEAMogW80cADViACUhNeDLkueF69X4ufFN70BrRSIGAMChtu+9t8n+CQAAyq3t6tWr7Z8AAKDc2v5jFYkYAABX2j78yG/VmxtKdS0hAACI0/btje+oWbN/aV8CAIBy2mb7nXb90ab3NqmmdevUF7/YTe222272IwAAUFpK/X+bH+PDY1ilaQAAAABJRU5ErkJggg==;movable=0;resizable=0;rotatable=0;deletable=0;editable=0;locked=1;connectable=0;" vertex="1" parent="1">
          <mxGeometry x="1591" y="863" width="482" height="791" as="geometry" />
        </mxCell>
        <mxCell id="ImZzVccB2ujbgJuywWcu-16" value="" style="rounded=0;whiteSpace=wrap;html=1;fillColor=none;" vertex="1" parent="1">
          <mxGeometry x="1635" y="39.75" width="30" height="30.25" as="geometry" />
        </mxCell>
        <mxCell id="ImZzVccB2ujbgJuywWcu-17" value="" style="rounded=0;whiteSpace=wrap;html=1;fillColor=none;" vertex="1" parent="1">
          <mxGeometry x="1729" y="34" width="42" height="37" as="geometry" />
        </mxCell>
        <mxCell id="ImZzVccB2ujbgJuywWcu-18" value="" style="rounded=0;whiteSpace=wrap;html=1;fillColor=none;" vertex="1" parent="1">
          <mxGeometry x="1780" y="34" width="150" height="37" as="geometry" />
        </mxCell>
        <mxCell id="ImZzVccB2ujbgJuywWcu-19" value="" style="rounded=0;whiteSpace=wrap;html=1;fillColor=none;" vertex="1" parent="1">
          <mxGeometry x="1721" y="10" width="219" height="68" as="geometry" />
        </mxCell>
        <mxCell id="ImZzVccB2ujbgJuywWcu-20" value="" style="rounded=0;whiteSpace=wrap;html=1;fillColor=none;movable=1;resizable=1;rotatable=1;deletable=1;editable=1;locked=0;connectable=1;" vertex="1" parent="1">
          <mxGeometry x="1580" y="-30" width="570" height="122.5" as="geometry" />
        </mxCell>
        <mxCell id="ImZzVccB2ujbgJuywWcu-21" value="" style="rounded=0;whiteSpace=wrap;html=1;fillColor=none;" vertex="1" parent="1">
          <mxGeometry x="1983" y="35" width="40" height="36" as="geometry" />
        </mxCell>
        <mxCell id="ImZzVccB2ujbgJuywWcu-22" value="" style="rounded=0;whiteSpace=wrap;html=1;fillColor=none;" vertex="1" parent="1">
          <mxGeometry x="2026" y="34.5" width="40" height="36" as="geometry" />
        </mxCell>
        <mxCell id="ImZzVccB2ujbgJuywWcu-23" value="" style="rounded=0;whiteSpace=wrap;html=1;fillColor=none;" vertex="1" parent="1">
          <mxGeometry x="1970" y="10" width="140" height="70" as="geometry" />
        </mxCell>
        <mxCell id="ImZzVccB2ujbgJuywWcu-24" value="header" style="text;html=1;align=left;verticalAlign=middle;whiteSpace=wrap;rounded=0;" vertex="1" parent="1">
          <mxGeometry x="1580" y="-50" width="60" height="30" as="geometry" />
        </mxCell>
        <mxCell id="ImZzVccB2ujbgJuywWcu-25" value=".navbar-brand" style="text;html=1;align=left;verticalAlign=middle;whiteSpace=wrap;rounded=0;" vertex="1" parent="1">
          <mxGeometry x="1721" y="-10" width="79" height="30" as="geometry" />
        </mxCell>
        <mxCell id="ImZzVccB2ujbgJuywWcu-26" value=".brand-icon" style="text;html=1;align=left;verticalAlign=middle;whiteSpace=wrap;rounded=0;" vertex="1" parent="1">
          <mxGeometry x="1729" y="10" width="71" height="30" as="geometry" />
        </mxCell>
        <mxCell id="ImZzVccB2ujbgJuywWcu-27" value=".brand-title" style="text;html=1;align=left;verticalAlign=middle;whiteSpace=wrap;rounded=0;" vertex="1" parent="1">
          <mxGeometry x="1863" y="10" width="67" height="30" as="geometry" />
        </mxCell>
        <mxCell id="ImZzVccB2ujbgJuywWcu-28" value=".nav-list" style="text;html=1;align=left;verticalAlign=middle;whiteSpace=wrap;rounded=0;" vertex="1" parent="1">
          <mxGeometry x="1970" y="-10" width="150" height="30" as="geometry" />
        </mxCell>
        <mxCell id="ImZzVccB2ujbgJuywWcu-29" value=".nav-item" style="text;html=1;align=left;verticalAlign=middle;whiteSpace=wrap;rounded=0;" vertex="1" parent="1">
          <mxGeometry x="1983" y="10" width="67" height="30" as="geometry" />
        </mxCell>
        <mxCell id="ImZzVccB2ujbgJuywWcu-30" value=".nav-item" style="text;html=1;align=left;verticalAlign=middle;whiteSpace=wrap;rounded=0;" vertex="1" parent="1">
          <mxGeometry x="2050" y="9.75" width="67" height="30" as="geometry" />
        </mxCell>
        <mxCell id="ImZzVccB2ujbgJuywWcu-31" value=".search-btn-left" style="text;html=1;align=left;verticalAlign=middle;whiteSpace=wrap;rounded=0;" vertex="1" parent="1">
          <mxGeometry x="1635" y="18.5" width="89" height="30" as="geometry" />
        </mxCell>
        <mxCell id="ImZzVccB2ujbgJuywWcu-32" value="" style="rounded=0;whiteSpace=wrap;html=1;fillColor=none;movable=1;resizable=1;rotatable=1;deletable=1;editable=1;locked=0;connectable=1;" vertex="1" parent="1">
          <mxGeometry x="1591" y="-10" width="540" height="96" as="geometry" />
        </mxCell>
        <mxCell id="ImZzVccB2ujbgJuywWcu-33" value=".nav" style="text;html=1;align=left;verticalAlign=middle;whiteSpace=wrap;rounded=0;" vertex="1" parent="1">
          <mxGeometry x="1590" y="-30" width="60" height="30" as="geometry" />
        </mxCell>
      </root>
    </mxGraphModel>
  </diagram>
</mxfile>
